<svg width="25" height="25" viewBox="0 0 25 25" fill="none" xmlns="http://www.w3.org/2000/svg">
<path d="M12.5 0C19.4036 2.57703e-07 25 5.59644 25 12.5C25 19.4036 19.4036 25 12.5 25C5.59644 25 2.57711e-07 19.4036 0 12.5C0 5.59644 5.59644 0 12.5 0ZM15.5303 8.42578C14.2177 8.42588 13.6626 9.05362 12.751 9.05371C11.8111 9.05371 11.0967 8.42786 9.96191 8.42773C8.84665 8.42773 7.65894 9.10849 6.90625 10.2734C5.84829 11.9142 6.02869 14.9992 7.74414 17.627C8.35741 18.5674 9.17731 19.6243 10.249 19.6338C11.2027 19.6432 11.4723 19.0225 12.7646 19.0156C14.0567 19.0079 14.3023 19.642 15.2539 19.6318C16.3263 19.6232 17.1914 18.4521 17.8047 17.5117C18.2443 16.8381 18.4088 16.4978 18.75 15.7373C16.268 14.7934 15.8702 11.2647 18.3262 9.91016C17.5769 8.97054 16.5241 8.42578 15.5303 8.42578ZM15.2432 5C14.4631 5.05422 13.5515 5.55359 13.0195 6.2041C12.5346 6.79352 12.1354 7.67052 12.291 8.52148C13.1437 8.54816 14.0245 8.03679 14.5352 7.37598C15.0124 6.75988 15.374 5.88887 15.2432 5Z" fill="white"/>
</svg>
