<svg width="209" height="50" viewBox="0 0 209 50" fill="none" xmlns="http://www.w3.org/2000/svg">
<rect width="209" height="50" fill="#D9D9D9" fill-opacity="0.5"/>
<g clip-path="url(#clip0_168_103)">
<path d="M36.3746 11.4253L39.3896 42.2831L32.0149 43L29 12.1483L36.3746 11.4314V11.4253Z" fill="#C85399"/>
<path d="M47.1695 10.5367L49.1222 35.2548L53.6108 34.8994L54.102 41.082L42.2265 42.0134L39.7826 11.1065L47.1695 10.5244V10.5367Z" fill="#C85399"/>
<path d="M61.2863 9.59302L62.7907 34.3479L67.2855 34.0783L67.6601 40.2732L55.7722 40.9901L53.8933 10.0464L61.2863 9.59915V9.59302Z" fill="#C85399"/>
<path d="M84.8656 8.50244L85.7129 29.201C85.8112 31.5478 85.805 33.2022 85.7068 34.1581C85.6024 35.114 85.2278 36.1066 84.577 37.136C83.9261 38.1654 83.048 38.962 81.9366 39.5257C80.8252 40.0895 79.505 40.402 77.9699 40.4632C76.269 40.5306 74.7584 40.2855 73.4321 39.7279C72.1058 39.1703 71.0987 38.4105 70.4171 37.4546C69.7294 36.4988 69.3119 35.4755 69.1461 34.3909C68.9864 33.3064 68.8329 31.0147 68.6855 27.5221L67.9364 9.19484L75.3356 8.8946L76.2874 32.1238C76.3427 33.4779 76.447 34.3358 76.5944 34.7095C76.7418 35.0833 77.0242 35.2549 77.4356 35.2426C77.9023 35.2243 78.1971 35.0037 78.3137 34.5809C78.4304 34.1642 78.4611 33.1777 78.3936 31.6336L77.4602 8.80881L84.8594 8.50857L84.8656 8.50244Z" fill="#C85399"/>
<path d="M111.171 8L111.681 38.9988L105.209 39.1029L104.859 18.1777L102.624 39.1458L98.0306 39.2194L94.9788 18.815L95.3043 39.2623L88.8323 39.3664L88.3226 8.36765L97.9078 8.20833C98.221 10.065 98.5526 12.2586 98.8964 14.7831L100.075 22.6507L101.531 8.15931L111.165 8H111.171Z" fill="#C85399"/>
<path d="M122.015 8.06745L121.935 39.0662L114.53 39.0478L114.61 8.04907L122.015 8.06745Z" fill="#C85399"/>
<path d="M141.916 8.37988L141.321 39.3725L134.83 39.25L131.25 25.0833L130.98 39.1765L124.791 39.06L125.38 8.06738L131.57 8.1838L135.45 22.2218L135.721 8.26346L141.91 8.37988H141.916Z" fill="#C85399"/>
<path d="M161.584 27.3567C161.449 30.4694 161.283 32.6692 161.093 33.956C160.902 35.2427 160.43 36.4069 159.674 37.4486C158.919 38.4903 157.924 39.2685 156.69 39.7893C155.456 40.3101 154.037 40.5368 152.435 40.4694C150.912 40.402 149.555 40.0712 148.364 39.4768C147.172 38.8824 146.233 38.0246 145.545 36.9094C144.857 35.7942 144.464 34.5932 144.379 33.3126C144.293 32.0319 144.323 29.7954 144.458 26.6091L144.692 21.3089C144.827 18.1962 144.993 15.9964 145.183 14.7096C145.373 13.4229 145.846 12.2587 146.601 11.217C147.357 10.1753 148.351 9.39714 149.586 8.8763C150.82 8.35547 152.238 8.12875 153.841 8.19616C155.364 8.26356 156.721 8.59444 157.912 9.1888C159.103 9.78316 160.043 10.641 160.73 11.7562C161.424 12.8714 161.811 14.0724 161.897 15.353C161.983 16.6337 161.952 18.8702 161.817 22.0564L161.584 27.3567ZM154.627 16.8604C154.688 15.4204 154.658 14.4952 154.529 14.0846C154.4 13.6741 154.105 13.4596 153.651 13.4413C153.264 13.4229 152.963 13.5761 152.742 13.8886C152.521 14.2072 152.379 15.1631 152.306 16.7562L151.673 31.217C151.594 33.0185 151.612 34.1275 151.729 34.5564C151.845 34.9854 152.152 35.206 152.644 35.2305C153.147 35.255 153.479 35.0221 153.644 34.5442C153.804 34.0663 153.927 32.9143 154.007 31.0883L154.627 16.8542V16.8604Z" fill="#C85399"/>
<path d="M180.822 19.9179L173.963 19.4216L174.129 17.13C174.209 16.0577 174.166 15.3714 174.012 15.065C173.859 14.7586 173.576 14.5932 173.165 14.5626C172.723 14.5319 172.373 14.7035 172.115 15.0834C171.857 15.4633 171.697 16.0515 171.642 16.8542C171.568 17.8836 171.642 18.6741 171.857 19.2133C172.066 19.7525 172.71 20.4327 173.803 21.2537C176.935 23.6189 178.882 25.5123 179.637 26.9339C180.392 28.3554 180.656 30.5858 180.435 33.6128C180.275 35.8187 179.919 37.4241 179.367 38.429C178.814 39.44 177.838 40.2488 176.425 40.8554C175.013 41.4621 173.41 41.701 171.611 41.5724C169.634 41.4314 167.976 40.8983 166.638 39.9792C165.299 39.0662 164.458 37.9572 164.12 36.6643C163.776 35.3714 163.69 33.5699 163.862 31.2476L164.009 29.2255L170.868 29.7219L170.592 33.4841C170.506 34.6422 170.549 35.3959 170.721 35.739C170.893 36.0822 171.218 36.2721 171.71 36.3089C172.201 36.3456 172.581 36.1618 172.852 35.7574C173.122 35.353 173.288 34.7403 173.349 33.913C173.484 32.0932 173.343 30.8861 172.925 30.2917C172.496 29.6974 171.415 28.6802 169.671 27.2341C167.933 25.7758 166.785 24.728 166.232 24.0846C165.68 23.4412 165.244 22.5773 164.931 21.4927C164.617 20.4081 164.519 19.0417 164.636 17.3996C164.808 15.0344 165.213 13.3187 165.845 12.2648C166.478 11.2108 167.442 10.4204 168.725 9.89344C170.009 9.36648 171.531 9.16427 173.288 9.29295C175.203 9.43388 176.818 9.88731 178.12 10.6594C179.422 11.4314 180.257 12.3444 180.619 13.4045C180.982 14.4645 181.074 16.217 180.896 18.6741L180.804 19.8996L180.822 19.9179Z" fill="#C85399"/>
</g>
<defs>
<clipPath id="clip0_168_103">
<rect width="152" height="35" fill="white" transform="translate(29 8)"/>
</clipPath>
</defs>
</svg>
