<svg width="209" height="50" viewBox="0 0 209 50" fill="none" xmlns="http://www.w3.org/2000/svg">
<rect width="209" height="50" fill="#F5F5F5"/>
<rect width="1440" height="2657" transform="translate(-60 -2564)" fill="black"/>
<rect x="-60" y="-15" width="1440" height="80" fill="#CA529A"/>
<rect width="209" height="50" fill="#D9D9D9" fill-opacity="0.5"/>
<g clip-path="url(#clip0_0_1)">
<path d="M48.4493 42.2614C48.2013 41.6413 48.0516 41.1196 47.9575 40.7518C47.9147 40.5807 47.8249 40.2172 47.5854 38.793C47.4785 38.1601 47.3801 37.5357 47.3502 37.3261C46.9268 34.4308 47.966 31.4371 46.683 29.8847C46.3024 29.4228 45.5369 28.8668 43.7877 28.8326H41.7905V43.0868C39.8617 43.3306 37.9329 43.5787 36.0041 43.8224V7H44.7371C47.7522 7 49.9376 7.70138 51.2848 9.10414C52.6362 10.5069 53.3119 12.6281 53.3119 15.4679V18.3589C53.3119 22.1481 52.0503 24.6371 49.5228 25.8303C50.9939 26.4291 52.0032 27.3999 52.5464 28.7513C53.0895 30.1028 53.3632 31.7407 53.3632 33.6695V36.1928C53.3247 36.7616 53.3333 37.4587 53.4659 38.2456C53.7182 39.7425 54.3127 40.8715 54.7574 41.5643C52.6576 41.7953 50.5577 42.0305 48.4536 42.2614H48.4493ZM41.7862 12.2603V23.568H44.0486C45.1349 23.568 45.9859 23.2857 46.6018 22.7254C47.2133 22.1652 47.5213 21.1473 47.5213 19.6762V16.0452C47.5213 14.7109 47.286 13.7486 46.8113 13.1499C46.3366 12.5554 45.5925 12.2561 44.5746 12.2561H41.7862V12.2603Z" fill="#C95399"/>
<path d="M60.2874 41.0126C60.2874 29.6751 60.2874 18.3375 60.2917 7H76.3208V12.8035L66.0866 12.7607V20.5229L73.8275 20.4588L73.8831 26.1768L66.0139 26.2067L66.0439 34.7772L76.3208 34.1271V39.8494C70.9749 40.2386 65.629 40.6235 60.2831 41.0126H60.2874Z" fill="#C95399"/>
<path d="M80.003 7H97.8968V12.7821H91.8452V39.1737L86.0503 39.3661L86.0289 12.7393L80.003 12.7821V7Z" fill="#C95399"/>
<path d="M101.545 7H117.647V12.7821H107.383L107.327 20.1979H115.166L115.196 25.8945H107.357L107.383 39.0069H101.545V7Z" fill="#C95399"/>
<path d="M121.354 7H127.137V33.7594L137.02 34.3538V40.106L121.354 39.3661V7Z" fill="#C95399"/>
<path d="M141.737 7C143.692 7 145.642 7 147.596 7V40.9528C145.638 40.7903 143.679 40.6277 141.716 40.4652C141.724 29.3116 141.729 18.1579 141.737 7Z" fill="#C95399"/>
<path d="M152.446 7H158.733L162.428 16.614L166.658 7H173L165.473 24.4532L173 43.9379L166.316 42.9543L162.146 32.07L157.942 41.992L151.796 41.3163L159.126 24.342L152.446 7Z" fill="#C95399"/>
</g>
<defs>
<clipPath id="clip0_0_1">
<rect width="137" height="36.9379" fill="white" transform="translate(36 7)"/>
</clipPath>
</defs>
</svg>
