<svg width="336" height="235" viewBox="0 0 336 235" fill="none" xmlns="http://www.w3.org/2000/svg">
<rect width="336" height="235" rx="10" fill="white"/>
<rect x="10" y="10" width="316" height="65" rx="10" fill="#B3B3B3" fill-opacity="0.3"/>
<path d="M31.824 36V24.8H36.016C36.9653 24.8 37.7813 24.9547 38.464 25.264C39.1467 25.5627 39.6693 26 40.032 26.576C40.4053 27.1413 40.592 27.8293 40.592 28.64C40.592 29.4293 40.4053 30.112 40.032 30.688C39.6693 31.2533 39.1467 31.6907 38.464 32C37.7813 32.3093 36.9653 32.464 36.016 32.464H32.48L33.008 31.904V36H31.824ZM33.008 32L32.48 31.424H35.984C37.104 31.424 37.952 31.184 38.528 30.704C39.1147 30.2133 39.408 29.5253 39.408 28.64C39.408 27.744 39.1147 27.0507 38.528 26.56C37.952 26.0693 37.104 25.824 35.984 25.824H32.48L33.008 25.264V32ZM46.4333 36.08C45.5586 36.08 44.7906 35.8987 44.1293 35.536C43.4679 35.1627 42.9506 34.656 42.5773 34.016C42.2039 33.3653 42.0173 32.624 42.0173 31.792C42.0173 30.96 42.1933 30.224 42.5453 29.584C42.9079 28.944 43.3986 28.4427 44.0173 28.08C44.6466 27.7067 45.3506 27.52 46.1293 27.52C46.9186 27.52 47.6173 27.7013 48.2253 28.064C48.8439 28.416 49.3293 28.9173 49.6813 29.568C50.0333 30.208 50.2093 30.9493 50.2093 31.792C50.2093 31.8453 50.2039 31.904 50.1933 31.968C50.1933 32.0213 50.1933 32.08 50.1933 32.144H42.8813V31.296H49.5853L49.1373 31.632C49.1373 31.024 49.0039 30.4853 48.7373 30.016C48.4813 29.536 48.1293 29.1627 47.6813 28.896C47.2333 28.6293 46.7159 28.496 46.1293 28.496C45.5533 28.496 45.0359 28.6293 44.5773 28.896C44.1186 29.1627 43.7613 29.536 43.5053 30.016C43.2493 30.496 43.1213 31.0453 43.1213 31.664V31.84C43.1213 32.48 43.2599 33.0453 43.5373 33.536C43.8253 34.016 44.2199 34.3947 44.7213 34.672C45.2333 34.9387 45.8146 35.072 46.4653 35.072C46.9773 35.072 47.4519 34.9813 47.8893 34.8C48.3373 34.6187 48.7213 34.3413 49.0413 33.968L49.6813 34.704C49.3079 35.152 48.8386 35.4933 48.2733 35.728C47.7186 35.9627 47.1053 36.08 46.4333 36.08ZM52.5215 36V27.6H53.6095V29.888L53.4975 29.488C53.7322 28.848 54.1268 28.3627 54.6815 28.032C55.2362 27.6907 55.9242 27.52 56.7455 27.52V28.624C56.7028 28.624 56.6602 28.624 56.6175 28.624C56.5748 28.6133 56.5322 28.608 56.4895 28.608C55.6042 28.608 54.9108 28.88 54.4095 29.424C53.9082 29.9573 53.6575 30.72 53.6575 31.712V36H52.5215ZM61.1681 36.08C60.4748 36.08 59.8188 35.984 59.2001 35.792C58.5815 35.5893 58.0961 35.3387 57.7441 35.04L58.2561 34.144C58.5975 34.4 59.0348 34.624 59.5681 34.816C60.1015 34.9973 60.6615 35.088 61.2481 35.088C62.0481 35.088 62.6241 34.9653 62.9761 34.72C63.3281 34.464 63.5041 34.128 63.5041 33.712C63.5041 33.4027 63.4028 33.1627 63.2001 32.992C63.0081 32.8107 62.7521 32.6773 62.4321 32.592C62.1121 32.496 61.7548 32.416 61.3601 32.352C60.9655 32.288 60.5708 32.2133 60.1761 32.128C59.7921 32.0427 59.4401 31.92 59.1201 31.76C58.8001 31.5893 58.5388 31.36 58.3361 31.072C58.1441 30.784 58.0481 30.4 58.0481 29.92C58.0481 29.4613 58.1761 29.0507 58.4321 28.688C58.6881 28.3253 59.0615 28.0427 59.5521 27.84C60.0535 27.6267 60.6615 27.52 61.3761 27.52C61.9201 27.52 62.4641 27.5947 63.0081 27.744C63.5521 27.8827 64.0001 28.0693 64.3521 28.304L63.8561 29.216C63.4828 28.96 63.0828 28.7787 62.6561 28.672C62.2295 28.5547 61.8028 28.496 61.3761 28.496C60.6188 28.496 60.0588 28.6293 59.6961 28.896C59.3441 29.152 59.1681 29.4827 59.1681 29.888C59.1681 30.208 59.2641 30.4587 59.4561 30.64C59.6588 30.8213 59.9201 30.9653 60.2401 31.072C60.5708 31.168 60.9281 31.248 61.3121 31.312C61.7068 31.376 62.0961 31.456 62.4801 31.552C62.8748 31.6373 63.2321 31.76 63.5521 31.92C63.8828 32.0693 64.1441 32.288 64.3361 32.576C64.5388 32.8533 64.6401 33.2213 64.6401 33.68C64.6401 34.1707 64.5015 34.5973 64.2241 34.96C63.9575 35.312 63.5628 35.5893 63.0401 35.792C62.5281 35.984 61.9041 36.08 61.1681 36.08ZM70.1486 36.08C69.338 36.08 68.6073 35.8987 67.9566 35.536C67.3166 35.1627 66.81 34.656 66.4366 34.016C66.0633 33.3653 65.8766 32.624 65.8766 31.792C65.8766 30.9493 66.0633 30.208 66.4366 29.568C66.81 28.928 67.3166 28.4267 67.9566 28.064C68.5966 27.7013 69.3273 27.52 70.1486 27.52C70.9806 27.52 71.7166 27.7013 72.3566 28.064C73.0073 28.4267 73.514 28.928 73.8766 29.568C74.25 30.208 74.4366 30.9493 74.4366 31.792C74.4366 32.624 74.25 33.3653 73.8766 34.016C73.514 34.656 73.0073 35.1627 72.3566 35.536C71.706 35.8987 70.97 36.08 70.1486 36.08ZM70.1486 35.072C70.7566 35.072 71.2953 34.9387 71.7646 34.672C72.234 34.3947 72.602 34.0107 72.8686 33.52C73.146 33.0187 73.2846 32.4427 73.2846 31.792C73.2846 31.1307 73.146 30.5547 72.8686 30.064C72.602 29.5733 72.234 29.1947 71.7646 28.928C71.2953 28.6507 70.762 28.512 70.1646 28.512C69.5673 28.512 69.034 28.6507 68.5646 28.928C68.0953 29.1947 67.722 29.5733 67.4446 30.064C67.1673 30.5547 67.0286 31.1307 67.0286 31.792C67.0286 32.4427 67.1673 33.0187 67.4446 33.52C67.722 34.0107 68.0953 34.3947 68.5646 34.672C69.034 34.9387 69.562 35.072 70.1486 35.072ZM81.0439 27.52C81.7265 27.52 82.3239 27.6533 82.8359 27.92C83.3585 28.176 83.7639 28.5707 84.0519 29.104C84.3505 29.6373 84.4999 30.3093 84.4999 31.12V36H83.3639V31.232C83.3639 30.3467 83.1399 29.68 82.6919 29.232C82.2545 28.7733 81.6359 28.544 80.8359 28.544C80.2385 28.544 79.7159 28.6667 79.2679 28.912C78.8305 29.1467 78.4892 29.4933 78.2439 29.952C78.0092 30.4 77.8919 30.944 77.8919 31.584V36H76.7559V27.6H77.8439V29.904L77.6679 29.472C77.9345 28.864 78.3612 28.3893 78.9479 28.048C79.5345 27.696 80.2332 27.52 81.0439 27.52ZM92.8324 36V34.144L92.7844 33.84V30.736C92.7844 30.0213 92.5817 29.472 92.1764 29.088C91.7817 28.704 91.1897 28.512 90.4004 28.512C89.8564 28.512 89.339 28.6027 88.8484 28.784C88.3577 28.9653 87.9417 29.2053 87.6004 29.504L87.0884 28.656C87.515 28.2933 88.027 28.016 88.6244 27.824C89.2217 27.6213 89.851 27.52 90.5124 27.52C91.6004 27.52 92.4377 27.792 93.0244 28.336C93.6217 28.8693 93.9204 29.6853 93.9204 30.784V36H92.8324ZM89.9364 36.08C89.307 36.08 88.7577 35.9787 88.2884 35.776C87.8297 35.5627 87.4777 35.2747 87.2324 34.912C86.987 34.5387 86.8644 34.112 86.8644 33.632C86.8644 33.1947 86.9657 32.8 87.1684 32.448C87.3817 32.0853 87.723 31.7973 88.1924 31.584C88.6724 31.36 89.3124 31.248 90.1124 31.248H93.0084V32.096H90.1444C89.3337 32.096 88.7684 32.24 88.4484 32.528C88.139 32.816 87.9844 33.1733 87.9844 33.6C87.9844 34.08 88.171 34.464 88.5444 34.752C88.9177 35.04 89.4404 35.184 90.1124 35.184C90.7524 35.184 91.3017 35.04 91.7604 34.752C92.2297 34.4533 92.571 34.0267 92.7844 33.472L93.0404 34.256C92.827 34.8107 92.4537 35.2533 91.9204 35.584C91.3977 35.9147 90.7364 36.08 89.9364 36.08ZM97.0059 36V24.128H98.1419V36H97.0059ZM105.73 36V24.8H106.914V36H105.73ZM114.606 27.52C115.289 27.52 115.886 27.6533 116.398 27.92C116.921 28.176 117.326 28.5707 117.614 29.104C117.913 29.6373 118.062 30.3093 118.062 31.12V36H116.926V31.232C116.926 30.3467 116.702 29.68 116.254 29.232C115.817 28.7733 115.198 28.544 114.398 28.544C113.801 28.544 113.278 28.6667 112.83 28.912C112.393 29.1467 112.052 29.4933 111.806 29.952C111.572 30.4 111.454 30.944 111.454 31.584V36H110.318V27.6H111.406V29.904L111.23 29.472C111.497 28.864 111.924 28.3893 112.51 28.048C113.097 27.696 113.796 27.52 114.606 27.52ZM121.323 36V26.544C121.323 25.7973 121.542 25.1947 121.979 24.736C122.416 24.2773 123.046 24.048 123.867 24.048C124.187 24.048 124.496 24.0907 124.795 24.176C125.094 24.2613 125.344 24.3947 125.547 24.576L125.163 25.424C125.003 25.2853 124.816 25.184 124.603 25.12C124.39 25.0453 124.16 25.008 123.915 25.008C123.435 25.008 123.067 25.1413 122.811 25.408C122.555 25.6747 122.427 26.0693 122.427 26.592V27.872L122.459 28.4V36H121.323ZM119.819 28.544V27.6H125.019V28.544H119.819ZM129.836 36.08C129.025 36.08 128.295 35.8987 127.644 35.536C127.004 35.1627 126.497 34.656 126.124 34.016C125.751 33.3653 125.564 32.624 125.564 31.792C125.564 30.9493 125.751 30.208 126.124 29.568C126.497 28.928 127.004 28.4267 127.644 28.064C128.284 27.7013 129.015 27.52 129.836 27.52C130.668 27.52 131.404 27.7013 132.044 28.064C132.695 28.4267 133.201 28.928 133.564 29.568C133.937 30.208 134.124 30.9493 134.124 31.792C134.124 32.624 133.937 33.3653 133.564 34.016C133.201 34.656 132.695 35.1627 132.044 35.536C131.393 35.8987 130.657 36.08 129.836 36.08ZM129.836 35.072C130.444 35.072 130.983 34.9387 131.452 34.672C131.921 34.3947 132.289 34.0107 132.556 33.52C132.833 33.0187 132.972 32.4427 132.972 31.792C132.972 31.1307 132.833 30.5547 132.556 30.064C132.289 29.5733 131.921 29.1947 131.452 28.928C130.983 28.6507 130.449 28.512 129.852 28.512C129.255 28.512 128.721 28.6507 128.252 28.928C127.783 29.1947 127.409 29.5733 127.132 30.064C126.855 30.5547 126.716 31.1307 126.716 31.792C126.716 32.4427 126.855 33.0187 127.132 33.52C127.409 34.0107 127.783 34.3947 128.252 34.672C128.721 34.9387 129.249 35.072 129.836 35.072ZM136.443 36V27.6H137.531V29.888L137.419 29.488C137.654 28.848 138.049 28.3627 138.603 28.032C139.158 27.6907 139.846 27.52 140.667 27.52V28.624C140.625 28.624 140.582 28.624 140.539 28.624C140.497 28.6133 140.454 28.608 140.411 28.608C139.526 28.608 138.833 28.88 138.331 29.424C137.83 29.9573 137.579 30.72 137.579 31.712V36H136.443ZM153.236 27.52C153.919 27.52 154.511 27.6533 155.012 27.92C155.524 28.176 155.919 28.5707 156.196 29.104C156.484 29.6373 156.628 30.3093 156.628 31.12V36H155.492V31.232C155.492 30.3467 155.279 29.68 154.852 29.232C154.436 28.7733 153.844 28.544 153.076 28.544C152.5 28.544 151.999 28.6667 151.572 28.912C151.156 29.1467 150.831 29.4933 150.596 29.952C150.372 30.4 150.26 30.944 150.26 31.584V36H149.124V31.232C149.124 30.3467 148.911 29.68 148.484 29.232C148.058 28.7733 147.46 28.544 146.692 28.544C146.127 28.544 145.631 28.6667 145.204 28.912C144.778 29.1467 144.447 29.4933 144.212 29.952C143.988 30.4 143.876 30.944 143.876 31.584V36H142.74V27.6H143.828V29.872L143.652 29.472C143.908 28.864 144.319 28.3893 144.884 28.048C145.46 27.696 146.138 27.52 146.916 27.52C147.738 27.52 148.436 27.728 149.012 28.144C149.588 28.5493 149.962 29.1627 150.132 29.984L149.684 29.808C149.93 29.1253 150.362 28.576 150.98 28.16C151.61 27.7333 152.362 27.52 153.236 27.52ZM164.973 36V34.144L164.925 33.84V30.736C164.925 30.0213 164.722 29.472 164.317 29.088C163.922 28.704 163.33 28.512 162.541 28.512C161.997 28.512 161.48 28.6027 160.989 28.784C160.498 28.9653 160.082 29.2053 159.741 29.504L159.229 28.656C159.656 28.2933 160.168 28.016 160.765 27.824C161.362 27.6213 161.992 27.52 162.653 27.52C163.741 27.52 164.578 27.792 165.165 28.336C165.762 28.8693 166.061 29.6853 166.061 30.784V36H164.973ZM162.077 36.08C161.448 36.08 160.898 35.9787 160.429 35.776C159.97 35.5627 159.618 35.2747 159.373 34.912C159.128 34.5387 159.005 34.112 159.005 33.632C159.005 33.1947 159.106 32.8 159.309 32.448C159.522 32.0853 159.864 31.7973 160.333 31.584C160.813 31.36 161.453 31.248 162.253 31.248H165.149V32.096H162.285C161.474 32.096 160.909 32.24 160.589 32.528C160.28 32.816 160.125 33.1733 160.125 33.6C160.125 34.08 160.312 34.464 160.685 34.752C161.058 35.04 161.581 35.184 162.253 35.184C162.893 35.184 163.442 35.04 163.901 34.752C164.37 34.4533 164.712 34.0267 164.925 33.472L165.181 34.256C164.968 34.8107 164.594 35.2533 164.061 35.584C163.538 35.9147 162.877 36.08 162.077 36.08ZM171.803 36.08C171.013 36.08 170.405 35.8667 169.979 35.44C169.552 35.0133 169.339 34.4107 169.339 33.632V25.744H170.475V33.568C170.475 34.0587 170.597 34.4373 170.843 34.704C171.099 34.9707 171.461 35.104 171.931 35.104C172.432 35.104 172.848 34.96 173.179 34.672L173.579 35.488C173.355 35.6907 173.083 35.84 172.763 35.936C172.453 36.032 172.133 36.08 171.803 36.08ZM167.835 28.544V27.6H173.035V28.544H167.835ZM175.647 36V27.6H176.783V36H175.647ZM176.223 25.744C175.988 25.744 175.791 25.664 175.631 25.504C175.471 25.344 175.391 25.152 175.391 24.928C175.391 24.704 175.471 24.5173 175.631 24.368C175.791 24.208 175.988 24.128 176.223 24.128C176.457 24.128 176.655 24.2027 176.815 24.352C176.975 24.5013 177.055 24.688 177.055 24.912C177.055 25.1467 176.975 25.344 176.815 25.504C176.665 25.664 176.468 25.744 176.223 25.744ZM183.367 36.08C182.557 36.08 181.826 35.8987 181.175 35.536C180.535 35.1627 180.029 34.656 179.655 34.016C179.282 33.3653 179.095 32.624 179.095 31.792C179.095 30.9493 179.282 30.208 179.655 29.568C180.029 28.928 180.535 28.4267 181.175 28.064C181.815 27.7013 182.546 27.52 183.367 27.52C184.199 27.52 184.935 27.7013 185.575 28.064C186.226 28.4267 186.733 28.928 187.095 29.568C187.469 30.208 187.655 30.9493 187.655 31.792C187.655 32.624 187.469 33.3653 187.095 34.016C186.733 34.656 186.226 35.1627 185.575 35.536C184.925 35.8987 184.189 36.08 183.367 36.08ZM183.367 35.072C183.975 35.072 184.514 34.9387 184.983 34.672C185.453 34.3947 185.821 34.0107 186.087 33.52C186.365 33.0187 186.503 32.4427 186.503 31.792C186.503 31.1307 186.365 30.5547 186.087 30.064C185.821 29.5733 185.453 29.1947 184.983 28.928C184.514 28.6507 183.981 28.512 183.383 28.512C182.786 28.512 182.253 28.6507 181.783 28.928C181.314 29.1947 180.941 29.5733 180.663 30.064C180.386 30.5547 180.247 31.1307 180.247 31.792C180.247 32.4427 180.386 33.0187 180.663 33.52C180.941 34.0107 181.314 34.3947 181.783 34.672C182.253 34.9387 182.781 35.072 183.367 35.072ZM194.263 27.52C194.945 27.52 195.543 27.6533 196.055 27.92C196.577 28.176 196.983 28.5707 197.271 29.104C197.569 29.6373 197.719 30.3093 197.719 31.12V36H196.583V31.232C196.583 30.3467 196.359 29.68 195.911 29.232C195.473 28.7733 194.855 28.544 194.055 28.544C193.457 28.544 192.935 28.6667 192.487 28.912C192.049 29.1467 191.708 29.4933 191.463 29.952C191.228 30.4 191.111 30.944 191.111 31.584V36H189.975V27.6H191.063V29.904L190.887 29.472C191.153 28.864 191.58 28.3893 192.167 28.048C192.753 27.696 193.452 27.52 194.263 27.52Z" fill="black"/>
<path d="M32.88 55.224H38.8V56.248H32.88V55.224ZM33.008 61H31.824V49.8H39.504V50.824H33.008V61ZM44.8998 61.08C44.1851 61.08 43.5611 60.9467 43.0278 60.68C42.4944 60.4133 42.0784 60.0133 41.7798 59.48C41.4918 58.9467 41.3478 58.28 41.3478 57.48V52.6H42.4838V57.352C42.4838 58.248 42.7024 58.9253 43.1398 59.384C43.5878 59.832 44.2118 60.056 45.0118 60.056C45.5984 60.056 46.1051 59.9387 46.5318 59.704C46.9691 59.4587 47.2998 59.1067 47.5238 58.648C47.7584 58.1893 47.8758 57.64 47.8758 57V52.6H49.0118V61H47.9237V58.696L48.0998 59.112C47.8331 59.7307 47.4171 60.216 46.8518 60.568C46.2971 60.9093 45.6464 61.08 44.8998 61.08ZM52.1778 61V49.128H53.3138V61H52.1778ZM56.4746 61V49.128H57.6106V61H56.4746ZM69.247 52.52C69.9297 52.52 70.527 52.6533 71.039 52.92C71.5617 53.176 71.967 53.5707 72.255 54.104C72.5537 54.6373 72.703 55.3093 72.703 56.12V61H71.567V56.232C71.567 55.3467 71.343 54.68 70.895 54.232C70.4577 53.7733 69.839 53.544 69.039 53.544C68.4417 53.544 67.919 53.6667 67.471 53.912C67.0337 54.1467 66.6923 54.4933 66.447 54.952C66.2123 55.4 66.095 55.944 66.095 56.584V61H64.959V52.6H66.047V54.904L65.871 54.472C66.1377 53.864 66.5643 53.3893 67.151 53.048C67.7377 52.696 68.4363 52.52 69.247 52.52ZM81.0355 61V59.144L80.9875 58.84V55.736C80.9875 55.0213 80.7848 54.472 80.3795 54.088C79.9848 53.704 79.3928 53.512 78.6035 53.512C78.0595 53.512 77.5422 53.6027 77.0515 53.784C76.5608 53.9653 76.1448 54.2053 75.8035 54.504L75.2915 53.656C75.7182 53.2933 76.2302 53.016 76.8275 52.824C77.4248 52.6213 78.0542 52.52 78.7155 52.52C79.8035 52.52 80.6408 52.792 81.2275 53.336C81.8248 53.8693 82.1235 54.6853 82.1235 55.784V61H81.0355ZM78.1395 61.08C77.5102 61.08 76.9608 60.9787 76.4915 60.776C76.0328 60.5627 75.6808 60.2747 75.4355 59.912C75.1902 59.5387 75.0675 59.112 75.0675 58.632C75.0675 58.1947 75.1688 57.8 75.3715 57.448C75.5848 57.0853 75.9262 56.7973 76.3955 56.584C76.8755 56.36 77.5155 56.248 78.3155 56.248H81.2115V57.096H78.3475C77.5368 57.096 76.9715 57.24 76.6515 57.528C76.3422 57.816 76.1875 58.1733 76.1875 58.6C76.1875 59.08 76.3742 59.464 76.7475 59.752C77.1208 60.04 77.6435 60.184 78.3155 60.184C78.9555 60.184 79.5048 60.04 79.9635 59.752C80.4328 59.4533 80.7742 59.0267 80.9875 58.472L81.2435 59.256C81.0302 59.8107 80.6568 60.2533 80.1235 60.584C79.6008 60.9147 78.9395 61.08 78.1395 61.08ZM95.705 52.52C96.3877 52.52 96.9797 52.6533 97.481 52.92C97.993 53.176 98.3877 53.5707 98.665 54.104C98.953 54.6373 99.097 55.3093 99.097 56.12V61H97.961V56.232C97.961 55.3467 97.7477 54.68 97.321 54.232C96.905 53.7733 96.313 53.544 95.545 53.544C94.969 53.544 94.4677 53.6667 94.041 53.912C93.625 54.1467 93.2997 54.4933 93.065 54.952C92.841 55.4 92.729 55.944 92.729 56.584V61H91.593V56.232C91.593 55.3467 91.3797 54.68 90.953 54.232C90.5263 53.7733 89.929 53.544 89.161 53.544C88.5957 53.544 88.0997 53.6667 87.673 53.912C87.2463 54.1467 86.9157 54.4933 86.681 54.952C86.457 55.4 86.345 55.944 86.345 56.584V61H85.209V52.6H86.297V54.872L86.121 54.472C86.377 53.864 86.7877 53.3893 87.353 53.048C87.929 52.696 88.6063 52.52 89.385 52.52C90.2063 52.52 90.905 52.728 91.481 53.144C92.057 53.5493 92.4303 54.1627 92.601 54.984L92.153 54.808C92.3983 54.1253 92.8303 53.576 93.449 53.16C94.0783 52.7333 94.8303 52.52 95.705 52.52ZM105.746 61.08C104.871 61.08 104.103 60.8987 103.442 60.536C102.78 60.1627 102.263 59.656 101.89 59.016C101.516 58.3653 101.33 57.624 101.33 56.792C101.33 55.96 101.506 55.224 101.858 54.584C102.22 53.944 102.711 53.4427 103.33 53.08C103.959 52.7067 104.663 52.52 105.442 52.52C106.231 52.52 106.93 52.7013 107.538 53.064C108.156 53.416 108.642 53.9173 108.994 54.568C109.346 55.208 109.522 55.9493 109.522 56.792C109.522 56.8453 109.516 56.904 109.506 56.968C109.506 57.0213 109.506 57.08 109.506 57.144H102.194V56.296H108.898L108.45 56.632C108.45 56.024 108.316 55.4853 108.05 55.016C107.794 54.536 107.442 54.1627 106.994 53.896C106.546 53.6293 106.028 53.496 105.442 53.496C104.866 53.496 104.348 53.6293 103.89 53.896C103.431 54.1627 103.074 54.536 102.818 55.016C102.562 55.496 102.434 56.0453 102.434 56.664V56.84C102.434 57.48 102.572 58.0453 102.85 58.536C103.138 59.016 103.532 59.3947 104.034 59.672C104.546 59.9387 105.127 60.072 105.778 60.072C106.29 60.072 106.764 59.9813 107.202 59.8C107.65 59.6187 108.034 59.3413 108.354 58.968L108.994 59.704C108.62 60.152 108.151 60.4933 107.586 60.728C107.031 60.9627 106.418 61.08 105.746 61.08ZM111.146 63.336L111.85 60.376L111.978 61.064C111.733 61.064 111.525 60.984 111.354 60.824C111.194 60.664 111.114 60.456 111.114 60.2C111.114 59.944 111.194 59.736 111.354 59.576C111.525 59.416 111.727 59.336 111.962 59.336C112.207 59.336 112.405 59.4213 112.554 59.592C112.714 59.7627 112.794 59.9653 112.794 60.2C112.794 60.2853 112.789 60.3707 112.778 60.456C112.767 60.5413 112.746 60.6373 112.714 60.744C112.682 60.8507 112.639 60.9787 112.586 61.128L111.914 63.336H111.146ZM123.748 61.08C123.012 61.08 122.351 60.9147 121.764 60.584C121.177 60.2427 120.713 59.752 120.372 59.112C120.031 58.472 119.86 57.6987 119.86 56.792C119.86 55.8747 120.031 55.1013 120.372 54.472C120.724 53.832 121.193 53.3467 121.78 53.016C122.367 52.6853 123.023 52.52 123.748 52.52C124.548 52.52 125.263 52.7013 125.892 53.064C126.532 53.416 127.033 53.912 127.396 54.552C127.759 55.192 127.94 55.9387 127.94 56.792C127.94 57.6347 127.759 58.3813 127.396 59.032C127.033 59.672 126.532 60.1733 125.892 60.536C125.263 60.8987 124.548 61.08 123.748 61.08ZM119.412 61V49.128H120.548V55.08L120.388 56.776L120.5 58.472V61H119.412ZM123.668 60.072C124.265 60.072 124.799 59.9387 125.268 59.672C125.737 59.3947 126.111 59.0107 126.388 58.52C126.665 58.0187 126.804 57.4427 126.804 56.792C126.804 56.1307 126.665 55.5547 126.388 55.064C126.111 54.5733 125.737 54.1947 125.268 53.928C124.799 53.6507 124.265 53.512 123.668 53.512C123.071 53.512 122.532 53.6507 122.052 53.928C121.583 54.1947 121.209 54.5733 120.932 55.064C120.665 55.5547 120.532 56.1307 120.532 56.792C120.532 57.4427 120.665 58.0187 120.932 58.52C121.209 59.0107 121.583 59.3947 122.052 59.672C122.532 59.9387 123.071 60.072 123.668 60.072ZM130.256 61V52.6H131.392V61H130.256ZM130.832 50.744C130.597 50.744 130.4 50.664 130.24 50.504C130.08 50.344 130 50.152 130 49.928C130 49.704 130.08 49.5173 130.24 49.368C130.4 49.208 130.597 49.128 130.832 49.128C131.067 49.128 131.264 49.2027 131.424 49.352C131.584 49.5013 131.664 49.688 131.664 49.912C131.664 50.1467 131.584 50.344 131.424 50.504C131.275 50.664 131.077 50.744 130.832 50.744ZM134.553 61V52.6H135.641V54.888L135.529 54.488C135.763 53.848 136.158 53.3627 136.713 53.032C137.267 52.6907 137.955 52.52 138.777 52.52V53.624C138.734 53.624 138.691 53.624 138.649 53.624C138.606 53.6133 138.563 53.608 138.521 53.608C137.635 53.608 136.942 53.88 136.441 54.424C135.939 54.9573 135.689 55.72 135.689 56.712V61H134.553ZM143.865 61.08C143.076 61.08 142.468 60.8667 142.041 60.44C141.614 60.0133 141.401 59.4107 141.401 58.632V50.744H142.537V58.568C142.537 59.0587 142.66 59.4373 142.905 59.704C143.161 59.9707 143.524 60.104 143.993 60.104C144.494 60.104 144.91 59.96 145.241 59.672L145.641 60.488C145.417 60.6907 145.145 60.84 144.825 60.936C144.516 61.032 144.196 61.08 143.865 61.08ZM139.897 53.544V52.6H145.097V53.544H139.897ZM151.997 52.52C152.68 52.52 153.277 52.6533 153.789 52.92C154.312 53.176 154.717 53.5707 155.005 54.104C155.304 54.6373 155.453 55.3093 155.453 56.12V61H154.317V56.232C154.317 55.3467 154.093 54.68 153.645 54.232C153.208 53.7733 152.589 53.544 151.789 53.544C151.192 53.544 150.669 53.6667 150.221 53.912C149.784 54.1467 149.442 54.4933 149.197 54.952C148.962 55.4 148.845 55.944 148.845 56.584V61H147.709V49.128H148.845V54.904L148.621 54.472C148.888 53.864 149.314 53.3893 149.901 53.048C150.488 52.696 151.186 52.52 151.997 52.52ZM161.866 61.08C161.066 61.08 160.346 60.8987 159.706 60.536C159.076 60.1733 158.58 59.672 158.218 59.032C157.855 58.3813 157.674 57.6347 157.674 56.792C157.674 55.9387 157.855 55.192 158.218 54.552C158.58 53.912 159.076 53.416 159.706 53.064C160.346 52.7013 161.066 52.52 161.866 52.52C162.602 52.52 163.258 52.6853 163.834 53.016C164.42 53.3467 164.884 53.832 165.226 54.472C165.578 55.1013 165.753 55.8747 165.753 56.792C165.753 57.6987 165.583 58.472 165.242 59.112C164.9 59.752 164.436 60.2427 163.85 60.584C163.274 60.9147 162.612 61.08 161.866 61.08ZM161.946 60.072C162.543 60.072 163.076 59.9387 163.546 59.672C164.026 59.3947 164.399 59.0107 164.666 58.52C164.943 58.0187 165.082 57.4427 165.082 56.792C165.082 56.1307 164.943 55.5547 164.666 55.064C164.399 54.5733 164.026 54.1947 163.546 53.928C163.076 53.6507 162.543 53.512 161.946 53.512C161.359 53.512 160.831 53.6507 160.362 53.928C159.892 54.1947 159.519 54.5733 159.242 55.064C158.964 55.5547 158.826 56.1307 158.826 56.792C158.826 57.4427 158.964 58.0187 159.242 58.52C159.519 59.0107 159.892 59.3947 160.362 59.672C160.831 59.9387 161.359 60.072 161.946 60.072ZM165.114 61V58.472L165.226 56.776L165.066 55.08V49.128H166.202V61H165.114ZM174.629 61V59.144L174.581 58.84V55.736C174.581 55.0213 174.379 54.472 173.973 54.088C173.579 53.704 172.987 53.512 172.197 53.512C171.653 53.512 171.136 53.6027 170.645 53.784C170.155 53.9653 169.739 54.2053 169.397 54.504L168.885 53.656C169.312 53.2933 169.824 53.016 170.421 52.824C171.019 52.6213 171.648 52.52 172.309 52.52C173.397 52.52 174.235 52.792 174.821 53.336C175.419 53.8693 175.717 54.6853 175.717 55.784V61H174.629ZM171.733 61.08C171.104 61.08 170.555 60.9787 170.085 60.776C169.627 60.5627 169.275 60.2747 169.029 59.912C168.784 59.5387 168.661 59.112 168.661 58.632C168.661 58.1947 168.763 57.8 168.965 57.448C169.179 57.0853 169.52 56.7973 169.989 56.584C170.469 56.36 171.109 56.248 171.909 56.248H174.805V57.096H171.941C171.131 57.096 170.565 57.24 170.245 57.528C169.936 57.816 169.781 58.1733 169.781 58.6C169.781 59.08 169.968 59.464 170.341 59.752C170.715 60.04 171.237 60.184 171.909 60.184C172.549 60.184 173.099 60.04 173.557 59.752C174.027 59.4533 174.368 59.0267 174.581 58.472L174.837 59.256C174.624 59.8107 174.251 60.2533 173.717 60.584C173.195 60.9147 172.533 61.08 171.733 61.08ZM178.711 64.184C178.316 64.184 177.937 64.12 177.575 63.992C177.223 63.864 176.918 63.672 176.662 63.416L177.191 62.568C177.404 62.7707 177.633 62.9253 177.879 63.032C178.135 63.1493 178.417 63.208 178.727 63.208C179.1 63.208 179.42 63.1013 179.687 62.888C179.964 62.6853 180.225 62.3227 180.471 61.8L181.015 60.568L181.143 60.392L184.599 52.6H185.719L181.511 62.008C181.276 62.552 181.015 62.984 180.727 63.304C180.449 63.624 180.145 63.848 179.815 63.976C179.484 64.1147 179.116 64.184 178.711 64.184ZM180.951 61.24L177.079 52.6H178.263L181.687 60.312L180.951 61.24ZM186.084 63.336L186.788 60.376L186.916 61.064C186.67 61.064 186.462 60.984 186.292 60.824C186.132 60.664 186.052 60.456 186.052 60.2C186.052 59.944 186.132 59.736 186.292 59.576C186.462 59.416 186.665 59.336 186.9 59.336C187.145 59.336 187.342 59.4213 187.492 59.592C187.652 59.7627 187.732 59.9653 187.732 60.2C187.732 60.2853 187.726 60.3707 187.716 60.456C187.705 60.5413 187.684 60.6373 187.652 60.744C187.62 60.8507 187.577 60.9787 187.524 61.128L186.852 63.336H186.084ZM197.934 64.184C197.166 64.184 196.43 64.072 195.726 63.848C195.022 63.624 194.451 63.304 194.014 62.888L194.59 62.024C194.984 62.376 195.47 62.6533 196.046 62.856C196.632 63.0693 197.251 63.176 197.902 63.176C198.968 63.176 199.752 62.9253 200.254 62.424C200.755 61.9333 201.006 61.1653 201.006 60.12V58.024L201.166 56.584L201.054 55.144V52.6H202.142V59.976C202.142 61.4267 201.784 62.488 201.07 63.16C200.366 63.8427 199.32 64.184 197.934 64.184ZM197.726 60.68C196.926 60.68 196.206 60.5093 195.566 60.168C194.926 59.816 194.419 59.3307 194.046 58.712C193.683 58.0933 193.502 57.384 193.502 56.584C193.502 55.784 193.683 55.08 194.046 54.472C194.419 53.8533 194.926 53.3733 195.566 53.032C196.206 52.6907 196.926 52.52 197.726 52.52C198.472 52.52 199.144 52.6747 199.742 52.984C200.339 53.2933 200.814 53.752 201.166 54.36C201.518 54.968 201.694 55.7093 201.694 56.584C201.694 57.4587 201.518 58.2 201.166 58.808C200.814 59.416 200.339 59.88 199.742 60.2C199.144 60.52 198.472 60.68 197.726 60.68ZM197.838 59.672C198.456 59.672 199.006 59.544 199.486 59.288C199.966 59.0213 200.344 58.6587 200.622 58.2C200.899 57.7307 201.038 57.192 201.038 56.584C201.038 55.976 200.899 55.4427 200.622 54.984C200.344 54.5253 199.966 54.168 199.486 53.912C199.006 53.6453 198.456 53.512 197.838 53.512C197.23 53.512 196.68 53.6453 196.19 53.912C195.71 54.168 195.331 54.5253 195.054 54.984C194.787 55.4427 194.654 55.976 194.654 56.584C194.654 57.192 194.787 57.7307 195.054 58.2C195.331 58.6587 195.71 59.0213 196.19 59.288C196.68 59.544 197.23 59.672 197.838 59.672ZM208.871 61.08C207.996 61.08 207.228 60.8987 206.567 60.536C205.905 60.1627 205.388 59.656 205.015 59.016C204.641 58.3653 204.455 57.624 204.455 56.792C204.455 55.96 204.631 55.224 204.983 54.584C205.345 53.944 205.836 53.4427 206.455 53.08C207.084 52.7067 207.788 52.52 208.567 52.52C209.356 52.52 210.055 52.7013 210.663 53.064C211.281 53.416 211.767 53.9173 212.119 54.568C212.471 55.208 212.647 55.9493 212.647 56.792C212.647 56.8453 212.641 56.904 212.631 56.968C212.631 57.0213 212.631 57.08 212.631 57.144H205.319V56.296H212.023L211.575 56.632C211.575 56.024 211.441 55.4853 211.175 55.016C210.919 54.536 210.567 54.1627 210.119 53.896C209.671 53.6293 209.153 53.496 208.567 53.496C207.991 53.496 207.473 53.6293 207.015 53.896C206.556 54.1627 206.199 54.536 205.943 55.016C205.687 55.496 205.559 56.0453 205.559 56.664V56.84C205.559 57.48 205.697 58.0453 205.975 58.536C206.263 59.016 206.657 59.3947 207.159 59.672C207.671 59.9387 208.252 60.072 208.903 60.072C209.415 60.072 209.889 59.9813 210.327 59.8C210.775 59.6187 211.159 59.3413 211.479 58.968L212.119 59.704C211.745 60.152 211.276 60.4933 210.711 60.728C210.156 60.9627 209.543 61.08 208.871 61.08ZM219.247 52.52C219.93 52.52 220.527 52.6533 221.039 52.92C221.562 53.176 221.967 53.5707 222.255 54.104C222.554 54.6373 222.703 55.3093 222.703 56.12V61H221.567V56.232C221.567 55.3467 221.343 54.68 220.895 54.232C220.458 53.7733 219.839 53.544 219.039 53.544C218.442 53.544 217.919 53.6667 217.471 53.912C217.034 54.1467 216.692 54.4933 216.447 54.952C216.212 55.4 216.095 55.944 216.095 56.584V61H214.959V52.6H216.047V54.904L215.871 54.472C216.138 53.864 216.564 53.3893 217.151 53.048C217.738 52.696 218.436 52.52 219.247 52.52ZM229.116 61.08C228.316 61.08 227.596 60.8987 226.956 60.536C226.326 60.1733 225.83 59.672 225.468 59.032C225.105 58.3813 224.924 57.6347 224.924 56.792C224.924 55.9387 225.105 55.192 225.468 54.552C225.83 53.912 226.326 53.416 226.956 53.064C227.596 52.7013 228.316 52.52 229.116 52.52C229.852 52.52 230.508 52.6853 231.084 53.016C231.67 53.3467 232.134 53.832 232.476 54.472C232.828 55.1013 233.003 55.8747 233.003 56.792C233.003 57.6987 232.833 58.472 232.492 59.112C232.15 59.752 231.686 60.2427 231.1 60.584C230.524 60.9147 229.862 61.08 229.116 61.08ZM229.196 60.072C229.793 60.072 230.326 59.9387 230.796 59.672C231.276 59.3947 231.649 59.0107 231.916 58.52C232.193 58.0187 232.332 57.4427 232.332 56.792C232.332 56.1307 232.193 55.5547 231.916 55.064C231.649 54.5733 231.276 54.1947 230.796 53.928C230.326 53.6507 229.793 53.512 229.196 53.512C228.609 53.512 228.081 53.6507 227.612 53.928C227.142 54.1947 226.769 54.5733 226.492 55.064C226.214 55.5547 226.076 56.1307 226.076 56.792C226.076 57.4427 226.214 58.0187 226.492 58.52C226.769 59.0107 227.142 59.3947 227.612 59.672C228.081 59.9387 228.609 60.072 229.196 60.072ZM232.364 61V58.472L232.476 56.776L232.316 55.08V49.128H233.452V61H232.364ZM240.183 61.08C239.309 61.08 238.541 60.8987 237.879 60.536C237.218 60.1627 236.701 59.656 236.327 59.016C235.954 58.3653 235.767 57.624 235.767 56.792C235.767 55.96 235.943 55.224 236.295 54.584C236.658 53.944 237.149 53.4427 237.767 53.08C238.397 52.7067 239.101 52.52 239.879 52.52C240.669 52.52 241.367 52.7013 241.975 53.064C242.594 53.416 243.079 53.9173 243.431 54.568C243.783 55.208 243.959 55.9493 243.959 56.792C243.959 56.8453 243.954 56.904 243.943 56.968C243.943 57.0213 243.943 57.08 243.943 57.144H236.631V56.296H243.335L242.887 56.632C242.887 56.024 242.754 55.4853 242.487 55.016C242.231 54.536 241.879 54.1627 241.431 53.896C240.983 53.6293 240.466 53.496 239.879 53.496C239.303 53.496 238.786 53.6293 238.327 53.896C237.869 54.1627 237.511 54.536 237.255 55.016C236.999 55.496 236.871 56.0453 236.871 56.664V56.84C236.871 57.48 237.01 58.0453 237.287 58.536C237.575 59.016 237.97 59.3947 238.471 59.672C238.983 59.9387 239.565 60.072 240.215 60.072C240.727 60.072 241.202 59.9813 241.639 59.8C242.087 59.6187 242.471 59.3413 242.791 58.968L243.431 59.704C243.058 60.152 242.589 60.4933 242.023 60.728C241.469 60.9627 240.855 61.08 240.183 61.08ZM246.272 61V52.6H247.36V54.888L247.248 54.488C247.482 53.848 247.877 53.3627 248.432 53.032C248.986 52.6907 249.674 52.52 250.496 52.52V53.624C250.453 53.624 250.41 53.624 250.368 53.624C250.325 53.6133 250.282 53.608 250.24 53.608C249.354 53.608 248.661 53.88 248.16 54.424C247.658 54.9573 247.408 55.72 247.408 56.712V61H246.272Z" fill="black" fill-opacity="0.7"/>
<rect x="10" y="85" width="316" height="65" rx="10" fill="#B3B3B3" fill-opacity="0.3"/>
<rect x="10" y="160" width="316" height="65" rx="10" fill="#B3B3B3" fill-opacity="0.3"/>
<path d="M36.336 111.096C34.9067 111.096 33.7813 110.685 32.96 109.864C32.1387 109.043 31.728 107.827 31.728 106.216V99.8H32.912V106.168C32.912 107.491 33.2107 108.467 33.808 109.096C34.4053 109.725 35.248 110.04 36.336 110.04C37.4347 110.04 38.2827 109.725 38.88 109.096C39.4773 108.467 39.776 107.491 39.776 106.168V99.8H40.928V106.216C40.928 107.827 40.5173 109.043 39.696 109.864C38.8853 110.685 37.7653 111.096 36.336 111.096ZM48.5919 111.08C47.8665 111.08 47.2105 110.915 46.6239 110.584C46.0372 110.243 45.5679 109.757 45.2159 109.128C44.8745 108.488 44.7039 107.709 44.7039 106.792C44.7039 105.875 44.8745 105.101 45.2159 104.472C45.5572 103.832 46.0212 103.347 46.6079 103.016C47.1945 102.685 47.8559 102.52 48.5919 102.52C49.3919 102.52 50.1065 102.701 50.7359 103.064C51.3759 103.416 51.8772 103.917 52.2399 104.568C52.6025 105.208 52.7839 105.949 52.7839 106.792C52.7839 107.645 52.6025 108.392 52.2399 109.032C51.8772 109.672 51.3759 110.173 50.7359 110.536C50.1065 110.899 49.3919 111.08 48.5919 111.08ZM44.2559 114.104V102.6H45.3439V105.128L45.2319 106.808L45.3919 108.504V114.104H44.2559ZM48.5119 110.072C49.1092 110.072 49.6425 109.939 50.1119 109.672C50.5812 109.395 50.9545 109.011 51.2319 108.52C51.5092 108.019 51.6479 107.443 51.6479 106.792C51.6479 106.141 51.5092 105.571 51.2319 105.08C50.9545 104.589 50.5812 104.205 50.1119 103.928C49.6425 103.651 49.1092 103.512 48.5119 103.512C47.9145 103.512 47.3759 103.651 46.8959 103.928C46.4265 104.205 46.0532 104.589 45.7759 105.08C45.5092 105.571 45.3759 106.141 45.3759 106.792C45.3759 107.443 45.5092 108.019 45.7759 108.52C46.0532 109.011 46.4265 109.395 46.8959 109.672C47.3759 109.939 47.9145 110.072 48.5119 110.072ZM58.4436 111.08C57.6436 111.08 56.9236 110.899 56.2836 110.536C55.6543 110.173 55.1583 109.672 54.7956 109.032C54.433 108.381 54.2516 107.635 54.2516 106.792C54.2516 105.939 54.433 105.192 54.7956 104.552C55.1583 103.912 55.6543 103.416 56.2836 103.064C56.9236 102.701 57.6436 102.52 58.4436 102.52C59.1796 102.52 59.8356 102.685 60.4116 103.016C60.9983 103.347 61.4623 103.832 61.8036 104.472C62.1556 105.101 62.3316 105.875 62.3316 106.792C62.3316 107.699 62.161 108.472 61.8196 109.112C61.4783 109.752 61.0143 110.243 60.4276 110.584C59.8516 110.915 59.1903 111.08 58.4436 111.08ZM58.5236 110.072C59.121 110.072 59.6543 109.939 60.1236 109.672C60.6036 109.395 60.977 109.011 61.2436 108.52C61.521 108.019 61.6596 107.443 61.6596 106.792C61.6596 106.131 61.521 105.555 61.2436 105.064C60.977 104.573 60.6036 104.195 60.1236 103.928C59.6543 103.651 59.121 103.512 58.5236 103.512C57.937 103.512 57.409 103.651 56.9396 103.928C56.4703 104.195 56.097 104.573 55.8196 105.064C55.5423 105.555 55.4036 106.131 55.4036 106.792C55.4036 107.443 55.5423 108.019 55.8196 108.52C56.097 109.011 56.4703 109.395 56.9396 109.672C57.409 109.939 57.937 110.072 58.5236 110.072ZM61.6916 111V108.472L61.8036 106.776L61.6436 105.08V99.128H62.7796V111H61.6916ZM71.2074 111V109.144L71.1594 108.84V105.736C71.1594 105.021 70.9567 104.472 70.5514 104.088C70.1567 103.704 69.5647 103.512 68.7754 103.512C68.2314 103.512 67.714 103.603 67.2234 103.784C66.7327 103.965 66.3167 104.205 65.9754 104.504L65.4634 103.656C65.89 103.293 66.402 103.016 66.9994 102.824C67.5967 102.621 68.226 102.52 68.8874 102.52C69.9754 102.52 70.8127 102.792 71.3994 103.336C71.9967 103.869 72.2954 104.685 72.2954 105.784V111H71.2074ZM68.3114 111.08C67.682 111.08 67.1327 110.979 66.6634 110.776C66.2047 110.563 65.8527 110.275 65.6074 109.912C65.362 109.539 65.2394 109.112 65.2394 108.632C65.2394 108.195 65.3407 107.8 65.5434 107.448C65.7567 107.085 66.098 106.797 66.5674 106.584C67.0474 106.36 67.6874 106.248 68.4874 106.248H71.3834V107.096H68.5194C67.7087 107.096 67.1434 107.24 66.8234 107.528C66.514 107.816 66.3594 108.173 66.3594 108.6C66.3594 109.08 66.546 109.464 66.9194 109.752C67.2927 110.04 67.8154 110.184 68.4874 110.184C69.1274 110.184 69.6767 110.04 70.1354 109.752C70.6047 109.453 70.946 109.027 71.1594 108.472L71.4154 109.256C71.202 109.811 70.8287 110.253 70.2954 110.584C69.7727 110.915 69.1114 111.08 68.3114 111.08ZM78.0369 111.08C77.2475 111.08 76.6395 110.867 76.2129 110.44C75.7862 110.013 75.5729 109.411 75.5729 108.632V100.744H76.7089V108.568C76.7089 109.059 76.8315 109.437 77.0769 109.704C77.3329 109.971 77.6955 110.104 78.1649 110.104C78.6662 110.104 79.0822 109.96 79.4129 109.672L79.8129 110.488C79.5889 110.691 79.3169 110.84 78.9969 110.936C78.6875 111.032 78.3675 111.08 78.0369 111.08ZM74.0689 103.544V102.6H79.2689V103.544H74.0689ZM85.152 111.08C84.2773 111.08 83.5093 110.899 82.848 110.536C82.1867 110.163 81.6693 109.656 81.296 109.016C80.9227 108.365 80.736 107.624 80.736 106.792C80.736 105.96 80.912 105.224 81.264 104.584C81.6267 103.944 82.1173 103.443 82.736 103.08C83.3653 102.707 84.0693 102.52 84.848 102.52C85.6373 102.52 86.336 102.701 86.944 103.064C87.5627 103.416 88.048 103.917 88.4 104.568C88.752 105.208 88.928 105.949 88.928 106.792C88.928 106.845 88.9227 106.904 88.912 106.968C88.912 107.021 88.912 107.08 88.912 107.144H81.6V106.296H88.304L87.856 106.632C87.856 106.024 87.7227 105.485 87.456 105.016C87.2 104.536 86.848 104.163 86.4 103.896C85.952 103.629 85.4347 103.496 84.848 103.496C84.272 103.496 83.7547 103.629 83.296 103.896C82.8373 104.163 82.48 104.536 82.224 105.016C81.968 105.496 81.84 106.045 81.84 106.664V106.84C81.84 107.48 81.9787 108.045 82.256 108.536C82.544 109.016 82.9387 109.395 83.44 109.672C83.952 109.939 84.5333 110.072 85.184 110.072C85.696 110.072 86.1707 109.981 86.608 109.8C87.056 109.619 87.44 109.341 87.76 108.968L88.4 109.704C88.0267 110.152 87.5573 110.493 86.992 110.728C86.4373 110.963 85.824 111.08 85.152 111.08ZM95.4918 114.184C95.0971 114.184 94.7184 114.12 94.3558 113.992C94.0038 113.864 93.6997 113.672 93.4437 113.416L93.9718 112.568C94.1851 112.771 94.4144 112.925 94.6598 113.032C94.9158 113.149 95.1984 113.208 95.5078 113.208C95.8811 113.208 96.2011 113.101 96.4678 112.888C96.7451 112.685 97.0064 112.323 97.2518 111.8L97.7958 110.568L97.9238 110.392L101.38 102.6H102.5L98.2918 112.008C98.0571 112.552 97.7958 112.984 97.5078 113.304C97.2304 113.624 96.9264 113.848 96.5958 113.976C96.2651 114.115 95.8971 114.184 95.4918 114.184ZM97.7318 111.24L93.8598 102.6H95.0438L98.4678 110.312L97.7318 111.24ZM107.289 111.08C106.479 111.08 105.748 110.899 105.097 110.536C104.457 110.163 103.951 109.656 103.577 109.016C103.204 108.365 103.017 107.624 103.017 106.792C103.017 105.949 103.204 105.208 103.577 104.568C103.951 103.928 104.457 103.427 105.097 103.064C105.737 102.701 106.468 102.52 107.289 102.52C108.121 102.52 108.857 102.701 109.497 103.064C110.148 103.427 110.655 103.928 111.017 104.568C111.391 105.208 111.577 105.949 111.577 106.792C111.577 107.624 111.391 108.365 111.017 109.016C110.655 109.656 110.148 110.163 109.497 110.536C108.847 110.899 108.111 111.08 107.289 111.08ZM107.289 110.072C107.897 110.072 108.436 109.939 108.905 109.672C109.375 109.395 109.743 109.011 110.009 108.52C110.287 108.019 110.425 107.443 110.425 106.792C110.425 106.131 110.287 105.555 110.009 105.064C109.743 104.573 109.375 104.195 108.905 103.928C108.436 103.651 107.903 103.512 107.305 103.512C106.708 103.512 106.175 103.651 105.705 103.928C105.236 104.195 104.863 104.573 104.585 105.064C104.308 105.555 104.169 106.131 104.169 106.792C104.169 107.443 104.308 108.019 104.585 108.52C104.863 109.011 105.236 109.395 105.705 109.672C106.175 109.939 106.703 110.072 107.289 110.072ZM117.369 111.08C116.654 111.08 116.03 110.947 115.497 110.68C114.963 110.413 114.547 110.013 114.249 109.48C113.961 108.947 113.817 108.28 113.817 107.48V102.6H114.953V107.352C114.953 108.248 115.171 108.925 115.609 109.384C116.057 109.832 116.681 110.056 117.481 110.056C118.067 110.056 118.574 109.939 119.001 109.704C119.438 109.459 119.769 109.107 119.993 108.648C120.227 108.189 120.345 107.64 120.345 107V102.6H121.481V111H120.392V108.696L120.569 109.112C120.302 109.731 119.886 110.216 119.321 110.568C118.766 110.909 118.115 111.08 117.369 111.08ZM124.647 111V102.6H125.735V104.888L125.623 104.488C125.857 103.848 126.252 103.363 126.807 103.032C127.361 102.691 128.049 102.52 128.871 102.52V103.624C128.828 103.624 128.785 103.624 128.743 103.624C128.7 103.613 128.657 103.608 128.615 103.608C127.729 103.608 127.036 103.88 126.535 104.424C126.033 104.957 125.783 105.72 125.783 106.712V111H124.647ZM140.52 111V109.144L140.472 108.84V105.736C140.472 105.021 140.269 104.472 139.864 104.088C139.469 103.704 138.877 103.512 138.088 103.512C137.544 103.512 137.027 103.603 136.536 103.784C136.045 103.965 135.629 104.205 135.288 104.504L134.776 103.656C135.203 103.293 135.715 103.016 136.312 102.824C136.909 102.621 137.539 102.52 138.2 102.52C139.288 102.52 140.125 102.792 140.712 103.336C141.309 103.869 141.608 104.685 141.608 105.784V111H140.52ZM137.624 111.08C136.995 111.08 136.445 110.979 135.976 110.776C135.517 110.563 135.165 110.275 134.92 109.912C134.675 109.539 134.552 109.112 134.552 108.632C134.552 108.195 134.653 107.8 134.856 107.448C135.069 107.085 135.411 106.797 135.88 106.584C136.36 106.36 137 106.248 137.8 106.248H140.696V107.096H137.832C137.021 107.096 136.456 107.24 136.136 107.528C135.827 107.816 135.672 108.173 135.672 108.6C135.672 109.08 135.859 109.464 136.232 109.752C136.605 110.04 137.128 110.184 137.8 110.184C138.44 110.184 138.989 110.04 139.448 109.752C139.917 109.453 140.259 109.027 140.472 108.472L140.728 109.256C140.515 109.811 140.141 110.253 139.608 110.584C139.085 110.915 138.424 111.08 137.624 111.08ZM146.697 111L142.969 102.6H144.153L147.577 110.392H147.017L150.489 102.6H151.609L147.865 111H146.697ZM158.223 111V109.144L158.175 108.84V105.736C158.175 105.021 157.972 104.472 157.567 104.088C157.172 103.704 156.58 103.512 155.791 103.512C155.247 103.512 154.73 103.603 154.239 103.784C153.748 103.965 153.332 104.205 152.991 104.504L152.479 103.656C152.906 103.293 153.418 103.016 154.015 102.824C154.612 102.621 155.242 102.52 155.903 102.52C156.991 102.52 157.828 102.792 158.415 103.336C159.012 103.869 159.311 104.685 159.311 105.784V111H158.223ZM155.327 111.08C154.698 111.08 154.148 110.979 153.679 110.776C153.22 110.563 152.868 110.275 152.623 109.912C152.378 109.539 152.255 109.112 152.255 108.632C152.255 108.195 152.356 107.8 152.559 107.448C152.772 107.085 153.114 106.797 153.583 106.584C154.063 106.36 154.703 106.248 155.503 106.248H158.399V107.096H155.535C154.724 107.096 154.159 107.24 153.839 107.528C153.53 107.816 153.375 108.173 153.375 108.6C153.375 109.08 153.562 109.464 153.935 109.752C154.308 110.04 154.831 110.184 155.503 110.184C156.143 110.184 156.692 110.04 157.151 109.752C157.62 109.453 157.962 109.027 158.175 108.472L158.431 109.256C158.218 109.811 157.844 110.253 157.311 110.584C156.788 110.915 156.127 111.08 155.327 111.08ZM165.053 111.08C164.263 111.08 163.655 110.867 163.229 110.44C162.802 110.013 162.589 109.411 162.589 108.632V100.744H163.725V108.568C163.725 109.059 163.847 109.437 164.093 109.704C164.349 109.971 164.711 110.104 165.181 110.104C165.682 110.104 166.098 109.96 166.429 109.672L166.829 110.488C166.605 110.691 166.333 110.84 166.013 110.936C165.703 111.032 165.383 111.08 165.053 111.08ZM161.085 103.544V102.6H166.285V103.544H161.085ZM174.161 111V109.144L174.113 108.84V105.736C174.113 105.021 173.91 104.472 173.505 104.088C173.11 103.704 172.518 103.512 171.729 103.512C171.185 103.512 170.667 103.603 170.177 103.784C169.686 103.965 169.27 104.205 168.929 104.504L168.417 103.656C168.843 103.293 169.355 103.016 169.953 102.824C170.55 102.621 171.179 102.52 171.841 102.52C172.929 102.52 173.766 102.792 174.353 103.336C174.95 103.869 175.249 104.685 175.249 105.784V111H174.161ZM171.265 111.08C170.635 111.08 170.086 110.979 169.617 110.776C169.158 110.563 168.806 110.275 168.561 109.912C168.315 109.539 168.193 109.112 168.193 108.632C168.193 108.195 168.294 107.8 168.497 107.448C168.71 107.085 169.051 106.797 169.521 106.584C170.001 106.36 170.641 106.248 171.441 106.248H174.337V107.096H171.473C170.662 107.096 170.097 107.24 169.777 107.528C169.467 107.816 169.312 108.173 169.312 108.6C169.312 109.08 169.499 109.464 169.873 109.752C170.246 110.04 170.769 110.184 171.441 110.184C172.081 110.184 172.63 110.04 173.089 109.752C173.558 109.453 173.899 109.027 174.113 108.472L174.369 109.256C174.155 109.811 173.782 110.253 173.249 110.584C172.726 110.915 172.065 111.08 171.265 111.08ZM178.334 111V102.6H179.422V104.888L179.31 104.488C179.545 103.848 179.939 103.363 180.494 103.032C181.049 102.691 181.737 102.52 182.558 102.52V103.624C182.515 103.624 182.473 103.624 182.43 103.624C182.387 103.613 182.345 103.608 182.302 103.608C181.417 103.608 180.723 103.88 180.222 104.424C179.721 104.957 179.47 105.72 179.47 106.712V111H178.334Z" fill="black"/>
<path d="M32.88 179.808H38.8V180.816H32.88V179.808ZM33.008 184.976H39.744V186H31.824V174.8H39.504V175.824H33.008V184.976ZM52.7831 177.52C53.4658 177.52 54.0578 177.653 54.5591 177.92C55.0711 178.176 55.4658 178.571 55.7431 179.104C56.0311 179.637 56.1751 180.309 56.1751 181.12V186H55.0391V181.232C55.0391 180.347 54.8258 179.68 54.3991 179.232C53.9831 178.773 53.3911 178.544 52.6231 178.544C52.0471 178.544 51.5458 178.667 51.1191 178.912C50.7031 179.147 50.3778 179.493 50.1431 179.952C49.9191 180.4 49.8071 180.944 49.8071 181.584V186H48.6711V181.232C48.6711 180.347 48.4578 179.68 48.0311 179.232C47.6045 178.773 47.0071 178.544 46.2391 178.544C45.6738 178.544 45.1778 178.667 44.7511 178.912C44.3245 179.147 43.9938 179.493 43.7591 179.952C43.5351 180.4 43.4231 180.944 43.4231 181.584V186H42.2871V177.6H43.3751V179.872L43.1991 179.472C43.4551 178.864 43.8658 178.389 44.4311 178.048C45.0071 177.696 45.6845 177.52 46.4631 177.52C47.2845 177.52 47.9831 177.728 48.5591 178.144C49.1351 178.549 49.5085 179.163 49.6791 179.984L49.2311 179.808C49.4765 179.125 49.9085 178.576 50.5271 178.16C51.1565 177.733 51.9085 177.52 52.7831 177.52ZM64.5199 186V184.144L64.4719 183.84V180.736C64.4719 180.021 64.2692 179.472 63.8639 179.088C63.4692 178.704 62.8772 178.512 62.0879 178.512C61.5439 178.512 61.0265 178.603 60.5359 178.784C60.0452 178.965 59.6292 179.205 59.2879 179.504L58.7759 178.656C59.2025 178.293 59.7145 178.016 60.3119 177.824C60.9092 177.621 61.5385 177.52 62.1999 177.52C63.2879 177.52 64.1252 177.792 64.7119 178.336C65.3092 178.869 65.6079 179.685 65.6079 180.784V186H64.5199ZM61.6239 186.08C60.9945 186.08 60.4452 185.979 59.9759 185.776C59.5172 185.563 59.1652 185.275 58.9199 184.912C58.6745 184.539 58.5519 184.112 58.5519 183.632C58.5519 183.195 58.6532 182.8 58.8559 182.448C59.0692 182.085 59.4105 181.797 59.8799 181.584C60.3599 181.36 60.9999 181.248 61.7999 181.248H64.6959V182.096H61.8319C61.0212 182.096 60.4559 182.24 60.1359 182.528C59.8265 182.816 59.6719 183.173 59.6719 183.6C59.6719 184.08 59.8585 184.464 60.2319 184.752C60.6052 185.04 61.1279 185.184 61.7999 185.184C62.4399 185.184 62.9892 185.04 63.4479 184.752C63.9172 184.453 64.2585 184.027 64.4719 183.472L64.7279 184.256C64.5145 184.811 64.1412 185.253 63.6079 185.584C63.0852 185.915 62.4239 186.08 61.6239 186.08ZM68.6934 186V177.6H69.8294V186H68.6934ZM69.2694 175.744C69.0347 175.744 68.8374 175.664 68.6774 175.504C68.5174 175.344 68.4374 175.152 68.4374 174.928C68.4374 174.704 68.5174 174.517 68.6774 174.368C68.8374 174.208 69.0347 174.128 69.2694 174.128C69.504 174.128 69.7014 174.203 69.8614 174.352C70.0214 174.501 70.1014 174.688 70.1014 174.912C70.1014 175.147 70.0214 175.344 69.8614 175.504C69.712 175.664 69.5147 175.744 69.2694 175.744ZM72.9903 186V174.128H74.1263V186H72.9903ZM86.7386 186V184.144L86.6906 183.84V180.736C86.6906 180.021 86.488 179.472 86.0826 179.088C85.688 178.704 85.096 178.512 84.3066 178.512C83.7626 178.512 83.2453 178.603 82.7546 178.784C82.264 178.965 81.848 179.205 81.5066 179.504L80.9946 178.656C81.4213 178.293 81.9333 178.016 82.5306 177.824C83.128 177.621 83.7573 177.52 84.4186 177.52C85.5066 177.52 86.344 177.792 86.9306 178.336C87.528 178.869 87.8266 179.685 87.8266 180.784V186H86.7386ZM83.8426 186.08C83.2133 186.08 82.664 185.979 82.1946 185.776C81.736 185.563 81.384 185.275 81.1386 184.912C80.8933 184.539 80.7706 184.112 80.7706 183.632C80.7706 183.195 80.872 182.8 81.0746 182.448C81.288 182.085 81.6293 181.797 82.0986 181.584C82.5786 181.36 83.2186 181.248 84.0186 181.248H86.9146V182.096H84.0506C83.24 182.096 82.6746 182.24 82.3546 182.528C82.0453 182.816 81.8906 183.173 81.8906 183.6C81.8906 184.08 82.0773 184.464 82.4506 184.752C82.824 185.04 83.3466 185.184 84.0186 185.184C84.6586 185.184 85.208 185.04 85.6666 184.752C86.136 184.453 86.4773 184.027 86.6906 183.472L86.9466 184.256C86.7333 184.811 86.36 185.253 85.8266 185.584C85.304 185.915 84.6426 186.08 83.8426 186.08ZM95.2001 177.52C95.8828 177.52 96.4801 177.653 96.9921 177.92C97.5148 178.176 97.9201 178.571 98.2081 179.104C98.5068 179.637 98.6561 180.309 98.6561 181.12V186H97.5201V181.232C97.5201 180.347 97.2961 179.68 96.8481 179.232C96.4108 178.773 95.7921 178.544 94.9921 178.544C94.3948 178.544 93.8721 178.667 93.4241 178.912C92.9868 179.147 92.6455 179.493 92.4001 179.952C92.1655 180.4 92.0481 180.944 92.0481 181.584V186H90.9121V177.6H92.0001V179.904L91.8241 179.472C92.0908 178.864 92.5175 178.389 93.1041 178.048C93.6908 177.696 94.3895 177.52 95.2001 177.52ZM105.069 186.08C104.269 186.08 103.549 185.899 102.909 185.536C102.279 185.173 101.783 184.672 101.421 184.032C101.058 183.381 100.877 182.635 100.877 181.792C100.877 180.939 101.058 180.192 101.421 179.552C101.783 178.912 102.279 178.416 102.909 178.064C103.549 177.701 104.269 177.52 105.069 177.52C105.805 177.52 106.461 177.685 107.037 178.016C107.623 178.347 108.087 178.832 108.429 179.472C108.781 180.101 108.957 180.875 108.957 181.792C108.957 182.699 108.786 183.472 108.445 184.112C108.103 184.752 107.639 185.243 107.053 185.584C106.477 185.915 105.815 186.08 105.069 186.08ZM105.149 185.072C105.746 185.072 106.279 184.939 106.749 184.672C107.229 184.395 107.602 184.011 107.869 183.52C108.146 183.019 108.285 182.443 108.285 181.792C108.285 181.131 108.146 180.555 107.869 180.064C107.602 179.573 107.229 179.195 106.749 178.928C106.279 178.651 105.746 178.512 105.149 178.512C104.562 178.512 104.034 178.651 103.565 178.928C103.095 179.195 102.722 179.573 102.445 180.064C102.167 180.555 102.029 181.131 102.029 181.792C102.029 182.443 102.167 183.019 102.445 183.52C102.722 184.011 103.095 184.395 103.565 184.672C104.034 184.939 104.562 185.072 105.149 185.072ZM108.317 186V183.472L108.429 181.776L108.269 180.08V174.128H109.405V186H108.317ZM121.092 186.08C120.367 186.08 119.711 185.915 119.124 185.584C118.537 185.243 118.068 184.757 117.716 184.128C117.375 183.488 117.204 182.709 117.204 181.792C117.204 180.875 117.375 180.101 117.716 179.472C118.057 178.832 118.521 178.347 119.108 178.016C119.695 177.685 120.356 177.52 121.092 177.52C121.892 177.52 122.607 177.701 123.236 178.064C123.876 178.416 124.377 178.917 124.74 179.568C125.103 180.208 125.284 180.949 125.284 181.792C125.284 182.645 125.103 183.392 124.74 184.032C124.377 184.672 123.876 185.173 123.236 185.536C122.607 185.899 121.892 186.08 121.092 186.08ZM116.756 189.104V177.6H117.844V180.128L117.732 181.808L117.892 183.504V189.104H116.756ZM121.012 185.072C121.609 185.072 122.143 184.939 122.612 184.672C123.081 184.395 123.455 184.011 123.732 183.52C124.009 183.019 124.148 182.443 124.148 181.792C124.148 181.141 124.009 180.571 123.732 180.08C123.455 179.589 123.081 179.205 122.612 178.928C122.143 178.651 121.609 178.512 121.012 178.512C120.415 178.512 119.876 178.651 119.396 178.928C118.927 179.205 118.553 179.589 118.276 180.08C118.009 180.571 117.876 181.141 117.876 181.792C117.876 182.443 118.009 183.019 118.276 183.52C118.553 184.011 118.927 184.395 119.396 184.672C119.876 184.939 120.415 185.072 121.012 185.072ZM132.817 186V184.144L132.769 183.84V180.736C132.769 180.021 132.566 179.472 132.161 179.088C131.766 178.704 131.174 178.512 130.385 178.512C129.841 178.512 129.323 178.603 128.833 178.784C128.342 178.965 127.926 179.205 127.585 179.504L127.073 178.656C127.499 178.293 128.011 178.016 128.609 177.824C129.206 177.621 129.835 177.52 130.497 177.52C131.585 177.52 132.422 177.792 133.009 178.336C133.606 178.869 133.905 179.685 133.905 180.784V186H132.817ZM129.921 186.08C129.291 186.08 128.742 185.979 128.273 185.776C127.814 185.563 127.462 185.275 127.217 184.912C126.971 184.539 126.849 184.112 126.849 183.632C126.849 183.195 126.95 182.8 127.153 182.448C127.366 182.085 127.707 181.797 128.177 181.584C128.657 181.36 129.297 181.248 130.097 181.248H132.993V182.096H130.129C129.318 182.096 128.753 182.24 128.433 182.528C128.123 182.816 127.969 183.173 127.969 183.6C127.969 184.08 128.155 184.464 128.529 184.752C128.902 185.04 129.425 185.184 130.097 185.184C130.737 185.184 131.286 185.04 131.745 184.752C132.214 184.453 132.555 184.027 132.769 183.472L133.025 184.256C132.811 184.811 132.438 185.253 131.905 185.584C131.382 185.915 130.721 186.08 129.921 186.08ZM139.246 186.08C138.553 186.08 137.897 185.984 137.278 185.792C136.66 185.589 136.174 185.339 135.822 185.04L136.334 184.144C136.676 184.4 137.113 184.624 137.646 184.816C138.18 184.997 138.74 185.088 139.326 185.088C140.126 185.088 140.702 184.965 141.054 184.72C141.406 184.464 141.582 184.128 141.582 183.712C141.582 183.403 141.481 183.163 141.278 182.992C141.086 182.811 140.83 182.677 140.51 182.592C140.19 182.496 139.833 182.416 139.438 182.352C139.044 182.288 138.649 182.213 138.254 182.128C137.87 182.043 137.518 181.92 137.198 181.76C136.878 181.589 136.617 181.36 136.414 181.072C136.222 180.784 136.126 180.4 136.126 179.92C136.126 179.461 136.254 179.051 136.51 178.688C136.766 178.325 137.14 178.043 137.63 177.84C138.132 177.627 138.74 177.52 139.454 177.52C139.998 177.52 140.542 177.595 141.086 177.744C141.63 177.883 142.078 178.069 142.43 178.304L141.934 179.216C141.561 178.96 141.161 178.779 140.734 178.672C140.308 178.555 139.881 178.496 139.454 178.496C138.697 178.496 138.137 178.629 137.774 178.896C137.422 179.152 137.246 179.483 137.246 179.888C137.246 180.208 137.342 180.459 137.534 180.64C137.737 180.821 137.998 180.965 138.318 181.072C138.649 181.168 139.006 181.248 139.39 181.312C139.785 181.376 140.174 181.456 140.558 181.552C140.953 181.637 141.31 181.76 141.63 181.92C141.961 182.069 142.222 182.288 142.414 182.576C142.617 182.853 142.718 183.221 142.718 183.68C142.718 184.171 142.58 184.597 142.302 184.96C142.036 185.312 141.641 185.589 141.118 185.792C140.606 185.984 139.982 186.08 139.246 186.08ZM147.059 186.08C146.365 186.08 145.709 185.984 145.091 185.792C144.472 185.589 143.987 185.339 143.635 185.04L144.147 184.144C144.488 184.4 144.925 184.624 145.459 184.816C145.992 184.997 146.552 185.088 147.139 185.088C147.939 185.088 148.515 184.965 148.867 184.72C149.219 184.464 149.395 184.128 149.395 183.712C149.395 183.403 149.293 183.163 149.091 182.992C148.899 182.811 148.643 182.677 148.323 182.592C148.003 182.496 147.645 182.416 147.251 182.352C146.856 182.288 146.461 182.213 146.067 182.128C145.683 182.043 145.331 181.92 145.011 181.76C144.691 181.589 144.429 181.36 144.227 181.072C144.035 180.784 143.939 180.4 143.939 179.92C143.939 179.461 144.067 179.051 144.323 178.688C144.579 178.325 144.952 178.043 145.443 177.84C145.944 177.627 146.552 177.52 147.267 177.52C147.811 177.52 148.355 177.595 148.899 177.744C149.443 177.883 149.891 178.069 150.243 178.304L149.747 179.216C149.373 178.96 148.973 178.779 148.547 178.672C148.12 178.555 147.693 178.496 147.267 178.496C146.509 178.496 145.949 178.629 145.587 178.896C145.235 179.152 145.059 179.483 145.059 179.888C145.059 180.208 145.155 180.459 145.347 180.64C145.549 180.821 145.811 180.965 146.131 181.072C146.461 181.168 146.819 181.248 147.203 181.312C147.597 181.376 147.987 181.456 148.371 181.552C148.765 181.637 149.123 181.76 149.443 181.92C149.773 182.069 150.035 182.288 150.227 182.576C150.429 182.853 150.531 183.221 150.531 183.68C150.531 184.171 150.392 184.597 150.115 184.96C149.848 185.312 149.453 185.589 148.931 185.792C148.419 185.984 147.795 186.08 147.059 186.08ZM154.171 186L151.003 177.6H152.091L154.971 185.392H154.475L157.435 177.6H158.411L161.339 185.392H160.843L163.771 177.6H164.811L161.627 186H160.555L157.739 178.672H158.075L155.243 186H154.171ZM169.711 186.08C168.9 186.08 168.17 185.899 167.519 185.536C166.879 185.163 166.372 184.656 165.999 184.016C165.626 183.365 165.439 182.624 165.439 181.792C165.439 180.949 165.626 180.208 165.999 179.568C166.372 178.928 166.879 178.427 167.519 178.064C168.159 177.701 168.89 177.52 169.711 177.52C170.543 177.52 171.279 177.701 171.919 178.064C172.57 178.427 173.076 178.928 173.439 179.568C173.812 180.208 173.999 180.949 173.999 181.792C173.999 182.624 173.812 183.365 173.439 184.016C173.076 184.656 172.57 185.163 171.919 185.536C171.268 185.899 170.532 186.08 169.711 186.08ZM169.711 185.072C170.319 185.072 170.858 184.939 171.327 184.672C171.796 184.395 172.164 184.011 172.431 183.52C172.708 183.019 172.847 182.443 172.847 181.792C172.847 181.131 172.708 180.555 172.431 180.064C172.164 179.573 171.796 179.195 171.327 178.928C170.858 178.651 170.324 178.512 169.727 178.512C169.13 178.512 168.596 178.651 168.127 178.928C167.658 179.195 167.284 179.573 167.007 180.064C166.73 180.555 166.591 181.131 166.591 181.792C166.591 182.443 166.73 183.019 167.007 183.52C167.284 184.011 167.658 184.395 168.127 184.672C168.596 184.939 169.124 185.072 169.711 185.072ZM176.318 186V177.6H177.406V179.888L177.294 179.488C177.529 178.848 177.924 178.363 178.478 178.032C179.033 177.691 179.721 177.52 180.542 177.52V178.624C180.5 178.624 180.457 178.624 180.414 178.624C180.372 178.613 180.329 178.608 180.286 178.608C179.401 178.608 178.708 178.88 178.206 179.424C177.705 179.957 177.454 180.72 177.454 181.712V186H176.318ZM185.881 186.08C185.081 186.08 184.361 185.899 183.721 185.536C183.092 185.173 182.596 184.672 182.233 184.032C181.87 183.381 181.689 182.635 181.689 181.792C181.689 180.939 181.87 180.192 182.233 179.552C182.596 178.912 183.092 178.416 183.721 178.064C184.361 177.701 185.081 177.52 185.881 177.52C186.617 177.52 187.273 177.685 187.849 178.016C188.436 178.347 188.9 178.832 189.241 179.472C189.593 180.101 189.769 180.875 189.769 181.792C189.769 182.699 189.598 183.472 189.257 184.112C188.916 184.752 188.452 185.243 187.865 185.584C187.289 185.915 186.628 186.08 185.881 186.08ZM185.961 185.072C186.558 185.072 187.092 184.939 187.561 184.672C188.041 184.395 188.414 184.011 188.681 183.52C188.958 183.019 189.097 182.443 189.097 181.792C189.097 181.131 188.958 180.555 188.681 180.064C188.414 179.573 188.041 179.195 187.561 178.928C187.092 178.651 186.558 178.512 185.961 178.512C185.374 178.512 184.846 178.651 184.377 178.928C183.908 179.195 183.534 179.573 183.257 180.064C182.98 180.555 182.841 181.131 182.841 181.792C182.841 182.443 182.98 183.019 183.257 183.52C183.534 184.011 183.908 184.395 184.377 184.672C184.846 184.939 185.374 185.072 185.961 185.072ZM189.129 186V183.472L189.241 181.776L189.081 180.08V174.128H190.217V186H189.129Z" fill="black"/>
<path d="M36.336 136.096C34.9067 136.096 33.7813 135.685 32.96 134.864C32.1387 134.043 31.728 132.827 31.728 131.216V124.8H32.912V131.168C32.912 132.491 33.2107 133.467 33.808 134.096C34.4053 134.725 35.248 135.04 36.336 135.04C37.4347 135.04 38.2827 134.725 38.88 134.096C39.4773 133.467 39.776 132.491 39.776 131.168V124.8H40.928V131.216C40.928 132.827 40.5173 134.043 39.696 134.864C38.8853 135.685 37.7653 136.096 36.336 136.096ZM48.5919 136.08C47.8665 136.08 47.2105 135.915 46.6239 135.584C46.0372 135.243 45.5679 134.757 45.2159 134.128C44.8745 133.488 44.7039 132.709 44.7039 131.792C44.7039 130.875 44.8745 130.101 45.2159 129.472C45.5572 128.832 46.0212 128.347 46.6079 128.016C47.1945 127.685 47.8559 127.52 48.5919 127.52C49.3919 127.52 50.1065 127.701 50.7359 128.064C51.3759 128.416 51.8772 128.917 52.2399 129.568C52.6025 130.208 52.7839 130.949 52.7839 131.792C52.7839 132.645 52.6025 133.392 52.2399 134.032C51.8772 134.672 51.3759 135.173 50.7359 135.536C50.1065 135.899 49.3919 136.08 48.5919 136.08ZM44.2559 139.104V127.6H45.3439V130.128L45.2319 131.808L45.3919 133.504V139.104H44.2559ZM48.5119 135.072C49.1092 135.072 49.6425 134.939 50.1119 134.672C50.5812 134.395 50.9545 134.011 51.2319 133.52C51.5092 133.019 51.6479 132.443 51.6479 131.792C51.6479 131.141 51.5092 130.571 51.2319 130.08C50.9545 129.589 50.5812 129.205 50.1119 128.928C49.6425 128.651 49.1092 128.512 48.5119 128.512C47.9145 128.512 47.3759 128.651 46.8959 128.928C46.4265 129.205 46.0532 129.589 45.7759 130.08C45.5092 130.571 45.3759 131.141 45.3759 131.792C45.3759 132.443 45.5092 133.019 45.7759 133.52C46.0532 134.011 46.4265 134.395 46.8959 134.672C47.3759 134.939 47.9145 135.072 48.5119 135.072ZM55.0996 136V124.128H56.2356V136H55.0996ZM62.8205 136.08C62.0098 136.08 61.2792 135.899 60.6285 135.536C59.9885 135.163 59.4818 134.656 59.1085 134.016C58.7352 133.365 58.5485 132.624 58.5485 131.792C58.5485 130.949 58.7352 130.208 59.1085 129.568C59.4818 128.928 59.9885 128.427 60.6285 128.064C61.2685 127.701 61.9992 127.52 62.8205 127.52C63.6525 127.52 64.3885 127.701 65.0285 128.064C65.6792 128.427 66.1858 128.928 66.5485 129.568C66.9218 130.208 67.1085 130.949 67.1085 131.792C67.1085 132.624 66.9218 133.365 66.5485 134.016C66.1858 134.656 65.6792 135.163 65.0285 135.536C64.3778 135.899 63.6418 136.08 62.8205 136.08ZM62.8205 135.072C63.4285 135.072 63.9672 134.939 64.4365 134.672C64.9058 134.395 65.2738 134.011 65.5405 133.52C65.8178 133.019 65.9565 132.443 65.9565 131.792C65.9565 131.131 65.8178 130.555 65.5405 130.064C65.2738 129.573 64.9058 129.195 64.4365 128.928C63.9672 128.651 63.4338 128.512 62.8365 128.512C62.2392 128.512 61.7058 128.651 61.2365 128.928C60.7672 129.195 60.3938 129.573 60.1165 130.064C59.8392 130.555 59.7005 131.131 59.7005 131.792C59.7005 132.443 59.8392 133.019 60.1165 133.52C60.3938 134.011 60.7672 134.395 61.2365 134.672C61.7058 134.939 62.2338 135.072 62.8205 135.072ZM74.6449 136V134.144L74.5969 133.84V130.736C74.5969 130.021 74.3942 129.472 73.9889 129.088C73.5942 128.704 73.0022 128.512 72.2129 128.512C71.6689 128.512 71.1515 128.603 70.6609 128.784C70.1702 128.965 69.7542 129.205 69.4129 129.504L68.9009 128.656C69.3275 128.293 69.8395 128.016 70.4369 127.824C71.0342 127.621 71.6635 127.52 72.3249 127.52C73.4129 127.52 74.2502 127.792 74.8369 128.336C75.4342 128.869 75.7329 129.685 75.7329 130.784V136H74.6449ZM71.7489 136.08C71.1195 136.08 70.5702 135.979 70.1009 135.776C69.6422 135.563 69.2902 135.275 69.0449 134.912C68.7995 134.539 68.6769 134.112 68.6769 133.632C68.6769 133.195 68.7782 132.8 68.9809 132.448C69.1942 132.085 69.5355 131.797 70.0049 131.584C70.4849 131.36 71.1249 131.248 71.9249 131.248H74.8209V132.096H71.9569C71.1462 132.096 70.5809 132.24 70.2609 132.528C69.9515 132.816 69.7969 133.173 69.7969 133.6C69.7969 134.08 69.9835 134.464 70.3569 134.752C70.7302 135.04 71.2529 135.184 71.9249 135.184C72.5649 135.184 73.1142 135.04 73.5729 134.752C74.0422 134.453 74.3835 134.027 74.5969 133.472L74.8529 134.256C74.6395 134.811 74.2662 135.253 73.7329 135.584C73.2102 135.915 72.5489 136.08 71.7489 136.08ZM82.1624 136.08C81.3624 136.08 80.6424 135.899 80.0024 135.536C79.373 135.173 78.877 134.672 78.5144 134.032C78.1517 133.381 77.9704 132.635 77.9704 131.792C77.9704 130.939 78.1517 130.192 78.5144 129.552C78.877 128.912 79.373 128.416 80.0024 128.064C80.6424 127.701 81.3624 127.52 82.1624 127.52C82.8984 127.52 83.5544 127.685 84.1304 128.016C84.717 128.347 85.181 128.832 85.5224 129.472C85.8744 130.101 86.0504 130.875 86.0504 131.792C86.0504 132.699 85.8797 133.472 85.5384 134.112C85.197 134.752 84.733 135.243 84.1464 135.584C83.5704 135.915 82.909 136.08 82.1624 136.08ZM82.2424 135.072C82.8397 135.072 83.373 134.939 83.8424 134.672C84.3224 134.395 84.6957 134.011 84.9624 133.52C85.2397 133.019 85.3784 132.443 85.3784 131.792C85.3784 131.131 85.2397 130.555 84.9624 130.064C84.6957 129.573 84.3224 129.195 83.8424 128.928C83.373 128.651 82.8397 128.512 82.2424 128.512C81.6557 128.512 81.1277 128.651 80.6584 128.928C80.189 129.195 79.8157 129.573 79.5384 130.064C79.261 130.555 79.1224 131.131 79.1224 131.792C79.1224 132.443 79.261 133.019 79.5384 133.52C79.8157 134.011 80.189 134.395 80.6584 134.672C81.1277 134.939 81.6557 135.072 82.2424 135.072ZM85.4104 136V133.472L85.5224 131.776L85.3624 130.08V124.128H86.4984V136H85.4104ZM97.2736 136.08C96.463 136.08 95.7323 135.899 95.0816 135.536C94.4416 135.163 93.935 134.656 93.5616 134.016C93.1883 133.365 93.0016 132.624 93.0016 131.792C93.0016 130.949 93.1883 130.208 93.5616 129.568C93.935 128.928 94.4416 128.427 95.0816 128.064C95.7216 127.701 96.4523 127.52 97.2736 127.52C98.1056 127.52 98.8416 127.701 99.4816 128.064C100.132 128.427 100.639 128.928 101.002 129.568C101.375 130.208 101.562 130.949 101.562 131.792C101.562 132.624 101.375 133.365 101.002 134.016C100.639 134.656 100.132 135.163 99.4816 135.536C98.831 135.899 98.095 136.08 97.2736 136.08ZM97.2736 135.072C97.8816 135.072 98.4203 134.939 98.8896 134.672C99.359 134.395 99.727 134.011 99.9936 133.52C100.271 133.019 100.41 132.443 100.41 131.792C100.41 131.131 100.271 130.555 99.9936 130.064C99.727 129.573 99.359 129.195 98.8896 128.928C98.4203 128.651 97.887 128.512 97.2896 128.512C96.6923 128.512 96.159 128.651 95.6896 128.928C95.2203 129.195 94.847 129.573 94.5696 130.064C94.2923 130.555 94.1536 131.131 94.1536 131.792C94.1536 132.443 94.2923 133.019 94.5696 133.52C94.847 134.011 95.2203 134.395 95.6896 134.672C96.159 134.939 96.687 135.072 97.2736 135.072ZM103.881 136V127.6H104.969V129.888L104.857 129.488C105.092 128.848 105.486 128.363 106.041 128.032C106.596 127.691 107.284 127.52 108.105 127.52V128.624C108.062 128.624 108.02 128.624 107.977 128.624C107.934 128.613 107.892 128.608 107.849 128.608C106.964 128.608 106.27 128.88 105.769 129.424C105.268 129.957 105.017 130.72 105.017 131.712V136H103.881ZM117.978 136.08C117.146 136.08 116.4 135.899 115.738 135.536C115.088 135.163 114.576 134.656 114.202 134.016C113.829 133.365 113.642 132.624 113.642 131.792C113.642 130.949 113.829 130.208 114.202 129.568C114.576 128.928 115.088 128.427 115.738 128.064C116.4 127.701 117.146 127.52 117.978 127.52C118.693 127.52 119.338 127.659 119.914 127.936C120.49 128.213 120.944 128.629 121.274 129.184L120.426 129.76C120.138 129.333 119.781 129.019 119.354 128.816C118.928 128.613 118.464 128.512 117.962 128.512C117.365 128.512 116.826 128.651 116.346 128.928C115.866 129.195 115.488 129.573 115.21 130.064C114.933 130.555 114.794 131.131 114.794 131.792C114.794 132.453 114.933 133.029 115.21 133.52C115.488 134.011 115.866 134.395 116.346 134.672C116.826 134.939 117.365 135.072 117.962 135.072C118.464 135.072 118.928 134.971 119.354 134.768C119.781 134.565 120.138 134.256 120.426 133.84L121.274 134.416C120.944 134.96 120.49 135.376 119.914 135.664C119.338 135.941 118.693 136.08 117.978 136.08ZM123.506 136V127.6H124.594V129.888L124.482 129.488C124.717 128.848 125.111 128.363 125.666 128.032C126.221 127.691 126.909 127.52 127.73 127.52V128.624C127.687 128.624 127.645 128.624 127.602 128.624C127.559 128.613 127.517 128.608 127.474 128.608C126.589 128.608 125.895 128.88 125.394 129.424C124.893 129.957 124.642 130.72 124.642 131.712V136H123.506ZM133.293 136.08C132.418 136.08 131.65 135.899 130.989 135.536C130.327 135.163 129.81 134.656 129.437 134.016C129.063 133.365 128.877 132.624 128.877 131.792C128.877 130.96 129.053 130.224 129.405 129.584C129.767 128.944 130.258 128.443 130.877 128.08C131.506 127.707 132.21 127.52 132.989 127.52C133.778 127.52 134.477 127.701 135.085 128.064C135.703 128.416 136.189 128.917 136.541 129.568C136.893 130.208 137.069 130.949 137.069 131.792C137.069 131.845 137.063 131.904 137.053 131.968C137.053 132.021 137.053 132.08 137.053 132.144H129.741V131.296H136.445L135.997 131.632C135.997 131.024 135.863 130.485 135.597 130.016C135.341 129.536 134.989 129.163 134.541 128.896C134.093 128.629 133.575 128.496 132.989 128.496C132.413 128.496 131.895 128.629 131.437 128.896C130.978 129.163 130.621 129.536 130.365 130.016C130.109 130.496 129.981 131.045 129.981 131.664V131.84C129.981 132.48 130.119 133.045 130.397 133.536C130.685 134.016 131.079 134.395 131.581 134.672C132.093 134.939 132.674 135.072 133.325 135.072C133.837 135.072 134.311 134.981 134.749 134.8C135.197 134.619 135.581 134.341 135.901 133.968L136.541 134.704C136.167 135.152 135.698 135.493 135.133 135.728C134.578 135.963 133.965 136.08 133.293 136.08ZM144.411 136V134.144L144.363 133.84V130.736C144.363 130.021 144.16 129.472 143.755 129.088C143.36 128.704 142.768 128.512 141.979 128.512C141.435 128.512 140.917 128.603 140.427 128.784C139.936 128.965 139.52 129.205 139.179 129.504L138.667 128.656C139.093 128.293 139.605 128.016 140.203 127.824C140.8 127.621 141.429 127.52 142.091 127.52C143.179 127.52 144.016 127.792 144.603 128.336C145.2 128.869 145.499 129.685 145.499 130.784V136H144.411ZM141.515 136.08C140.885 136.08 140.336 135.979 139.867 135.776C139.408 135.563 139.056 135.275 138.811 134.912C138.565 134.539 138.443 134.112 138.443 133.632C138.443 133.195 138.544 132.8 138.747 132.448C138.96 132.085 139.301 131.797 139.771 131.584C140.251 131.36 140.891 131.248 141.691 131.248H144.587V132.096H141.723C140.912 132.096 140.347 132.24 140.027 132.528C139.717 132.816 139.562 133.173 139.562 133.6C139.562 134.08 139.749 134.464 140.123 134.752C140.496 135.04 141.019 135.184 141.691 135.184C142.331 135.184 142.88 135.04 143.339 134.752C143.808 134.453 144.149 134.027 144.363 133.472L144.619 134.256C144.405 134.811 144.032 135.253 143.499 135.584C142.976 135.915 142.315 136.08 141.515 136.08ZM151.24 136.08C150.451 136.08 149.843 135.867 149.416 135.44C148.989 135.013 148.776 134.411 148.776 133.632V125.744H149.912V133.568C149.912 134.059 150.035 134.437 150.28 134.704C150.536 134.971 150.899 135.104 151.368 135.104C151.869 135.104 152.285 134.96 152.616 134.672L153.016 135.488C152.792 135.691 152.52 135.84 152.2 135.936C151.891 136.032 151.571 136.08 151.24 136.08ZM147.272 128.544V127.6H152.472V128.544H147.272ZM158.355 136.08C157.48 136.08 156.712 135.899 156.051 135.536C155.39 135.163 154.872 134.656 154.499 134.016C154.126 133.365 153.939 132.624 153.939 131.792C153.939 130.96 154.115 130.224 154.467 129.584C154.83 128.944 155.32 128.443 155.939 128.08C156.568 127.707 157.272 127.52 158.051 127.52C158.84 127.52 159.539 127.701 160.147 128.064C160.766 128.416 161.251 128.917 161.603 129.568C161.955 130.208 162.131 130.949 162.131 131.792C162.131 131.845 162.126 131.904 162.115 131.968C162.115 132.021 162.115 132.08 162.115 132.144H154.803V131.296H161.507L161.059 131.632C161.059 131.024 160.926 130.485 160.659 130.016C160.403 129.536 160.051 129.163 159.603 128.896C159.155 128.629 158.638 128.496 158.051 128.496C157.475 128.496 156.958 128.629 156.499 128.896C156.04 129.163 155.683 129.536 155.427 130.016C155.171 130.496 155.043 131.045 155.043 131.664V131.84C155.043 132.48 155.182 133.045 155.459 133.536C155.747 134.016 156.142 134.395 156.643 134.672C157.155 134.939 157.736 135.072 158.387 135.072C158.899 135.072 159.374 134.981 159.811 134.8C160.259 134.619 160.643 134.341 160.963 133.968L161.603 134.704C161.23 135.152 160.76 135.493 160.195 135.728C159.64 135.963 159.027 136.08 158.355 136.08Z" fill="black" fill-opacity="0.7"/>
<path d="M36.784 211.096C35.9413 211.096 35.1627 210.957 34.448 210.68C33.7333 210.392 33.1147 209.992 32.592 209.48C32.0693 208.968 31.6587 208.365 31.36 207.672C31.072 206.979 30.928 206.221 30.928 205.4C30.928 204.579 31.072 203.821 31.36 203.128C31.6587 202.435 32.0693 201.832 32.592 201.32C33.1253 200.808 33.7493 200.413 34.464 200.136C35.1787 199.848 35.9573 199.704 36.8 199.704C37.6107 199.704 38.3733 199.843 39.088 200.12C39.8027 200.387 40.4053 200.792 40.896 201.336L40.144 202.088C39.6853 201.619 39.1787 201.283 38.624 201.08C38.0693 200.867 37.472 200.76 36.832 200.76C36.16 200.76 35.536 200.877 34.96 201.112C34.384 201.336 33.8827 201.661 33.456 202.088C33.0293 202.504 32.6933 202.995 32.448 203.56C32.2133 204.115 32.096 204.728 32.096 205.4C32.096 206.072 32.2133 206.691 32.448 207.256C32.6933 207.811 33.0293 208.301 33.456 208.728C33.8827 209.144 34.384 209.469 34.96 209.704C35.536 209.928 36.16 210.04 36.832 210.04C37.472 210.04 38.0693 209.933 38.624 209.72C39.1787 209.507 39.6853 209.165 40.144 208.696L40.896 209.448C40.4053 209.992 39.8027 210.403 39.088 210.68C38.3733 210.957 37.6053 211.096 36.784 211.096ZM47.3251 202.52C48.0078 202.52 48.6051 202.653 49.1171 202.92C49.6398 203.176 50.0451 203.571 50.3331 204.104C50.6318 204.637 50.7811 205.309 50.7811 206.12V211H49.6451V206.232C49.6451 205.347 49.4211 204.68 48.9731 204.232C48.5358 203.773 47.9171 203.544 47.1171 203.544C46.5198 203.544 45.9971 203.667 45.5491 203.912C45.1118 204.147 44.7705 204.493 44.5251 204.952C44.2905 205.4 44.1731 205.944 44.1731 206.584V211H43.0371V199.128H44.1731V204.904L43.9491 204.472C44.2158 203.864 44.6425 203.389 45.2291 203.048C45.8158 202.696 46.5145 202.52 47.3251 202.52ZM59.1136 211V209.144L59.0656 208.84V205.736C59.0656 205.021 58.863 204.472 58.4576 204.088C58.063 203.704 57.471 203.512 56.6816 203.512C56.1376 203.512 55.6203 203.603 55.1296 203.784C54.639 203.965 54.223 204.205 53.8816 204.504L53.3696 203.656C53.7963 203.293 54.3083 203.016 54.9056 202.824C55.503 202.621 56.1323 202.52 56.7936 202.52C57.8816 202.52 58.719 202.792 59.3056 203.336C59.903 203.869 60.2016 204.685 60.2016 205.784V211H59.1136ZM56.2176 211.08C55.5883 211.08 55.039 210.979 54.5696 210.776C54.111 210.563 53.759 210.275 53.5136 209.912C53.2683 209.539 53.1456 209.112 53.1456 208.632C53.1456 208.195 53.247 207.8 53.4496 207.448C53.663 207.085 54.0043 206.797 54.4736 206.584C54.9536 206.36 55.5936 206.248 56.3936 206.248H59.2896V207.096H56.4256C55.615 207.096 55.0496 207.24 54.7296 207.528C54.4203 207.816 54.2656 208.173 54.2656 208.6C54.2656 209.08 54.4523 209.464 54.8256 209.752C55.199 210.04 55.7216 210.184 56.3936 210.184C57.0336 210.184 57.583 210.04 58.0416 209.752C58.511 209.453 58.8523 209.027 59.0656 208.472L59.3216 209.256C59.1083 209.811 58.735 210.253 58.2016 210.584C57.679 210.915 57.0176 211.08 56.2176 211.08ZM67.5751 202.52C68.2578 202.52 68.8551 202.653 69.3671 202.92C69.8898 203.176 70.2951 203.571 70.5831 204.104C70.8818 204.637 71.0311 205.309 71.0311 206.12V211H69.8951V206.232C69.8951 205.347 69.6711 204.68 69.2231 204.232C68.7858 203.773 68.1671 203.544 67.3671 203.544C66.7698 203.544 66.2471 203.667 65.7991 203.912C65.3618 204.147 65.0205 204.493 64.7751 204.952C64.5405 205.4 64.4231 205.944 64.4231 206.584V211H63.2871V202.6H64.3751V204.904L64.1991 204.472C64.4658 203.864 64.8925 203.389 65.4791 203.048C66.0658 202.696 66.7645 202.52 67.5751 202.52ZM77.6836 214.184C76.9156 214.184 76.1796 214.072 75.4756 213.848C74.7716 213.624 74.201 213.304 73.7636 212.888L74.3396 212.024C74.7343 212.376 75.2196 212.653 75.7956 212.856C76.3823 213.069 77.001 213.176 77.6516 213.176C78.7183 213.176 79.5023 212.925 80.0036 212.424C80.505 211.933 80.7556 211.165 80.7556 210.12V208.024L80.9156 206.584L80.8036 205.144V202.6H81.8916V209.976C81.8916 211.427 81.5343 212.488 80.8196 213.16C80.1156 213.843 79.0703 214.184 77.6836 214.184ZM77.4756 210.68C76.6756 210.68 75.9556 210.509 75.3156 210.168C74.6756 209.816 74.169 209.331 73.7956 208.712C73.433 208.093 73.2516 207.384 73.2516 206.584C73.2516 205.784 73.433 205.08 73.7956 204.472C74.169 203.853 74.6756 203.373 75.3156 203.032C75.9556 202.691 76.6756 202.52 77.4756 202.52C78.2223 202.52 78.8943 202.675 79.4916 202.984C80.089 203.293 80.5636 203.752 80.9156 204.36C81.2676 204.968 81.4436 205.709 81.4436 206.584C81.4436 207.459 81.2676 208.2 80.9156 208.808C80.5636 209.416 80.089 209.88 79.4916 210.2C78.8943 210.52 78.2223 210.68 77.4756 210.68ZM77.5876 209.672C78.2063 209.672 78.7556 209.544 79.2356 209.288C79.7156 209.021 80.0943 208.659 80.3716 208.2C80.649 207.731 80.7876 207.192 80.7876 206.584C80.7876 205.976 80.649 205.443 80.3716 204.984C80.0943 204.525 79.7156 204.168 79.2356 203.912C78.7556 203.645 78.2063 203.512 77.5876 203.512C76.9796 203.512 76.4303 203.645 75.9396 203.912C75.4596 204.168 75.081 204.525 74.8036 204.984C74.537 205.443 74.4036 205.976 74.4036 206.584C74.4036 207.192 74.537 207.731 74.8036 208.2C75.081 208.659 75.4596 209.021 75.9396 209.288C76.4303 209.544 76.9796 209.672 77.5876 209.672ZM88.6208 211.08C87.7461 211.08 86.9781 210.899 86.3168 210.536C85.6554 210.163 85.1381 209.656 84.7648 209.016C84.3914 208.365 84.2048 207.624 84.2048 206.792C84.2048 205.96 84.3808 205.224 84.7328 204.584C85.0954 203.944 85.5861 203.443 86.2048 203.08C86.8341 202.707 87.5381 202.52 88.3168 202.52C89.1061 202.52 89.8048 202.701 90.4128 203.064C91.0314 203.416 91.5168 203.917 91.8688 204.568C92.2208 205.208 92.3968 205.949 92.3968 206.792C92.3968 206.845 92.3914 206.904 92.3808 206.968C92.3808 207.021 92.3808 207.08 92.3808 207.144H85.0688V206.296H91.7728L91.3248 206.632C91.3248 206.024 91.1914 205.485 90.9248 205.016C90.6688 204.536 90.3168 204.163 89.8688 203.896C89.4208 203.629 88.9034 203.496 88.3168 203.496C87.7408 203.496 87.2234 203.629 86.7648 203.896C86.3061 204.163 85.9488 204.536 85.6928 205.016C85.4368 205.496 85.3088 206.045 85.3088 206.664V206.84C85.3088 207.48 85.4474 208.045 85.7248 208.536C86.0128 209.016 86.4074 209.395 86.9088 209.672C87.4208 209.939 88.0021 210.072 88.6528 210.072C89.1648 210.072 89.6394 209.981 90.0768 209.8C90.5248 209.619 90.9088 209.341 91.2288 208.968L91.8688 209.704C91.4954 210.152 91.0261 210.493 90.4608 210.728C89.9061 210.963 89.2928 211.08 88.6208 211.08ZM102.465 211.08C101.59 211.08 100.822 210.899 100.161 210.536C99.4992 210.163 98.9818 209.656 98.6085 209.016C98.2352 208.365 98.0485 207.624 98.0485 206.792C98.0485 205.96 98.2245 205.224 98.5765 204.584C98.9392 203.944 99.4298 203.443 100.049 203.08C100.678 202.707 101.382 202.52 102.161 202.52C102.95 202.52 103.649 202.701 104.257 203.064C104.875 203.416 105.361 203.917 105.713 204.568C106.065 205.208 106.241 205.949 106.241 206.792C106.241 206.845 106.235 206.904 106.225 206.968C106.225 207.021 106.225 207.08 106.225 207.144H98.9125V206.296H105.617L105.169 206.632C105.169 206.024 105.035 205.485 104.769 205.016C104.513 204.536 104.161 204.163 103.713 203.896C103.265 203.629 102.747 203.496 102.161 203.496C101.585 203.496 101.067 203.629 100.609 203.896C100.15 204.163 99.7925 204.536 99.5365 205.016C99.2805 205.496 99.1525 206.045 99.1525 206.664V206.84C99.1525 207.48 99.2912 208.045 99.5685 208.536C99.8565 209.016 100.251 209.395 100.753 209.672C101.265 209.939 101.846 210.072 102.497 210.072C103.009 210.072 103.483 209.981 103.921 209.8C104.369 209.619 104.753 209.341 105.073 208.968L105.713 209.704C105.339 210.152 104.87 210.493 104.305 210.728C103.75 210.963 103.137 211.08 102.465 211.08ZM119.049 202.52C119.731 202.52 120.323 202.653 120.825 202.92C121.337 203.176 121.731 203.571 122.009 204.104C122.297 204.637 122.441 205.309 122.441 206.12V211H121.305V206.232C121.305 205.347 121.091 204.68 120.665 204.232C120.249 203.773 119.657 203.544 118.889 203.544C118.313 203.544 117.811 203.667 117.385 203.912C116.969 204.147 116.643 204.493 116.409 204.952C116.185 205.4 116.073 205.944 116.073 206.584V211H114.937V206.232C114.937 205.347 114.723 204.68 114.297 204.232C113.87 203.773 113.273 203.544 112.505 203.544C111.939 203.544 111.443 203.667 111.017 203.912C110.59 204.147 110.259 204.493 110.025 204.952C109.801 205.4 109.689 205.944 109.689 206.584V211H108.553V202.6H109.641V204.872L109.465 204.472C109.721 203.864 110.131 203.389 110.697 203.048C111.273 202.696 111.95 202.52 112.729 202.52C113.55 202.52 114.249 202.728 114.825 203.144C115.401 203.549 115.774 204.163 115.945 204.984L115.497 204.808C115.742 204.125 116.174 203.576 116.793 203.16C117.422 202.733 118.174 202.52 119.049 202.52ZM130.786 211V209.144L130.738 208.84V205.736C130.738 205.021 130.535 204.472 130.13 204.088C129.735 203.704 129.143 203.512 128.354 203.512C127.81 203.512 127.292 203.603 126.802 203.784C126.311 203.965 125.895 204.205 125.554 204.504L125.042 203.656C125.468 203.293 125.98 203.016 126.578 202.824C127.175 202.621 127.804 202.52 128.466 202.52C129.554 202.52 130.391 202.792 130.978 203.336C131.575 203.869 131.874 204.685 131.874 205.784V211H130.786ZM127.89 211.08C127.26 211.08 126.711 210.979 126.242 210.776C125.783 210.563 125.431 210.275 125.186 209.912C124.94 209.539 124.818 209.112 124.818 208.632C124.818 208.195 124.919 207.8 125.122 207.448C125.335 207.085 125.676 206.797 126.146 206.584C126.626 206.36 127.266 206.248 128.066 206.248H130.962V207.096H128.098C127.287 207.096 126.722 207.24 126.402 207.528C126.092 207.816 125.938 208.173 125.938 208.6C125.938 209.08 126.124 209.464 126.498 209.752C126.871 210.04 127.394 210.184 128.066 210.184C128.706 210.184 129.255 210.04 129.714 209.752C130.183 209.453 130.524 209.027 130.738 208.472L130.994 209.256C130.78 209.811 130.407 210.253 129.874 210.584C129.351 210.915 128.69 211.08 127.89 211.08ZM134.959 211V202.6H136.095V211H134.959ZM135.535 200.744C135.3 200.744 135.103 200.664 134.943 200.504C134.783 200.344 134.703 200.152 134.703 199.928C134.703 199.704 134.783 199.517 134.943 199.368C135.103 199.208 135.3 199.128 135.535 199.128C135.77 199.128 135.967 199.203 136.127 199.352C136.287 199.501 136.367 199.688 136.367 199.912C136.367 200.147 136.287 200.344 136.127 200.504C135.978 200.664 135.78 200.744 135.535 200.744ZM139.256 211V199.128H140.392V211H139.256ZM151.164 211.08C150.354 211.08 149.623 210.899 148.972 210.536C148.332 210.163 147.826 209.656 147.452 209.016C147.079 208.365 146.892 207.624 146.892 206.792C146.892 205.949 147.079 205.208 147.452 204.568C147.826 203.928 148.332 203.427 148.972 203.064C149.612 202.701 150.343 202.52 151.164 202.52C151.996 202.52 152.732 202.701 153.372 203.064C154.023 203.427 154.53 203.928 154.892 204.568C155.266 205.208 155.452 205.949 155.452 206.792C155.452 207.624 155.266 208.365 154.892 209.016C154.53 209.656 154.023 210.163 153.372 210.536C152.722 210.899 151.986 211.08 151.164 211.08ZM151.164 210.072C151.772 210.072 152.311 209.939 152.78 209.672C153.25 209.395 153.618 209.011 153.884 208.52C154.162 208.019 154.3 207.443 154.3 206.792C154.3 206.131 154.162 205.555 153.884 205.064C153.618 204.573 153.25 204.195 152.78 203.928C152.311 203.651 151.778 203.512 151.18 203.512C150.583 203.512 150.05 203.651 149.58 203.928C149.111 204.195 148.738 204.573 148.46 205.064C148.183 205.555 148.044 206.131 148.044 206.792C148.044 207.443 148.183 208.019 148.46 208.52C148.738 209.011 149.111 209.395 149.58 209.672C150.05 209.939 150.578 210.072 151.164 210.072ZM157.772 211V202.6H158.86V204.888L158.748 204.488C158.982 203.848 159.377 203.363 159.932 203.032C160.486 202.691 161.174 202.52 161.996 202.52V203.624C161.953 203.624 161.91 203.624 161.868 203.624C161.825 203.613 161.782 203.608 161.74 203.608C160.854 203.608 160.161 203.88 159.66 204.424C159.158 204.957 158.908 205.72 158.908 206.712V211H157.772ZM172.717 211.08C171.992 211.08 171.336 210.915 170.749 210.584C170.162 210.243 169.693 209.757 169.341 209.128C169 208.488 168.829 207.709 168.829 206.792C168.829 205.875 169 205.101 169.341 204.472C169.682 203.832 170.146 203.347 170.733 203.016C171.32 202.685 171.981 202.52 172.717 202.52C173.517 202.52 174.232 202.701 174.861 203.064C175.501 203.416 176.002 203.917 176.365 204.568C176.728 205.208 176.909 205.949 176.909 206.792C176.909 207.645 176.728 208.392 176.365 209.032C176.002 209.672 175.501 210.173 174.861 210.536C174.232 210.899 173.517 211.08 172.717 211.08ZM168.381 214.104V202.6H169.469V205.128L169.357 206.808L169.517 208.504V214.104H168.381ZM172.637 210.072C173.234 210.072 173.768 209.939 174.237 209.672C174.706 209.395 175.08 209.011 175.357 208.52C175.634 208.019 175.773 207.443 175.773 206.792C175.773 206.141 175.634 205.571 175.357 205.08C175.08 204.589 174.706 204.205 174.237 203.928C173.768 203.651 173.234 203.512 172.637 203.512C172.04 203.512 171.501 203.651 171.021 203.928C170.552 204.205 170.178 204.589 169.901 205.08C169.634 205.571 169.501 206.141 169.501 206.792C169.501 207.443 169.634 208.019 169.901 208.52C170.178 209.011 170.552 209.395 171.021 209.672C171.501 209.939 172.04 210.072 172.637 210.072ZM184.442 211V209.144L184.394 208.84V205.736C184.394 205.021 184.191 204.472 183.786 204.088C183.391 203.704 182.799 203.512 182.01 203.512C181.466 203.512 180.948 203.603 180.458 203.784C179.967 203.965 179.551 204.205 179.21 204.504L178.698 203.656C179.124 203.293 179.636 203.016 180.234 202.824C180.831 202.621 181.46 202.52 182.122 202.52C183.21 202.52 184.047 202.792 184.634 203.336C185.231 203.869 185.53 204.685 185.53 205.784V211H184.442ZM181.546 211.08C180.916 211.08 180.367 210.979 179.898 210.776C179.439 210.563 179.087 210.275 178.842 209.912C178.596 209.539 178.474 209.112 178.474 208.632C178.474 208.195 178.575 207.8 178.778 207.448C178.991 207.085 179.332 206.797 179.802 206.584C180.282 206.36 180.922 206.248 181.722 206.248H184.618V207.096H181.754C180.943 207.096 180.378 207.24 180.058 207.528C179.748 207.816 179.594 208.173 179.594 208.6C179.594 209.08 179.78 209.464 180.154 209.752C180.527 210.04 181.05 210.184 181.722 210.184C182.362 210.184 182.911 210.04 183.37 209.752C183.839 209.453 184.18 209.027 184.394 208.472L184.65 209.256C184.436 209.811 184.063 210.253 183.53 210.584C183.007 210.915 182.346 211.08 181.546 211.08ZM190.871 211.08C190.178 211.08 189.522 210.984 188.903 210.792C188.285 210.589 187.799 210.339 187.447 210.04L187.959 209.144C188.301 209.4 188.738 209.624 189.271 209.816C189.805 209.997 190.365 210.088 190.951 210.088C191.751 210.088 192.327 209.965 192.679 209.72C193.031 209.464 193.207 209.128 193.207 208.712C193.207 208.403 193.106 208.163 192.903 207.992C192.711 207.811 192.455 207.677 192.135 207.592C191.815 207.496 191.458 207.416 191.063 207.352C190.669 207.288 190.274 207.213 189.879 207.128C189.495 207.043 189.143 206.92 188.823 206.76C188.503 206.589 188.242 206.36 188.039 206.072C187.847 205.784 187.751 205.4 187.751 204.92C187.751 204.461 187.879 204.051 188.135 203.688C188.391 203.325 188.765 203.043 189.255 202.84C189.757 202.627 190.365 202.52 191.079 202.52C191.623 202.52 192.167 202.595 192.711 202.744C193.255 202.883 193.703 203.069 194.055 203.304L193.559 204.216C193.186 203.96 192.786 203.779 192.359 203.672C191.933 203.555 191.506 203.496 191.079 203.496C190.322 203.496 189.762 203.629 189.399 203.896C189.047 204.152 188.871 204.483 188.871 204.888C188.871 205.208 188.967 205.459 189.159 205.64C189.362 205.821 189.623 205.965 189.943 206.072C190.274 206.168 190.631 206.248 191.015 206.312C191.41 206.376 191.799 206.456 192.183 206.552C192.578 206.637 192.935 206.76 193.255 206.92C193.586 207.069 193.847 207.288 194.039 207.576C194.242 207.853 194.343 208.221 194.343 208.68C194.343 209.171 194.205 209.597 193.927 209.96C193.661 210.312 193.266 210.589 192.743 210.792C192.231 210.984 191.607 211.08 190.871 211.08ZM198.684 211.08C197.99 211.08 197.334 210.984 196.716 210.792C196.097 210.589 195.612 210.339 195.26 210.04L195.772 209.144C196.113 209.4 196.55 209.624 197.084 209.816C197.617 209.997 198.177 210.088 198.764 210.088C199.564 210.088 200.14 209.965 200.492 209.72C200.844 209.464 201.02 209.128 201.02 208.712C201.02 208.403 200.918 208.163 200.716 207.992C200.524 207.811 200.268 207.677 199.948 207.592C199.628 207.496 199.27 207.416 198.876 207.352C198.481 207.288 198.086 207.213 197.692 207.128C197.308 207.043 196.956 206.92 196.636 206.76C196.316 206.589 196.054 206.36 195.852 206.072C195.66 205.784 195.564 205.4 195.564 204.92C195.564 204.461 195.692 204.051 195.948 203.688C196.204 203.325 196.577 203.043 197.068 202.84C197.569 202.627 198.177 202.52 198.892 202.52C199.436 202.52 199.98 202.595 200.524 202.744C201.068 202.883 201.516 203.069 201.868 203.304L201.372 204.216C200.998 203.96 200.598 203.779 200.172 203.672C199.745 203.555 199.318 203.496 198.892 203.496C198.134 203.496 197.574 203.629 197.212 203.896C196.86 204.152 196.684 204.483 196.684 204.888C196.684 205.208 196.78 205.459 196.972 205.64C197.174 205.821 197.436 205.965 197.756 206.072C198.086 206.168 198.444 206.248 198.828 206.312C199.222 206.376 199.612 206.456 199.996 206.552C200.39 206.637 200.748 206.76 201.068 206.92C201.398 207.069 201.66 207.288 201.852 207.576C202.054 207.853 202.156 208.221 202.156 208.68C202.156 209.171 202.017 209.597 201.74 209.96C201.473 210.312 201.078 210.589 200.556 210.792C200.044 210.984 199.42 211.08 198.684 211.08ZM205.796 211L202.628 202.6H203.716L206.596 210.392H206.1L209.06 202.6H210.036L212.964 210.392H212.468L215.396 202.6H216.436L213.252 211H212.18L209.364 203.672H209.7L206.868 211H205.796ZM221.336 211.08C220.525 211.08 219.795 210.899 219.144 210.536C218.504 210.163 217.997 209.656 217.624 209.016C217.251 208.365 217.064 207.624 217.064 206.792C217.064 205.949 217.251 205.208 217.624 204.568C217.997 203.928 218.504 203.427 219.144 203.064C219.784 202.701 220.515 202.52 221.336 202.52C222.168 202.52 222.904 202.701 223.544 203.064C224.195 203.427 224.701 203.928 225.064 204.568C225.437 205.208 225.624 205.949 225.624 206.792C225.624 207.624 225.437 208.365 225.064 209.016C224.701 209.656 224.195 210.163 223.544 210.536C222.893 210.899 222.157 211.08 221.336 211.08ZM221.336 210.072C221.944 210.072 222.483 209.939 222.952 209.672C223.421 209.395 223.789 209.011 224.056 208.52C224.333 208.019 224.472 207.443 224.472 206.792C224.472 206.131 224.333 205.555 224.056 205.064C223.789 204.573 223.421 204.195 222.952 203.928C222.483 203.651 221.949 203.512 221.352 203.512C220.755 203.512 220.221 203.651 219.752 203.928C219.283 204.195 218.909 204.573 218.632 205.064C218.355 205.555 218.216 206.131 218.216 206.792C218.216 207.443 218.355 208.019 218.632 208.52C218.909 209.011 219.283 209.395 219.752 209.672C220.221 209.939 220.749 210.072 221.336 210.072ZM227.943 211V202.6H229.031V204.888L228.919 204.488C229.154 203.848 229.549 203.363 230.103 203.032C230.658 202.691 231.346 202.52 232.167 202.52V203.624C232.125 203.624 232.082 203.624 232.039 203.624C231.997 203.613 231.954 203.608 231.911 203.608C231.026 203.608 230.333 203.88 229.831 204.424C229.33 204.957 229.079 205.72 229.079 206.712V211H227.943ZM237.506 211.08C236.706 211.08 235.986 210.899 235.346 210.536C234.717 210.173 234.221 209.672 233.858 209.032C233.495 208.381 233.314 207.635 233.314 206.792C233.314 205.939 233.495 205.192 233.858 204.552C234.221 203.912 234.717 203.416 235.346 203.064C235.986 202.701 236.706 202.52 237.506 202.52C238.242 202.52 238.898 202.685 239.474 203.016C240.061 203.347 240.525 203.832 240.866 204.472C241.218 205.101 241.394 205.875 241.394 206.792C241.394 207.699 241.223 208.472 240.882 209.112C240.541 209.752 240.077 210.243 239.49 210.584C238.914 210.915 238.253 211.08 237.506 211.08ZM237.586 210.072C238.183 210.072 238.717 209.939 239.186 209.672C239.666 209.395 240.039 209.011 240.306 208.52C240.583 208.019 240.722 207.443 240.722 206.792C240.722 206.131 240.583 205.555 240.306 205.064C240.039 204.573 239.666 204.195 239.186 203.928C238.717 203.651 238.183 203.512 237.586 203.512C236.999 203.512 236.471 203.651 236.002 203.928C235.533 204.195 235.159 204.573 234.882 205.064C234.605 205.555 234.466 206.131 234.466 206.792C234.466 207.443 234.605 208.019 234.882 208.52C235.159 209.011 235.533 209.395 236.002 209.672C236.471 209.939 236.999 210.072 237.586 210.072ZM240.754 211V208.472L240.866 206.776L240.706 205.08V199.128H241.842V211H240.754Z" fill="black" fill-opacity="0.7"/>
</svg>
