<svg width="72" height="44" viewBox="0 0 72 44" fill="none" xmlns="http://www.w3.org/2000/svg">
<g clip-path="url(#clip0_180_178)">
<path d="M0 12.3273V6.76075C0 3.14154 2.92812 0.211273 6.54467 0.211273H63.2162C67.6037 0.211273 71.1652 3.77537 71.1652 8.16618V12.3273C65.8505 12.309 61.6649 16.7916 61.9311 21.7795C62.1789 26.4276 66.2269 30.2948 71.1652 30.258V36.6605C71.1652 40.6196 67.9617 43.8255 64.0056 43.8255H6.48041C2.90058 43.8255 0 40.9228 0 37.3403V29.7804C5.75527 30.4693 10.5467 26.1244 10.7303 21.4213C10.9231 16.4977 6.03982 11.6476 0 12.3365V12.3273Z" fill="#C85399"/>
<path d="M40.4705 17.0489H19.2852V18.4635H40.4705V17.0489Z" fill="white"/>
<path d="M40.4705 21.4948H19.2852V22.9094H40.4705V21.4948Z" fill="white"/>
<path d="M40.4705 25.8764H19.2852V27.291H40.4705V25.8764Z" fill="white"/>
<path d="M54.0004 0H52.2105V4.08768H54.0004V0Z" fill="white"/>
<path d="M54.0004 5.90647H52.2105V9.99415H54.0004V5.90647Z" fill="white"/>
<path d="M54.0004 11.8129H52.2105V15.9006H54.0004V11.8129Z" fill="white"/>
<path d="M54.0004 17.7194H52.2105V21.8071H54.0004V17.7194Z" fill="white"/>
<path d="M54.0004 23.6167H52.2105V27.7044H54.0004V23.6167Z" fill="white"/>
<path d="M54.0004 29.5232H52.2105V33.6109H54.0004V29.5232Z" fill="white"/>
<path d="M54.0004 35.4296H52.2105V39.5173H54.0004V35.4296Z" fill="white"/>
<path d="M54.0004 41.3361H52.2105V44H54.0004V41.3361Z" fill="white"/>
</g>
<defs>
<clipPath id="clip0_180_178">
<rect width="71.1652" height="44" fill="white"/>
</clipPath>
</defs>
</svg>
