<svg width="244" height="302" viewBox="0 0 244 302" fill="none" xmlns="http://www.w3.org/2000/svg">
<rect width="244" height="302" fill="#262626" fill-opacity="0.76"/>
<g clip-path="url(#clip0_95_223)">
<path d="M43.4473 174.417C43.0997 173.548 42.8899 172.817 42.7581 172.302C42.6981 172.062 42.5723 171.553 42.2366 169.557C42.0868 168.67 41.9489 167.795 41.907 167.501C41.3136 163.443 42.77 159.248 40.972 157.072C40.4385 156.425 39.3657 155.645 36.9143 155.597H34.1152V175.574C31.4121 175.916 28.709 176.264 26.0059 176.605V125H38.2449C42.4704 125 45.5331 125.983 47.4211 127.949C49.3151 129.915 50.2621 132.888 50.2621 136.867V140.919C50.2621 146.229 48.494 149.718 44.9517 151.39C47.0135 152.229 48.428 153.59 49.1892 155.484C49.9504 157.378 50.334 159.673 50.334 162.376V165.913C50.2801 166.71 50.2921 167.687 50.4779 168.789C50.8315 170.887 51.6646 172.47 52.2879 173.441C49.3451 173.764 46.4022 174.094 43.4533 174.417H43.4473ZM34.1093 132.372V148.219H37.2799C38.8023 148.219 39.995 147.824 40.8581 147.039C41.7152 146.253 42.1467 144.827 42.1467 142.765V137.677C42.1467 135.807 41.8171 134.458 41.1518 133.619C40.4865 132.786 39.4436 132.366 38.0171 132.366H34.1093V132.372Z" fill="#C95399"/>
<path d="M60.0382 172.667C60.0382 156.778 60.0382 140.889 60.0442 125H82.5083V133.133L68.1656 133.073V143.952L79.0141 143.862L79.092 151.875L68.0637 151.917L68.1056 163.929L82.5083 163.018V171.037C75.0163 171.583 67.5243 172.122 60.0322 172.667H60.0382Z" fill="#C95399"/>
<path d="M87.6689 125H112.746V133.103H104.265V170.09L96.1439 170.36L96.114 133.043L87.6689 133.103V125Z" fill="#C95399"/>
<path d="M117.858 125H140.424V133.103H126.04L125.962 143.496H136.948L136.99 151.48H126.004L126.04 169.856H117.858V125Z" fill="#C95399"/>
<path d="M145.621 125H153.724V162.502L167.576 163.335V171.397L145.621 170.36V125Z" fill="#C95399"/>
<path d="M174.186 125C176.925 125 179.658 125 182.397 125V172.583C179.652 172.356 176.907 172.128 174.156 171.9C174.168 156.269 174.174 140.637 174.186 125Z" fill="#C95399"/>
<path d="M189.194 125H198.005L203.183 138.474L209.111 125H218L207.451 149.46L218 176.767L208.632 175.388L202.788 160.135L196.896 174.04L188.283 173.093L198.556 149.304L189.194 125Z" fill="#C95399"/>
</g>
<defs>
<clipPath id="clip0_95_223">
<rect width="192" height="51.767" fill="white" transform="translate(26 125)"/>
</clipPath>
</defs>
</svg>
