<svg width="748" height="748" viewBox="0 0 748 748" fill="none" xmlns="http://www.w3.org/2000/svg">
<path d="M0 0H748V748H0V0Z" fill="black"/>
<path d="M35.824 634V622.8H40.016C40.9653 622.8 41.7813 622.955 42.464 623.264C43.1467 623.563 43.6693 624 44.032 624.576C44.4053 625.141 44.592 625.829 44.592 626.64C44.592 627.429 44.4053 628.112 44.032 628.688C43.6693 629.253 43.1467 629.691 42.464 630C41.7813 630.309 40.9653 630.464 40.016 630.464H36.48L37.008 629.904V634H35.824ZM37.008 630L36.48 629.424H39.984C41.104 629.424 41.952 629.184 42.528 628.704C43.1147 628.213 43.408 627.525 43.408 626.64C43.408 625.744 43.1147 625.051 42.528 624.56C41.952 624.069 41.104 623.824 39.984 623.824H36.48L37.008 623.264V630ZM46.8934 634V625.6H47.9814V627.888L47.8694 627.488C48.104 626.848 48.4987 626.363 49.0534 626.032C49.608 625.691 50.296 625.52 51.1174 625.52V626.624C51.0747 626.624 51.032 626.624 50.9894 626.624C50.9467 626.613 50.904 626.608 50.8614 626.608C49.976 626.608 49.2827 626.88 48.7814 627.424C48.28 627.957 48.0294 628.72 48.0294 629.712V634H46.8934ZM53.3902 634V625.6H54.5262V634H53.3902ZM53.9662 623.744C53.7316 623.744 53.5342 623.664 53.3742 623.504C53.2142 623.344 53.1342 623.152 53.1342 622.928C53.1342 622.704 53.2142 622.517 53.3742 622.368C53.5342 622.208 53.7316 622.128 53.9662 622.128C54.2009 622.128 54.3982 622.203 54.5582 622.352C54.7182 622.501 54.7982 622.688 54.7982 622.912C54.7982 623.147 54.7182 623.344 54.5582 623.504C54.4089 623.664 54.2116 623.744 53.9662 623.744ZM60.0471 634L56.3191 625.6H57.5031L60.9271 633.392H60.3671L63.8391 625.6H64.9591L61.2151 634H60.0471ZM71.773 634V632.144L71.725 631.84V628.736C71.725 628.021 71.5223 627.472 71.117 627.088C70.7223 626.704 70.1303 626.512 69.341 626.512C68.797 626.512 68.2797 626.603 67.789 626.784C67.2983 626.965 66.8823 627.205 66.541 627.504L66.029 626.656C66.4557 626.293 66.9677 626.016 67.565 625.824C68.1623 625.621 68.7917 625.52 69.453 625.52C70.541 625.52 71.3783 625.792 71.965 626.336C72.5623 626.869 72.861 627.685 72.861 628.784V634H71.773ZM68.877 634.08C68.2477 634.08 67.6983 633.979 67.229 633.776C66.7703 633.563 66.4183 633.275 66.173 632.912C65.9277 632.539 65.805 632.112 65.805 631.632C65.805 631.195 65.9063 630.8 66.109 630.448C66.3223 630.085 66.6637 629.797 67.133 629.584C67.613 629.36 68.253 629.248 69.053 629.248H71.949V630.096H69.085C68.2743 630.096 67.709 630.24 67.389 630.528C67.0797 630.816 66.925 631.173 66.925 631.6C66.925 632.08 67.1117 632.464 67.485 632.752C67.8583 633.04 68.381 633.184 69.053 633.184C69.693 633.184 70.2423 633.04 70.701 632.752C71.1703 632.453 71.5117 632.027 71.725 631.472L71.981 632.256C71.7677 632.811 71.3943 633.253 70.861 633.584C70.3383 633.915 69.677 634.08 68.877 634.08ZM79.6345 634.08C78.8025 634.08 78.0558 633.899 77.3945 633.536C76.7438 633.163 76.2318 632.656 75.8585 632.016C75.4852 631.365 75.2985 630.624 75.2985 629.792C75.2985 628.949 75.4852 628.208 75.8585 627.568C76.2318 626.928 76.7438 626.427 77.3945 626.064C78.0558 625.701 78.8025 625.52 79.6345 625.52C80.3492 625.52 80.9945 625.659 81.5705 625.936C82.1465 626.213 82.5998 626.629 82.9305 627.184L82.0825 627.76C81.7945 627.333 81.4372 627.019 81.0105 626.816C80.5838 626.613 80.1198 626.512 79.6185 626.512C79.0212 626.512 78.4825 626.651 78.0025 626.928C77.5225 627.195 77.1438 627.573 76.8665 628.064C76.5892 628.555 76.4505 629.131 76.4505 629.792C76.4505 630.453 76.5892 631.029 76.8665 631.52C77.1438 632.011 77.5225 632.395 78.0025 632.672C78.4825 632.939 79.0212 633.072 79.6185 633.072C80.1198 633.072 80.5838 632.971 81.0105 632.768C81.4372 632.565 81.7945 632.256 82.0825 631.84L82.9305 632.416C82.5998 632.96 82.1465 633.376 81.5705 633.664C80.9945 633.941 80.3492 634.08 79.6345 634.08ZM85.3011 637.184C84.9065 637.184 84.5278 637.12 84.1651 636.992C83.8131 636.864 83.5091 636.672 83.2531 636.416L83.7811 635.568C83.9945 635.771 84.2238 635.925 84.4691 636.032C84.7251 636.149 85.0078 636.208 85.3171 636.208C85.6905 636.208 86.0105 636.101 86.2771 635.888C86.5545 635.685 86.8158 635.323 87.0611 634.8L87.6051 633.568L87.7331 633.392L91.1891 625.6H92.3091L88.1011 635.008C87.8665 635.552 87.6051 635.984 87.3171 636.304C87.0398 636.624 86.7358 636.848 86.4051 636.976C86.0745 637.115 85.7065 637.184 85.3011 637.184ZM87.5411 634.24L83.6691 625.6H84.8531L88.2771 633.312L87.5411 634.24ZM98.7365 634V622.8H102.928C103.878 622.8 104.694 622.955 105.376 623.264C106.059 623.563 106.582 624 106.944 624.576C107.318 625.141 107.504 625.829 107.504 626.64C107.504 627.429 107.318 628.112 106.944 628.688C106.582 629.253 106.059 629.691 105.376 630C104.694 630.309 103.878 630.464 102.928 630.464H99.3925L99.9205 629.904V634H98.7365ZM99.9205 630L99.3925 629.424H102.896C104.016 629.424 104.864 629.184 105.44 628.704C106.027 628.213 106.32 627.525 106.32 626.64C106.32 625.744 106.027 625.051 105.44 624.56C104.864 624.069 104.016 623.824 102.896 623.824H99.3925L99.9205 623.264V630ZM113.402 634.08C112.591 634.08 111.86 633.899 111.21 633.536C110.57 633.163 110.063 632.656 109.69 632.016C109.316 631.365 109.13 630.624 109.13 629.792C109.13 628.949 109.316 628.208 109.69 627.568C110.063 626.928 110.57 626.427 111.21 626.064C111.85 625.701 112.58 625.52 113.402 625.52C114.234 625.52 114.97 625.701 115.61 626.064C116.26 626.427 116.767 626.928 117.13 627.568C117.503 628.208 117.69 628.949 117.69 629.792C117.69 630.624 117.503 631.365 117.13 632.016C116.767 632.656 116.26 633.163 115.61 633.536C114.959 633.899 114.223 634.08 113.402 634.08ZM113.402 633.072C114.01 633.072 114.548 632.939 115.018 632.672C115.487 632.395 115.855 632.011 116.122 631.52C116.399 631.019 116.538 630.443 116.538 629.792C116.538 629.131 116.399 628.555 116.122 628.064C115.855 627.573 115.487 627.195 115.018 626.928C114.548 626.651 114.015 626.512 113.418 626.512C112.82 626.512 112.287 626.651 111.818 626.928C111.348 627.195 110.975 627.573 110.698 628.064C110.42 628.555 110.282 629.131 110.282 629.792C110.282 630.443 110.42 631.019 110.698 631.52C110.975 632.011 111.348 632.395 111.818 632.672C112.287 632.939 112.815 633.072 113.402 633.072ZM120.209 634V622.128H121.345V634H120.209ZM124.706 634V625.6H125.842V634H124.706ZM125.282 623.744C125.047 623.744 124.85 623.664 124.69 623.504C124.53 623.344 124.45 623.152 124.45 622.928C124.45 622.704 124.53 622.517 124.69 622.368C124.85 622.208 125.047 622.128 125.282 622.128C125.517 622.128 125.714 622.203 125.874 622.352C126.034 622.501 126.114 622.688 126.114 622.912C126.114 623.147 126.034 623.344 125.874 623.504C125.725 623.664 125.527 623.744 125.282 623.744ZM132.691 634.08C131.859 634.08 131.112 633.899 130.451 633.536C129.8 633.163 129.288 632.656 128.915 632.016C128.541 631.365 128.355 630.624 128.355 629.792C128.355 628.949 128.541 628.208 128.915 627.568C129.288 626.928 129.8 626.427 130.451 626.064C131.112 625.701 131.859 625.52 132.691 625.52C133.405 625.52 134.051 625.659 134.627 625.936C135.203 626.213 135.656 626.629 135.987 627.184L135.139 627.76C134.851 627.333 134.493 627.019 134.067 626.816C133.64 626.613 133.176 626.512 132.675 626.512C132.077 626.512 131.539 626.651 131.059 626.928C130.579 627.195 130.2 627.573 129.923 628.064C129.645 628.555 129.507 629.131 129.507 629.792C129.507 630.453 129.645 631.029 129.923 631.52C130.2 632.011 130.579 632.395 131.059 632.672C131.539 632.939 132.077 633.072 132.675 633.072C133.176 633.072 133.64 632.971 134.067 632.768C134.493 632.565 134.851 632.256 135.139 631.84L135.987 632.416C135.656 632.96 135.203 633.376 134.627 633.664C134.051 633.941 133.405 634.08 132.691 634.08ZM138.357 637.184C137.963 637.184 137.584 637.12 137.221 636.992C136.869 636.864 136.565 636.672 136.309 636.416L136.837 635.568C137.051 635.771 137.28 635.925 137.525 636.032C137.781 636.149 138.064 636.208 138.373 636.208C138.747 636.208 139.067 636.101 139.333 635.888C139.611 635.685 139.872 635.323 140.117 634.8L140.661 633.568L140.789 633.392L144.245 625.6H145.365L141.157 635.008C140.923 635.552 140.661 635.984 140.373 636.304C140.096 636.624 139.792 636.848 139.461 636.976C139.131 637.115 138.763 637.184 138.357 637.184ZM140.597 634.24L136.725 625.6H137.909L141.333 633.312L140.597 634.24Z" fill="white"/>
<path d="M597.791 634.096C596.948 634.096 596.17 633.957 595.455 633.68C594.74 633.392 594.122 632.992 593.599 632.48C593.076 631.968 592.666 631.365 592.367 630.672C592.079 629.979 591.935 629.221 591.935 628.4C591.935 627.579 592.079 626.821 592.367 626.128C592.666 625.435 593.076 624.832 593.599 624.32C594.132 623.808 594.756 623.413 595.471 623.136C596.186 622.848 596.964 622.704 597.807 622.704C598.618 622.704 599.38 622.843 600.095 623.12C600.81 623.387 601.412 623.792 601.903 624.336L601.151 625.088C600.692 624.619 600.186 624.283 599.631 624.08C599.076 623.867 598.479 623.76 597.839 623.76C597.167 623.76 596.543 623.877 595.967 624.112C595.391 624.336 594.89 624.661 594.463 625.088C594.036 625.504 593.7 625.995 593.455 626.56C593.22 627.115 593.103 627.728 593.103 628.4C593.103 629.072 593.22 629.691 593.455 630.256C593.7 630.811 594.036 631.301 594.463 631.728C594.89 632.144 595.391 632.469 595.967 632.704C596.543 632.928 597.167 633.04 597.839 633.04C598.479 633.04 599.076 632.933 599.631 632.72C600.186 632.507 600.692 632.165 601.151 631.696L601.903 632.448C601.412 632.992 600.81 633.403 600.095 633.68C599.38 633.957 598.612 634.096 597.791 634.096ZM607.436 634.08C606.625 634.08 605.895 633.899 605.244 633.536C604.604 633.163 604.097 632.656 603.724 632.016C603.351 631.365 603.164 630.624 603.164 629.792C603.164 628.949 603.351 628.208 603.724 627.568C604.097 626.928 604.604 626.427 605.244 626.064C605.884 625.701 606.615 625.52 607.436 625.52C608.268 625.52 609.004 625.701 609.644 626.064C610.295 626.427 610.801 626.928 611.164 627.568C611.537 628.208 611.724 628.949 611.724 629.792C611.724 630.624 611.537 631.365 611.164 632.016C610.801 632.656 610.295 633.163 609.644 633.536C608.993 633.899 608.257 634.08 607.436 634.08ZM607.436 633.072C608.044 633.072 608.583 632.939 609.052 632.672C609.521 632.395 609.889 632.011 610.156 631.52C610.433 631.019 610.572 630.443 610.572 629.792C610.572 629.131 610.433 628.555 610.156 628.064C609.889 627.573 609.521 627.195 609.052 626.928C608.583 626.651 608.049 626.512 607.452 626.512C606.855 626.512 606.321 626.651 605.852 626.928C605.383 627.195 605.009 627.573 604.732 628.064C604.455 628.555 604.316 629.131 604.316 629.792C604.316 630.443 604.455 631.019 604.732 631.52C605.009 632.011 605.383 632.395 605.852 632.672C606.321 632.939 606.849 633.072 607.436 633.072ZM618.579 634.08C617.854 634.08 617.198 633.915 616.611 633.584C616.025 633.243 615.555 632.757 615.203 632.128C614.862 631.488 614.691 630.709 614.691 629.792C614.691 628.875 614.862 628.101 615.203 627.472C615.545 626.832 616.009 626.347 616.595 626.016C617.182 625.685 617.843 625.52 618.579 625.52C619.379 625.52 620.094 625.701 620.723 626.064C621.363 626.416 621.865 626.917 622.227 627.568C622.59 628.208 622.771 628.949 622.771 629.792C622.771 630.645 622.59 631.392 622.227 632.032C621.865 632.672 621.363 633.173 620.723 633.536C620.094 633.899 619.379 634.08 618.579 634.08ZM614.243 637.104V625.6H615.331V628.128L615.219 629.808L615.379 631.504V637.104H614.243ZM618.499 633.072C619.097 633.072 619.63 632.939 620.099 632.672C620.569 632.395 620.942 632.011 621.219 631.52C621.497 631.019 621.635 630.443 621.635 629.792C621.635 629.141 621.497 628.571 621.219 628.08C620.942 627.589 620.569 627.205 620.099 626.928C619.63 626.651 619.097 626.512 618.499 626.512C617.902 626.512 617.363 626.651 616.883 626.928C616.414 627.205 616.041 627.589 615.763 628.08C615.497 628.571 615.363 629.141 615.363 629.792C615.363 630.443 615.497 631.019 615.763 631.52C616.041 632.011 616.414 632.395 616.883 632.672C617.363 632.939 617.902 633.072 618.499 633.072ZM625.117 637.184C624.722 637.184 624.343 637.12 623.981 636.992C623.629 636.864 623.325 636.672 623.069 636.416L623.597 635.568C623.81 635.771 624.039 635.925 624.285 636.032C624.541 636.149 624.823 636.208 625.133 636.208C625.506 636.208 625.826 636.101 626.093 635.888C626.37 635.685 626.631 635.323 626.877 634.8L627.421 633.568L627.549 633.392L631.005 625.6H632.125L627.917 635.008C627.682 635.552 627.421 635.984 627.133 636.304C626.855 636.624 626.551 636.848 626.221 636.976C625.89 637.115 625.522 637.184 625.117 637.184ZM627.357 634.24L623.485 625.6H624.669L628.093 633.312L627.357 634.24ZM633.925 634V625.6H635.013V627.888L634.901 627.488C635.135 626.848 635.53 626.363 636.085 626.032C636.639 625.691 637.327 625.52 638.149 625.52V626.624C638.106 626.624 638.063 626.624 638.021 626.624C637.978 626.613 637.935 626.608 637.893 626.608C637.007 626.608 636.314 626.88 635.813 627.424C635.311 627.957 635.061 628.72 635.061 629.712V634H633.925ZM640.422 634V625.6H641.558V634H640.422ZM640.998 623.744C640.763 623.744 640.566 623.664 640.406 623.504C640.246 623.344 640.166 623.152 640.166 622.928C640.166 622.704 640.246 622.517 640.406 622.368C640.566 622.208 640.763 622.128 640.998 622.128C641.232 622.128 641.43 622.203 641.59 622.352C641.75 622.501 641.83 622.688 641.83 622.912C641.83 623.147 641.75 623.344 641.59 623.504C641.44 623.664 641.243 623.744 640.998 623.744ZM648.502 637.184C647.734 637.184 646.998 637.072 646.294 636.848C645.59 636.624 645.02 636.304 644.582 635.888L645.158 635.024C645.553 635.376 646.038 635.653 646.614 635.856C647.201 636.069 647.82 636.176 648.47 636.176C649.537 636.176 650.321 635.925 650.822 635.424C651.324 634.933 651.574 634.165 651.574 633.12V631.024L651.734 629.584L651.622 628.144V625.6H652.71V632.976C652.71 634.427 652.353 635.488 651.638 636.16C650.934 636.843 649.889 637.184 648.502 637.184ZM648.294 633.68C647.494 633.68 646.774 633.509 646.134 633.168C645.494 632.816 644.988 632.331 644.614 631.712C644.252 631.093 644.07 630.384 644.07 629.584C644.07 628.784 644.252 628.08 644.614 627.472C644.988 626.853 645.494 626.373 646.134 626.032C646.774 625.691 647.494 625.52 648.294 625.52C649.041 625.52 649.713 625.675 650.31 625.984C650.908 626.293 651.382 626.752 651.734 627.36C652.086 627.968 652.262 628.709 652.262 629.584C652.262 630.459 652.086 631.2 651.734 631.808C651.382 632.416 650.908 632.88 650.31 633.2C649.713 633.52 649.041 633.68 648.294 633.68ZM648.406 632.672C649.025 632.672 649.574 632.544 650.054 632.288C650.534 632.021 650.913 631.659 651.19 631.2C651.468 630.731 651.606 630.192 651.606 629.584C651.606 628.976 651.468 628.443 651.19 627.984C650.913 627.525 650.534 627.168 650.054 626.912C649.574 626.645 649.025 626.512 648.406 626.512C647.798 626.512 647.249 626.645 646.758 626.912C646.278 627.168 645.9 627.525 645.622 627.984C645.356 628.443 645.222 628.976 645.222 629.584C645.222 630.192 645.356 630.731 645.622 631.2C645.9 631.659 646.278 632.021 646.758 632.288C647.249 632.544 647.798 632.672 648.406 632.672ZM660.36 625.52C661.042 625.52 661.64 625.653 662.152 625.92C662.674 626.176 663.08 626.571 663.368 627.104C663.666 627.637 663.816 628.309 663.816 629.12V634H662.68V629.232C662.68 628.347 662.456 627.68 662.008 627.232C661.57 626.773 660.952 626.544 660.152 626.544C659.554 626.544 659.032 626.667 658.584 626.912C658.146 627.147 657.805 627.493 657.56 627.952C657.325 628.4 657.208 628.944 657.208 629.584V634H656.072V622.128H657.208V627.904L656.984 627.472C657.25 626.864 657.677 626.389 658.264 626.048C658.85 625.696 659.549 625.52 660.36 625.52ZM669.74 634.08C668.951 634.08 668.343 633.867 667.916 633.44C667.489 633.013 667.276 632.411 667.276 631.632V623.744H668.412V631.568C668.412 632.059 668.535 632.437 668.78 632.704C669.036 632.971 669.399 633.104 669.868 633.104C670.369 633.104 670.785 632.96 671.116 632.672L671.516 633.488C671.292 633.691 671.02 633.84 670.7 633.936C670.391 634.032 670.071 634.08 669.74 634.08ZM665.772 626.544V625.6H670.972V626.544H665.772ZM677.212 634V633.184L681.868 628.624C682.294 628.208 682.614 627.845 682.828 627.536C683.041 627.216 683.185 626.917 683.26 626.64C683.334 626.363 683.372 626.101 683.372 625.856C683.372 625.205 683.148 624.693 682.7 624.32C682.262 623.947 681.612 623.76 680.748 623.76C680.086 623.76 679.5 623.861 678.988 624.064C678.486 624.267 678.054 624.581 677.692 625.008L676.876 624.304C677.313 623.792 677.873 623.397 678.556 623.12C679.238 622.843 680.001 622.704 680.844 622.704C681.601 622.704 682.257 622.827 682.812 623.072C683.366 623.307 683.793 623.653 684.092 624.112C684.401 624.571 684.556 625.109 684.556 625.728C684.556 626.091 684.502 626.448 684.396 626.8C684.3 627.152 684.118 627.525 683.852 627.92C683.596 628.304 683.217 628.741 682.716 629.232L678.444 633.424L678.124 632.976H685.068V634H677.212ZM691.146 634.096C690.282 634.096 689.514 633.872 688.842 633.424C688.17 632.965 687.642 632.315 687.258 631.472C686.874 630.619 686.682 629.595 686.682 628.4C686.682 627.205 686.874 626.187 687.258 625.344C687.642 624.491 688.17 623.84 688.842 623.392C689.514 622.933 690.282 622.704 691.146 622.704C692.01 622.704 692.778 622.933 693.45 623.392C694.122 623.84 694.65 624.491 695.034 625.344C695.429 626.187 695.626 627.205 695.626 628.4C695.626 629.595 695.429 630.619 695.034 631.472C694.65 632.315 694.122 632.965 693.45 633.424C692.778 633.872 692.01 634.096 691.146 634.096ZM691.146 633.04C691.807 633.04 692.383 632.864 692.874 632.512C693.365 632.149 693.749 631.627 694.026 630.944C694.303 630.251 694.442 629.403 694.442 628.4C694.442 627.397 694.303 626.555 694.026 625.872C693.749 625.179 693.365 624.656 692.874 624.304C692.383 623.941 691.807 623.76 691.146 623.76C690.506 623.76 689.935 623.941 689.434 624.304C688.933 624.656 688.543 625.179 688.266 625.872C687.989 626.555 687.85 627.397 687.85 628.4C687.85 629.403 687.989 630.251 688.266 630.944C688.543 631.627 688.933 632.149 689.434 632.512C689.935 632.864 690.506 633.04 691.146 633.04ZM697.268 634V633.184L701.924 628.624C702.35 628.208 702.67 627.845 702.884 627.536C703.097 627.216 703.241 626.917 703.316 626.64C703.39 626.363 703.428 626.101 703.428 625.856C703.428 625.205 703.204 624.693 702.756 624.32C702.318 623.947 701.668 623.76 700.804 623.76C700.142 623.76 699.556 623.861 699.044 624.064C698.542 624.267 698.11 624.581 697.748 625.008L696.932 624.304C697.369 623.792 697.929 623.397 698.612 623.12C699.294 622.843 700.057 622.704 700.9 622.704C701.657 622.704 702.313 622.827 702.868 623.072C703.422 623.307 703.849 623.653 704.148 624.112C704.457 624.571 704.612 625.109 704.612 625.728C704.612 626.091 704.558 626.448 704.452 626.8C704.356 627.152 704.174 627.525 703.908 627.92C703.652 628.304 703.273 628.741 702.772 629.232L698.5 633.424L698.18 632.976H705.124V634H697.268ZM710.306 634.096C709.506 634.096 708.743 633.968 708.018 633.712C707.292 633.445 706.716 633.093 706.29 632.656L706.85 631.744C707.202 632.117 707.682 632.427 708.289 632.672C708.908 632.917 709.575 633.04 710.29 633.04C711.239 633.04 711.959 632.832 712.45 632.416C712.951 631.989 713.202 631.435 713.202 630.752C713.202 630.272 713.084 629.861 712.85 629.52C712.626 629.168 712.242 628.896 711.698 628.704C711.154 628.512 710.407 628.416 709.458 628.416H707.074L707.65 622.8H713.778V623.824H708.114L708.706 623.264L708.21 627.968L707.618 627.392H709.714C710.844 627.392 711.751 627.531 712.434 627.808C713.116 628.085 713.607 628.475 713.906 628.976C714.215 629.467 714.37 630.043 714.37 630.704C714.37 631.333 714.22 631.909 713.922 632.432C713.623 632.944 713.175 633.349 712.578 633.648C711.98 633.947 711.223 634.096 710.306 634.096Z" fill="white"/>
<path d="M223.041 512.809C222.198 512.809 221.419 512.671 220.705 512.393C219.99 512.105 219.371 511.705 218.849 511.193C218.326 510.681 217.915 510.079 217.617 509.385C217.329 508.692 217.185 507.935 217.185 507.113C217.185 506.292 217.329 505.535 217.617 504.841C217.915 504.148 218.326 503.545 218.849 503.033C219.382 502.521 220.006 502.127 220.721 501.849C221.435 501.561 222.214 501.417 223.057 501.417C223.867 501.417 224.63 501.556 225.345 501.833C226.059 502.1 226.662 502.505 227.153 503.049L226.401 503.801C225.942 503.332 225.435 502.996 224.881 502.793C224.326 502.58 223.729 502.473 223.089 502.473C222.417 502.473 221.793 502.591 221.217 502.825C220.641 503.049 220.139 503.375 219.713 503.801C219.286 504.217 218.95 504.708 218.705 505.273C218.47 505.828 218.353 506.441 218.353 507.113C218.353 507.785 218.47 508.404 218.705 508.969C218.95 509.524 219.286 510.015 219.713 510.441C220.139 510.857 220.641 511.183 221.217 511.417C221.793 511.641 222.417 511.753 223.089 511.753C223.729 511.753 224.326 511.647 224.881 511.433C225.435 511.22 225.942 510.879 226.401 510.409L227.153 511.161C226.662 511.705 226.059 512.116 225.345 512.393C224.63 512.671 223.862 512.809 223.041 512.809ZM229.597 512.713V504.313H230.685V506.601L230.573 506.201C230.807 505.561 231.202 505.076 231.757 504.745C232.311 504.404 232.999 504.233 233.821 504.233V505.337C233.778 505.337 233.735 505.337 233.693 505.337C233.65 505.327 233.607 505.321 233.565 505.321C232.679 505.321 231.986 505.593 231.485 506.137C230.983 506.671 230.733 507.433 230.733 508.425V512.713H229.597ZM239.543 512.793C238.669 512.793 237.901 512.612 237.239 512.249C236.578 511.876 236.061 511.369 235.687 510.729C235.314 510.079 235.127 509.337 235.127 508.505C235.127 507.673 235.303 506.937 235.655 506.297C236.018 505.657 236.509 505.156 237.127 504.793C237.757 504.42 238.461 504.233 239.239 504.233C240.029 504.233 240.727 504.415 241.335 504.777C241.954 505.129 242.439 505.631 242.791 506.281C243.143 506.921 243.319 507.663 243.319 508.505C243.319 508.559 243.314 508.617 243.303 508.681C243.303 508.735 243.303 508.793 243.303 508.857H235.991V508.009H242.695L242.247 508.345C242.247 507.737 242.114 507.199 241.847 506.729C241.591 506.249 241.239 505.876 240.791 505.609C240.343 505.343 239.826 505.209 239.239 505.209C238.663 505.209 238.146 505.343 237.687 505.609C237.229 505.876 236.871 506.249 236.615 506.729C236.359 507.209 236.231 507.759 236.231 508.377V508.553C236.231 509.193 236.37 509.759 236.647 510.249C236.935 510.729 237.33 511.108 237.831 511.385C238.343 511.652 238.925 511.785 239.575 511.785C240.087 511.785 240.562 511.695 240.999 511.513C241.447 511.332 241.831 511.055 242.151 510.681L242.791 511.417C242.418 511.865 241.949 512.207 241.383 512.441C240.829 512.676 240.215 512.793 239.543 512.793ZM250.821 512.713V510.857L250.773 510.553V507.449C250.773 506.735 250.57 506.185 250.165 505.801C249.77 505.417 249.178 505.225 248.389 505.225C247.845 505.225 247.328 505.316 246.837 505.497C246.346 505.679 245.93 505.919 245.589 506.217L245.077 505.369C245.504 505.007 246.016 504.729 246.613 504.537C247.21 504.335 247.84 504.233 248.501 504.233C249.589 504.233 250.426 504.505 251.013 505.049C251.61 505.583 251.909 506.399 251.909 507.497V512.713H250.821ZM247.925 512.793C247.296 512.793 246.746 512.692 246.277 512.489C245.818 512.276 245.466 511.988 245.221 511.625C244.976 511.252 244.853 510.825 244.853 510.345C244.853 509.908 244.954 509.513 245.157 509.161C245.37 508.799 245.712 508.511 246.181 508.297C246.661 508.073 247.301 507.961 248.101 507.961H250.997V508.809H248.133C247.322 508.809 246.757 508.953 246.437 509.241C246.128 509.529 245.973 509.887 245.973 510.313C245.973 510.793 246.16 511.177 246.533 511.465C246.906 511.753 247.429 511.897 248.101 511.897C248.741 511.897 249.29 511.753 249.749 511.465C250.218 511.167 250.56 510.74 250.773 510.185L251.029 510.969C250.816 511.524 250.442 511.967 249.909 512.297C249.386 512.628 248.725 512.793 247.925 512.793ZM257.811 512.793C257.021 512.793 256.413 512.58 255.987 512.153C255.56 511.727 255.347 511.124 255.347 510.345V502.457H256.483V510.281C256.483 510.772 256.605 511.151 256.851 511.417C257.107 511.684 257.469 511.817 257.939 511.817C258.44 511.817 258.856 511.673 259.187 511.385L259.587 512.201C259.363 512.404 259.091 512.553 258.771 512.649C258.461 512.745 258.141 512.793 257.811 512.793ZM253.843 505.257V504.313H259.043V505.257H253.843ZM265.086 512.793C264.211 512.793 263.443 512.612 262.782 512.249C262.12 511.876 261.603 511.369 261.23 510.729C260.856 510.079 260.67 509.337 260.67 508.505C260.67 507.673 260.846 506.937 261.198 506.297C261.56 505.657 262.051 505.156 262.67 504.793C263.299 504.42 264.003 504.233 264.782 504.233C265.571 504.233 266.27 504.415 266.878 504.777C267.496 505.129 267.982 505.631 268.334 506.281C268.686 506.921 268.862 507.663 268.862 508.505C268.862 508.559 268.856 508.617 268.846 508.681C268.846 508.735 268.846 508.793 268.846 508.857H261.534V508.009H268.238L267.79 508.345C267.79 507.737 267.656 507.199 267.39 506.729C267.134 506.249 266.782 505.876 266.334 505.609C265.886 505.343 265.368 505.209 264.782 505.209C264.206 505.209 263.688 505.343 263.23 505.609C262.771 505.876 262.414 506.249 262.158 506.729C261.902 507.209 261.774 507.759 261.774 508.377V508.553C261.774 509.193 261.912 509.759 262.19 510.249C262.478 510.729 262.872 511.108 263.374 511.385C263.886 511.652 264.467 511.785 265.118 511.785C265.63 511.785 266.104 511.695 266.542 511.513C266.99 511.332 267.374 511.055 267.694 510.681L268.334 511.417C267.96 511.865 267.491 512.207 266.926 512.441C266.371 512.676 265.758 512.793 265.086 512.793ZM274.13 512.713L279.25 501.513H280.418L285.538 512.713H284.29L279.586 502.201H280.066L275.362 512.713H274.13ZM276.146 509.721L276.498 508.761H283.01L283.362 509.721H276.146ZM291.898 512.713V501.513H292.874L300.602 511.241H300.09V501.513H301.258V512.713H300.282L292.57 502.985H293.082V512.713H291.898ZM308.401 512.793C307.527 512.793 306.759 512.612 306.097 512.249C305.436 511.876 304.919 511.369 304.545 510.729C304.172 510.079 303.985 509.337 303.985 508.505C303.985 507.673 304.161 506.937 304.513 506.297C304.876 505.657 305.367 505.156 305.985 504.793C306.615 504.42 307.319 504.233 308.097 504.233C308.887 504.233 309.585 504.415 310.193 504.777C310.812 505.129 311.297 505.631 311.649 506.281C312.001 506.921 312.177 507.663 312.177 508.505C312.177 508.559 312.172 508.617 312.161 508.681C312.161 508.735 312.161 508.793 312.161 508.857H304.849V508.009H311.553L311.105 508.345C311.105 507.737 310.972 507.199 310.705 506.729C310.449 506.249 310.097 505.876 309.649 505.609C309.201 505.343 308.684 505.209 308.097 505.209C307.521 505.209 307.004 505.343 306.545 505.609C306.087 505.876 305.729 506.249 305.473 506.729C305.217 507.209 305.089 507.759 305.089 508.377V508.553C305.089 509.193 305.228 509.759 305.505 510.249C305.793 510.729 306.188 511.108 306.689 511.385C307.201 511.652 307.783 511.785 308.433 511.785C308.945 511.785 309.42 511.695 309.857 511.513C310.305 511.332 310.689 511.055 311.009 510.681L311.649 511.417C311.276 511.865 310.807 512.207 310.241 512.441C309.687 512.676 309.073 512.793 308.401 512.793ZM316.205 512.713L313.037 504.313H314.125L317.005 512.105H316.509L319.469 504.313H320.445L323.373 512.105H322.877L325.805 504.313H326.845L323.661 512.713H322.589L319.773 505.385H320.109L317.277 512.713H316.205ZM331.511 512.713L336.631 501.513H337.799L342.919 512.713H341.671L336.967 502.201H337.447L332.743 512.713H331.511ZM333.527 509.721L333.879 508.761H340.391L340.743 509.721H333.527ZM348.102 512.793C347.27 512.793 346.523 512.612 345.862 512.249C345.211 511.876 344.699 511.369 344.326 510.729C343.953 510.079 343.766 509.337 343.766 508.505C343.766 507.663 343.953 506.921 344.326 506.281C344.699 505.641 345.211 505.14 345.862 504.777C346.523 504.415 347.27 504.233 348.102 504.233C348.817 504.233 349.462 504.372 350.038 504.649C350.614 504.927 351.067 505.343 351.398 505.897L350.55 506.473C350.262 506.047 349.905 505.732 349.478 505.529C349.051 505.327 348.587 505.225 348.086 505.225C347.489 505.225 346.95 505.364 346.47 505.641C345.99 505.908 345.611 506.287 345.334 506.777C345.057 507.268 344.918 507.844 344.918 508.505C344.918 509.167 345.057 509.743 345.334 510.233C345.611 510.724 345.99 511.108 346.47 511.385C346.95 511.652 347.489 511.785 348.086 511.785C348.587 511.785 349.051 511.684 349.478 511.481C349.905 511.279 350.262 510.969 350.55 510.553L351.398 511.129C351.067 511.673 350.614 512.089 350.038 512.377C349.462 512.655 348.817 512.793 348.102 512.793ZM357.137 512.793C356.305 512.793 355.558 512.612 354.897 512.249C354.246 511.876 353.734 511.369 353.361 510.729C352.988 510.079 352.801 509.337 352.801 508.505C352.801 507.663 352.988 506.921 353.361 506.281C353.734 505.641 354.246 505.14 354.897 504.777C355.558 504.415 356.305 504.233 357.137 504.233C357.852 504.233 358.497 504.372 359.073 504.649C359.649 504.927 360.102 505.343 360.433 505.897L359.585 506.473C359.297 506.047 358.94 505.732 358.513 505.529C358.086 505.327 357.622 505.225 357.121 505.225C356.524 505.225 355.985 505.364 355.505 505.641C355.025 505.908 354.646 506.287 354.369 506.777C354.092 507.268 353.953 507.844 353.953 508.505C353.953 509.167 354.092 509.743 354.369 510.233C354.646 510.724 355.025 511.108 355.505 511.385C355.985 511.652 356.524 511.785 357.121 511.785C357.622 511.785 358.086 511.684 358.513 511.481C358.94 511.279 359.297 510.969 359.585 510.553L360.433 511.129C360.102 511.673 359.649 512.089 359.073 512.377C358.497 512.655 357.852 512.793 357.137 512.793ZM366.108 512.793C365.297 512.793 364.567 512.612 363.916 512.249C363.276 511.876 362.769 511.369 362.396 510.729C362.023 510.079 361.836 509.337 361.836 508.505C361.836 507.663 362.023 506.921 362.396 506.281C362.769 505.641 363.276 505.14 363.916 504.777C364.556 504.415 365.287 504.233 366.108 504.233C366.94 504.233 367.676 504.415 368.316 504.777C368.967 505.14 369.473 505.641 369.836 506.281C370.209 506.921 370.396 507.663 370.396 508.505C370.396 509.337 370.209 510.079 369.836 510.729C369.473 511.369 368.967 511.876 368.316 512.249C367.665 512.612 366.929 512.793 366.108 512.793ZM366.108 511.785C366.716 511.785 367.255 511.652 367.724 511.385C368.193 511.108 368.561 510.724 368.828 510.233C369.105 509.732 369.244 509.156 369.244 508.505C369.244 507.844 369.105 507.268 368.828 506.777C368.561 506.287 368.193 505.908 367.724 505.641C367.255 505.364 366.721 505.225 366.124 505.225C365.527 505.225 364.993 505.364 364.524 505.641C364.055 505.908 363.681 506.287 363.404 506.777C363.127 507.268 362.988 507.844 362.988 508.505C362.988 509.156 363.127 509.732 363.404 510.233C363.681 510.724 364.055 511.108 364.524 511.385C364.993 511.652 365.521 511.785 366.108 511.785ZM376.347 512.793C375.633 512.793 375.009 512.66 374.475 512.393C373.942 512.127 373.526 511.727 373.227 511.193C372.939 510.66 372.795 509.993 372.795 509.193V504.313H373.931V509.065C373.931 509.961 374.15 510.639 374.587 511.097C375.035 511.545 375.659 511.769 376.459 511.769C377.046 511.769 377.553 511.652 377.979 511.417C378.417 511.172 378.747 510.82 378.971 510.361C379.206 509.903 379.323 509.353 379.323 508.713V504.313H380.459V512.713H379.371V510.409L379.547 510.825C379.281 511.444 378.865 511.929 378.299 512.281C377.745 512.623 377.094 512.793 376.347 512.793ZM388.073 504.233C388.756 504.233 389.353 504.367 389.865 504.633C390.388 504.889 390.793 505.284 391.081 505.817C391.38 506.351 391.529 507.023 391.529 507.833V512.713H390.393V507.945C390.393 507.06 390.169 506.393 389.721 505.945C389.284 505.487 388.665 505.257 387.865 505.257C387.268 505.257 386.745 505.38 386.297 505.625C385.86 505.86 385.519 506.207 385.273 506.665C385.039 507.113 384.921 507.657 384.921 508.297V512.713H383.785V504.313H384.873V506.617L384.697 506.185C384.964 505.577 385.391 505.103 385.977 504.761C386.564 504.409 387.263 504.233 388.073 504.233ZM397.414 512.793C396.624 512.793 396.016 512.58 395.59 512.153C395.163 511.727 394.95 511.124 394.95 510.345V502.457H396.086V510.281C396.086 510.772 396.208 511.151 396.454 511.417C396.71 511.684 397.072 511.817 397.542 511.817C398.043 511.817 398.459 511.673 398.79 511.385L399.19 512.201C398.966 512.404 398.694 512.553 398.374 512.649C398.064 512.745 397.744 512.793 397.414 512.793ZM393.446 505.257V504.313H398.646V505.257H393.446ZM403.313 509.353C403.313 508.905 403.382 508.521 403.521 508.201C403.67 507.881 403.851 507.599 404.065 507.353C404.289 507.108 404.523 506.879 404.769 506.665C405.025 506.452 405.265 506.239 405.489 506.025C405.713 505.801 405.894 505.561 406.033 505.305C406.171 505.039 406.241 504.729 406.241 504.377C406.241 503.801 406.017 503.332 405.569 502.969C405.121 502.607 404.486 502.425 403.665 502.425C402.982 502.425 402.39 502.537 401.889 502.761C401.387 502.975 400.961 503.295 400.609 503.721L399.761 503.081C400.187 502.548 400.737 502.137 401.409 501.849C402.081 501.561 402.859 501.417 403.745 501.417C404.491 501.417 405.137 501.529 405.681 501.753C406.235 501.977 406.662 502.297 406.961 502.713C407.27 503.129 407.425 503.625 407.425 504.201C407.425 504.66 407.35 505.055 407.201 505.385C407.062 505.705 406.881 505.993 406.657 506.249C406.443 506.495 406.209 506.729 405.953 506.953C405.707 507.167 405.473 507.385 405.249 507.609C405.025 507.833 404.843 508.084 404.705 508.361C404.566 508.639 404.497 508.969 404.497 509.353H403.313ZM403.905 512.793C403.681 512.793 403.483 512.713 403.313 512.553C403.153 512.383 403.073 512.185 403.073 511.961C403.073 511.727 403.153 511.535 403.313 511.385C403.483 511.225 403.681 511.145 403.905 511.145C404.15 511.145 404.353 511.225 404.513 511.385C404.673 511.535 404.753 511.727 404.753 511.961C404.753 512.185 404.673 512.383 404.513 512.553C404.353 512.713 404.15 512.793 403.905 512.793Z" fill="white"/>
<path d="M418.05 512.809C417.218 512.809 416.418 512.676 415.65 512.409C414.893 512.132 414.306 511.78 413.89 511.353L414.354 510.441C414.749 510.825 415.277 511.151 415.938 511.417C416.61 511.673 417.314 511.801 418.05 511.801C418.754 511.801 419.325 511.716 419.762 511.545C420.21 511.364 420.536 511.124 420.738 510.825C420.952 510.527 421.058 510.196 421.058 509.833C421.058 509.396 420.93 509.044 420.674 508.777C420.429 508.511 420.104 508.303 419.698 508.153C419.293 507.993 418.845 507.855 418.354 507.737C417.864 507.62 417.373 507.497 416.882 507.369C416.392 507.231 415.938 507.049 415.522 506.825C415.117 506.601 414.786 506.308 414.53 505.945C414.285 505.572 414.162 505.087 414.162 504.489C414.162 503.935 414.306 503.428 414.594 502.969C414.893 502.5 415.346 502.127 415.954 501.849C416.562 501.561 417.341 501.417 418.29 501.417C418.92 501.417 419.544 501.508 420.162 501.689C420.781 501.86 421.314 502.1 421.762 502.409L421.362 503.353C420.882 503.033 420.37 502.799 419.826 502.649C419.293 502.5 418.776 502.425 418.274 502.425C417.602 502.425 417.048 502.516 416.61 502.697C416.173 502.879 415.848 503.124 415.634 503.433C415.432 503.732 415.33 504.073 415.33 504.457C415.33 504.895 415.453 505.247 415.698 505.513C415.954 505.78 416.285 505.988 416.69 506.137C417.106 506.287 417.56 506.42 418.05 506.537C418.541 506.655 419.026 506.783 419.506 506.921C419.997 507.06 420.445 507.241 420.85 507.465C421.266 507.679 421.597 507.967 421.842 508.329C422.098 508.692 422.226 509.167 422.226 509.753C422.226 510.297 422.077 510.804 421.778 511.273C421.48 511.732 421.021 512.105 420.402 512.393C419.794 512.671 419.01 512.809 418.05 512.809ZM424.726 512.713V504.313H425.862V512.713H424.726ZM425.302 502.457C425.067 502.457 424.87 502.377 424.71 502.217C424.55 502.057 424.47 501.865 424.47 501.641C424.47 501.417 424.55 501.231 424.71 501.081C424.87 500.921 425.067 500.841 425.302 500.841C425.537 500.841 425.734 500.916 425.894 501.065C426.054 501.215 426.134 501.401 426.134 501.625C426.134 501.86 426.054 502.057 425.894 502.217C425.745 502.377 425.547 502.457 425.302 502.457ZM432.767 515.897C431.999 515.897 431.263 515.785 430.559 515.561C429.855 515.337 429.284 515.017 428.847 514.601L429.423 513.737C429.817 514.089 430.303 514.367 430.879 514.569C431.465 514.783 432.084 514.889 432.735 514.889C433.801 514.889 434.585 514.639 435.087 514.137C435.588 513.647 435.839 512.879 435.839 511.833V509.737L435.999 508.297L435.887 506.857V504.313H436.975V511.689C436.975 513.14 436.617 514.201 435.903 514.873C435.199 515.556 434.153 515.897 432.767 515.897ZM432.559 512.393C431.759 512.393 431.039 512.223 430.399 511.881C429.759 511.529 429.252 511.044 428.879 510.425C428.516 509.807 428.335 509.097 428.335 508.297C428.335 507.497 428.516 506.793 428.879 506.185C429.252 505.567 429.759 505.087 430.399 504.745C431.039 504.404 431.759 504.233 432.559 504.233C433.305 504.233 433.977 504.388 434.575 504.697C435.172 505.007 435.647 505.465 435.999 506.073C436.351 506.681 436.527 507.423 436.527 508.297C436.527 509.172 436.351 509.913 435.999 510.521C435.647 511.129 435.172 511.593 434.575 511.913C433.977 512.233 433.305 512.393 432.559 512.393ZM432.671 511.385C433.289 511.385 433.839 511.257 434.319 511.001C434.799 510.735 435.177 510.372 435.455 509.913C435.732 509.444 435.871 508.905 435.871 508.297C435.871 507.689 435.732 507.156 435.455 506.697C435.177 506.239 434.799 505.881 434.319 505.625C433.839 505.359 433.289 505.225 432.671 505.225C432.063 505.225 431.513 505.359 431.023 505.625C430.543 505.881 430.164 506.239 429.887 506.697C429.62 507.156 429.487 507.689 429.487 508.297C429.487 508.905 429.62 509.444 429.887 509.913C430.164 510.372 430.543 510.735 431.023 511.001C431.513 511.257 432.063 511.385 432.671 511.385ZM444.584 504.233C445.267 504.233 445.864 504.367 446.376 504.633C446.899 504.889 447.304 505.284 447.592 505.817C447.891 506.351 448.04 507.023 448.04 507.833V512.713H446.904V507.945C446.904 507.06 446.68 506.393 446.232 505.945C445.795 505.487 445.176 505.257 444.376 505.257C443.779 505.257 443.256 505.38 442.808 505.625C442.371 505.86 442.029 506.207 441.784 506.665C441.549 507.113 441.432 507.657 441.432 508.297V512.713H440.296V504.313H441.384V506.617L441.208 506.185C441.475 505.577 441.901 505.103 442.488 504.761C443.075 504.409 443.773 504.233 444.584 504.233ZM460.368 512.809C458.939 512.809 457.813 512.399 456.992 511.577C456.171 510.756 455.76 509.54 455.76 507.929V501.513H456.944V507.881C456.944 509.204 457.243 510.18 457.84 510.809C458.437 511.439 459.28 511.753 460.368 511.753C461.467 511.753 462.315 511.439 462.912 510.809C463.509 510.18 463.808 509.204 463.808 507.881V501.513H464.96V507.929C464.96 509.54 464.549 510.756 463.728 511.577C462.917 512.399 461.797 512.809 460.368 512.809ZM472.784 512.793C472.058 512.793 471.402 512.628 470.816 512.297C470.229 511.956 469.76 511.471 469.408 510.841C469.066 510.201 468.896 509.423 468.896 508.505C468.896 507.588 469.066 506.815 469.408 506.185C469.749 505.545 470.213 505.06 470.8 504.729C471.386 504.399 472.048 504.233 472.784 504.233C473.584 504.233 474.298 504.415 474.928 504.777C475.568 505.129 476.069 505.631 476.432 506.281C476.794 506.921 476.976 507.663 476.976 508.505C476.976 509.359 476.794 510.105 476.432 510.745C476.069 511.385 475.568 511.887 474.928 512.249C474.298 512.612 473.584 512.793 472.784 512.793ZM468.448 515.817V504.313H469.536V506.841L469.424 508.521L469.584 510.217V515.817H468.448ZM472.704 511.785C473.301 511.785 473.834 511.652 474.304 511.385C474.773 511.108 475.146 510.724 475.424 510.233C475.701 509.732 475.84 509.156 475.84 508.505C475.84 507.855 475.701 507.284 475.424 506.793C475.146 506.303 474.773 505.919 474.304 505.641C473.834 505.364 473.301 505.225 472.704 505.225C472.106 505.225 471.568 505.364 471.088 505.641C470.618 505.919 470.245 506.303 469.968 506.793C469.701 507.284 469.568 507.855 469.568 508.505C469.568 509.156 469.701 509.732 469.968 510.233C470.245 510.724 470.618 511.108 471.088 511.385C471.568 511.652 472.106 511.785 472.704 511.785Z" fill="#CA529A"/>
<rect x="183" y="398.88" width="382.441" height="74.4871" rx="15.5645" fill="white"/>
<path d="M342.541 439.53C341.645 439.53 340.787 439.413 339.965 439.178C339.144 438.933 338.483 438.618 337.981 438.234L338.861 436.282C339.341 436.623 339.907 436.906 340.557 437.13C341.219 437.343 341.885 437.45 342.557 437.45C343.069 437.45 343.48 437.402 343.789 437.306C344.109 437.199 344.344 437.055 344.493 436.874C344.643 436.693 344.717 436.485 344.717 436.25C344.717 435.951 344.6 435.717 344.365 435.546C344.131 435.365 343.821 435.221 343.437 435.114C343.053 434.997 342.627 434.89 342.157 434.794C341.699 434.687 341.235 434.559 340.765 434.41C340.307 434.261 339.885 434.069 339.501 433.834C339.117 433.599 338.803 433.29 338.557 432.906C338.323 432.522 338.205 432.031 338.205 431.434C338.205 430.794 338.376 430.213 338.717 429.69C339.069 429.157 339.592 428.735 340.285 428.426C340.989 428.106 341.869 427.946 342.925 427.946C343.629 427.946 344.323 428.031 345.005 428.202C345.688 428.362 346.291 428.607 346.813 428.938L346.013 430.906C345.491 430.607 344.968 430.389 344.445 430.25C343.923 430.101 343.411 430.026 342.909 430.026C342.408 430.026 341.997 430.085 341.677 430.202C341.357 430.319 341.128 430.474 340.989 430.666C340.851 430.847 340.781 431.061 340.781 431.306C340.781 431.594 340.899 431.829 341.133 432.01C341.368 432.181 341.677 432.319 342.061 432.426C342.445 432.533 342.867 432.639 343.325 432.746C343.795 432.853 344.259 432.975 344.717 433.114C345.187 433.253 345.613 433.439 345.997 433.674C346.381 433.909 346.691 434.218 346.925 434.602C347.171 434.986 347.293 435.471 347.293 436.058C347.293 436.687 347.117 437.263 346.765 437.786C346.413 438.309 345.885 438.73 345.181 439.05C344.488 439.37 343.608 439.53 342.541 439.53ZM349.544 439.338V428.138H352.136V439.338H349.544ZM360.682 439.53C359.797 439.53 358.981 439.391 358.234 439.114C357.498 438.826 356.853 438.421 356.298 437.898C355.754 437.375 355.328 436.762 355.018 436.058C354.72 435.354 354.57 434.581 354.57 433.738C354.57 432.895 354.72 432.122 355.018 431.418C355.328 430.714 355.76 430.101 356.314 429.578C356.869 429.055 357.52 428.655 358.266 428.378C359.013 428.09 359.834 427.946 360.73 427.946C361.722 427.946 362.613 428.111 363.402 428.442C364.202 428.773 364.874 429.253 365.418 429.882L363.754 431.418C363.349 430.991 362.906 430.677 362.426 430.474C361.946 430.261 361.424 430.154 360.858 430.154C360.314 430.154 359.818 430.239 359.37 430.41C358.922 430.581 358.533 430.826 358.202 431.146C357.882 431.466 357.632 431.845 357.45 432.282C357.28 432.719 357.194 433.205 357.194 433.738C357.194 434.261 357.28 434.741 357.45 435.178C357.632 435.615 357.882 435.999 358.202 436.33C358.533 436.65 358.917 436.895 359.354 437.066C359.802 437.237 360.293 437.322 360.826 437.322C361.338 437.322 361.834 437.242 362.314 437.082C362.805 436.911 363.28 436.629 363.738 436.234L365.21 438.106C364.602 438.565 363.893 438.917 363.082 439.162C362.282 439.407 361.482 439.53 360.682 439.53ZM362.842 437.77V433.562H365.21V438.106L362.842 437.77ZM368.098 439.338V428.138H370.242L376.85 436.202H375.81V428.138H378.37V439.338H376.242L369.618 431.274H370.658V439.338H368.098ZM386.511 439.338V428.138H389.103V439.338H386.511ZM392.241 439.338V428.138H394.385L400.993 436.202H399.953V428.138H402.513V439.338H400.385L393.761 431.274H394.801V439.338H392.241Z" fill="#CA529A"/>
<rect x="184.111" y="285.481" width="382.441" height="74.4871" rx="14.2748" fill="#F5F5F5"/>
<g opacity="0.36">
<path d="M264.869 325.94V314.74H269.061C270.01 314.74 270.826 314.894 271.509 315.204C272.192 315.502 272.714 315.94 273.077 316.516C273.45 317.081 273.637 317.769 273.637 318.58C273.637 319.369 273.45 320.052 273.077 320.628C272.714 321.193 272.192 321.63 271.509 321.94C270.826 322.249 270.01 322.404 269.061 322.404H265.525L266.053 321.844V325.94H264.869ZM266.053 321.94L265.525 321.364H269.029C270.149 321.364 270.997 321.124 271.573 320.644C272.16 320.153 272.453 319.465 272.453 318.58C272.453 317.684 272.16 316.99 271.573 316.5C270.997 316.009 270.149 315.764 269.029 315.764H265.525L266.053 315.204V321.94ZM273.843 325.94L278.963 314.74H280.131L285.251 325.94H284.003L279.299 315.428H279.779L275.075 325.94H273.843ZM275.859 322.948L276.211 321.988H282.723L283.075 322.948H275.859ZM290.191 326.036C289.359 326.036 288.559 325.902 287.791 325.636C287.034 325.358 286.447 325.006 286.031 324.58L286.495 323.668C286.89 324.052 287.418 324.377 288.079 324.644C288.751 324.9 289.455 325.028 290.191 325.028C290.895 325.028 291.466 324.942 291.903 324.772C292.351 324.59 292.677 324.35 292.879 324.052C293.093 323.753 293.199 323.422 293.199 323.06C293.199 322.622 293.071 322.27 292.815 322.004C292.57 321.737 292.245 321.529 291.839 321.38C291.434 321.22 290.986 321.081 290.495 320.964C290.005 320.846 289.514 320.724 289.023 320.596C288.533 320.457 288.079 320.276 287.663 320.052C287.258 319.828 286.927 319.534 286.671 319.172C286.426 318.798 286.303 318.313 286.303 317.716C286.303 317.161 286.447 316.654 286.735 316.196C287.034 315.726 287.487 315.353 288.095 315.076C288.703 314.788 289.482 314.644 290.431 314.644C291.061 314.644 291.685 314.734 292.303 314.916C292.922 315.086 293.455 315.326 293.903 315.636L293.503 316.58C293.023 316.26 292.511 316.025 291.967 315.876C291.434 315.726 290.917 315.652 290.415 315.652C289.743 315.652 289.189 315.742 288.751 315.924C288.314 316.105 287.989 316.35 287.775 316.66C287.573 316.958 287.471 317.3 287.471 317.684C287.471 318.121 287.594 318.473 287.839 318.74C288.095 319.006 288.426 319.214 288.831 319.364C289.247 319.513 289.701 319.646 290.191 319.764C290.682 319.881 291.167 320.009 291.647 320.148C292.138 320.286 292.586 320.468 292.991 320.692C293.407 320.905 293.738 321.193 293.983 321.556C294.239 321.918 294.367 322.393 294.367 322.98C294.367 323.524 294.218 324.03 293.919 324.5C293.621 324.958 293.162 325.332 292.543 325.62C291.935 325.897 291.151 326.036 290.191 326.036ZM300.035 326.036C299.203 326.036 298.403 325.902 297.635 325.636C296.878 325.358 296.291 325.006 295.875 324.58L296.339 323.668C296.734 324.052 297.262 324.377 297.923 324.644C298.595 324.9 299.299 325.028 300.035 325.028C300.739 325.028 301.31 324.942 301.747 324.772C302.195 324.59 302.52 324.35 302.723 324.052C302.936 323.753 303.043 323.422 303.043 323.06C303.043 322.622 302.915 322.27 302.659 322.004C302.414 321.737 302.088 321.529 301.683 321.38C301.278 321.22 300.83 321.081 300.339 320.964C299.848 320.846 299.358 320.724 298.867 320.596C298.376 320.457 297.923 320.276 297.507 320.052C297.102 319.828 296.771 319.534 296.515 319.172C296.27 318.798 296.147 318.313 296.147 317.716C296.147 317.161 296.291 316.654 296.579 316.196C296.878 315.726 297.331 315.353 297.939 315.076C298.547 314.788 299.326 314.644 300.275 314.644C300.904 314.644 301.528 314.734 302.147 314.916C302.766 315.086 303.299 315.326 303.747 315.636L303.347 316.58C302.867 316.26 302.355 316.025 301.811 315.876C301.278 315.726 300.76 315.652 300.259 315.652C299.587 315.652 299.032 315.742 298.595 315.924C298.158 316.105 297.832 316.35 297.619 316.66C297.416 316.958 297.315 317.3 297.315 317.684C297.315 318.121 297.438 318.473 297.683 318.74C297.939 319.006 298.27 319.214 298.675 319.364C299.091 319.513 299.544 319.646 300.035 319.764C300.526 319.881 301.011 320.009 301.491 320.148C301.982 320.286 302.43 320.468 302.835 320.692C303.251 320.905 303.582 321.193 303.827 321.556C304.083 321.918 304.211 322.393 304.211 322.98C304.211 323.524 304.062 324.03 303.763 324.5C303.464 324.958 303.006 325.332 302.387 325.62C301.779 325.897 300.995 326.036 300.035 326.036ZM309.335 325.94L305.559 314.74H306.775L310.311 325.284H309.703L313.351 314.74H314.439L318.039 325.284H317.463L321.031 314.74H322.167L318.391 325.94H317.143L313.703 315.94H314.023L310.567 325.94H309.335ZM329.124 326.036C328.282 326.036 327.498 325.897 326.772 325.62C326.058 325.332 325.434 324.932 324.9 324.42C324.378 323.897 323.967 323.294 323.668 322.612C323.38 321.918 323.236 321.161 323.236 320.34C323.236 319.518 323.38 318.766 323.668 318.084C323.967 317.39 324.378 316.788 324.9 316.276C325.434 315.753 326.058 315.353 326.772 315.076C327.487 314.788 328.271 314.644 329.124 314.644C329.967 314.644 330.746 314.788 331.46 315.076C332.175 315.353 332.794 315.748 333.316 316.26C333.85 316.772 334.26 317.374 334.548 318.068C334.847 318.761 334.996 319.518 334.996 320.34C334.996 321.161 334.847 321.918 334.548 322.612C334.26 323.305 333.85 323.908 333.316 324.42C332.794 324.932 332.175 325.332 331.46 325.62C330.746 325.897 329.967 326.036 329.124 326.036ZM329.124 324.98C329.796 324.98 330.415 324.868 330.98 324.644C331.556 324.409 332.052 324.084 332.468 323.668C332.895 323.241 333.226 322.75 333.46 322.196C333.695 321.63 333.812 321.012 333.812 320.34C333.812 319.668 333.695 319.054 333.46 318.5C333.226 317.934 332.895 317.444 332.468 317.028C332.052 316.601 331.556 316.276 330.98 316.052C330.415 315.817 329.796 315.7 329.124 315.7C328.452 315.7 327.828 315.817 327.252 316.052C326.676 316.276 326.175 316.601 325.748 317.028C325.332 317.444 325.002 317.934 324.756 318.5C324.522 319.054 324.404 319.668 324.404 320.34C324.404 321.001 324.522 321.614 324.756 322.18C325.002 322.745 325.332 323.241 325.748 323.668C326.175 324.084 326.676 324.409 327.252 324.644C327.828 324.868 328.452 324.98 329.124 324.98ZM337.65 325.94V314.74H341.842C342.792 314.74 343.608 314.894 344.29 315.204C344.973 315.502 345.496 315.94 345.858 316.516C346.232 317.081 346.418 317.769 346.418 318.58C346.418 319.369 346.232 320.052 345.858 320.628C345.496 321.193 344.973 321.63 344.29 321.94C343.608 322.238 342.792 322.388 341.842 322.388H338.306L338.834 321.844V325.94H337.65ZM345.298 325.94L342.418 321.876H343.698L346.594 325.94H345.298ZM338.834 321.94L338.306 321.38H341.81C342.93 321.38 343.778 321.134 344.354 320.644C344.941 320.153 345.234 319.465 345.234 318.58C345.234 317.684 344.941 316.99 344.354 316.5C343.778 316.009 342.93 315.764 341.81 315.764H338.306L338.834 315.204V321.94ZM349.213 325.94V314.74H353.773C354.967 314.74 356.013 314.98 356.909 315.46C357.815 315.929 358.519 316.585 359.021 317.428C359.522 318.27 359.773 319.241 359.773 320.34C359.773 321.438 359.522 322.409 359.021 323.252C358.519 324.094 357.815 324.756 356.909 325.236C356.013 325.705 354.967 325.94 353.773 325.94H349.213ZM350.397 324.916H353.709C354.701 324.916 355.559 324.724 356.285 324.34C357.021 323.945 357.591 323.406 357.997 322.724C358.402 322.03 358.605 321.236 358.605 320.34C358.605 319.433 358.402 318.638 357.997 317.956C357.591 317.273 357.021 316.74 356.285 316.356C355.559 315.961 354.701 315.764 353.709 315.764H350.397V324.916Z" fill="#44010A"/>
<path fill-rule="evenodd" clip-rule="evenodd" d="M536.847 314.698C537.172 314.372 537.172 313.844 536.847 313.519C536.521 313.193 535.993 313.193 535.667 313.519L517.879 331.307C517.554 331.632 517.554 332.16 517.879 332.486C518.205 332.812 518.733 332.812 519.059 332.486L522.224 329.321C523.743 330.036 525.492 330.507 527.363 330.507C530.347 330.507 533.022 329.309 534.946 327.833C535.909 327.093 536.705 326.268 537.267 325.458C537.814 324.67 538.203 323.806 538.203 323.002C538.203 322.199 537.814 321.335 537.267 320.547C536.705 319.737 535.909 318.912 534.946 318.172C534.654 317.948 534.346 317.731 534.021 317.523L536.847 314.698ZM532.81 318.735L530.841 320.703C531.278 321.362 531.532 322.153 531.532 323.002C531.532 325.305 529.665 327.172 527.363 327.172C526.513 327.172 525.723 326.917 525.064 326.481L523.489 328.056C524.673 328.538 525.987 328.839 527.363 328.839C529.905 328.839 532.233 327.813 533.93 326.51C534.777 325.86 535.447 325.156 535.897 324.507C536.363 323.836 536.535 323.311 536.535 323.002C536.535 322.694 536.363 322.169 535.897 321.498C535.447 320.849 534.777 320.145 533.93 319.495C533.582 319.228 533.208 318.972 532.81 318.735ZM526.285 325.26C526.611 325.416 526.977 325.504 527.363 325.504C528.744 325.504 529.864 324.384 529.864 323.002C529.864 322.616 529.777 322.251 529.621 321.924L526.285 325.26Z" fill="#C2C3CB"/>
<path d="M527.363 315.498C528.511 315.498 529.613 315.675 530.644 315.977C530.842 316.035 530.901 316.284 530.755 316.43L529.839 317.347C529.77 317.415 529.67 317.443 529.575 317.421C528.864 317.258 528.123 317.166 527.363 317.166C524.821 317.166 522.493 318.192 520.796 319.495C519.948 320.145 519.279 320.849 518.829 321.498C518.363 322.169 518.191 322.694 518.191 323.002C518.191 323.311 518.363 323.836 518.829 324.507C519.222 325.074 519.782 325.683 520.482 326.261C520.611 326.367 520.623 326.562 520.505 326.68L519.717 327.468C519.617 327.568 519.456 327.577 519.348 327.486C518.577 326.84 517.934 326.144 517.459 325.458C516.912 324.67 516.523 323.806 516.523 323.002C516.523 322.199 516.912 321.335 517.459 320.547C518.021 319.737 518.817 318.912 519.78 318.172C521.704 316.696 524.379 315.498 527.363 315.498Z" fill="#C2C3CB"/>
<path d="M527.363 318.833C527.495 318.833 527.625 318.84 527.754 318.851C527.972 318.872 528.052 319.133 527.896 319.289L526.548 320.637C525.822 320.887 525.247 321.462 524.997 322.188L523.649 323.536C523.494 323.691 523.232 323.612 523.212 323.393C523.2 323.264 523.194 323.134 523.194 323.002C523.194 320.7 525.06 318.833 527.363 318.833Z" fill="#C2C3CB"/>
<path d="M214.796 327.886C214.796 326.87 215.62 326.046 216.636 326.046C217.653 326.046 218.476 326.87 218.476 327.886C218.476 328.902 217.653 329.726 216.636 329.726C215.62 329.726 214.796 328.902 214.796 327.886Z" fill="#44010A"/>
<path fill-rule="evenodd" clip-rule="evenodd" d="M211.265 321.258L210.878 317.775C210.829 317.329 210.829 316.878 210.878 316.431L210.906 316.18C211.202 313.514 213.298 311.404 215.963 311.091C216.41 311.038 216.862 311.038 217.31 311.091C219.974 311.404 222.07 313.514 222.367 316.18L222.394 316.431C222.444 316.878 222.444 317.329 222.394 317.775L222.007 321.258L222.85 321.325C224.178 321.431 225.263 322.43 225.478 323.745C225.927 326.487 225.927 329.285 225.478 332.027C225.263 333.342 224.178 334.341 222.85 334.447L221.014 334.593C218.1 334.826 215.172 334.826 212.258 334.593L210.423 334.447C209.095 334.341 208.01 333.342 207.795 332.027C207.346 329.285 207.346 326.487 207.795 323.745C208.01 322.43 209.095 321.431 210.423 321.325L211.265 321.258ZM216.178 312.918C216.482 312.882 216.79 312.882 217.095 312.918C218.909 313.132 220.336 314.568 220.538 316.383L220.566 316.635C220.6 316.946 220.6 317.26 220.566 317.572L220.172 321.118C217.817 320.966 215.455 320.966 213.101 321.118L212.707 317.572C212.672 317.26 212.672 316.946 212.707 316.635L212.735 316.383C212.937 314.568 214.364 313.132 216.178 312.918ZM220.868 323.013C218.051 322.788 215.221 322.788 212.405 323.013L210.569 323.159C210.085 323.198 209.689 323.562 209.611 324.042C209.194 326.588 209.194 329.184 209.611 331.73C209.689 332.209 210.085 332.574 210.569 332.612L212.405 332.759C215.221 332.984 218.051 332.984 220.868 332.759L222.703 332.612C223.188 332.574 223.583 332.209 223.662 331.73C224.079 329.184 224.079 326.588 223.662 324.042C223.583 323.562 223.188 323.198 222.703 323.159L220.868 323.013Z" fill="#44010A"/>
</g>
<rect x="183" y="186.536" width="382.441" height="74.4871" rx="14.2748" fill="#F5F5F5"/>
<g opacity="0.36">
<path d="M264.814 220.802H270.734V221.81H264.814V220.802ZM264.942 225.97H271.678V226.994H263.758V215.794H271.438V216.818H264.942V225.97ZM274.461 226.994V215.794H275.437L280.557 224.53H280.045L285.117 215.794H286.093V226.994H284.957V217.57H285.229L280.557 225.57H279.997L275.293 217.57H275.597V226.994H274.461ZM287.95 226.994L293.07 215.794H294.238L299.358 226.994H298.11L293.406 216.482H293.886L289.182 226.994H287.95ZM289.966 224.002L290.318 223.042H296.83L297.182 224.002H289.966ZM301.211 226.994V215.794H302.395V226.994H301.211ZM306.039 226.994V215.794H307.223V225.97H313.495V226.994H306.039Z" fill="#44010A"/>
<path fill-rule="evenodd" clip-rule="evenodd" d="M206.578 219.92C206.242 222.909 206.257 226.356 206.725 229.333C206.985 230.98 208.392 232.243 210.13 232.387L211.945 232.538C215.731 232.852 219.539 232.852 223.325 232.538L225.141 232.387C226.878 232.243 228.286 230.98 228.545 229.333C229.014 226.356 229.029 222.909 228.692 219.92C228.649 219.574 228.6 219.228 228.545 218.882C228.286 217.235 226.878 215.972 225.141 215.828L223.325 215.677C219.539 215.363 215.731 215.363 211.945 215.677L210.13 215.828C208.392 215.972 206.985 217.235 206.725 218.882C206.671 219.227 206.622 219.573 206.578 219.92ZM212.101 217.393C215.784 217.087 219.487 217.087 223.169 217.393L224.985 217.544C225.892 217.619 226.626 218.278 226.762 219.138C226.776 219.227 226.79 219.317 226.803 219.406L220.117 222.954C218.573 223.773 216.697 223.773 215.154 222.954L208.468 219.406C208.481 219.317 208.495 219.227 208.509 219.138C208.644 218.278 209.379 217.619 210.286 217.544L212.101 217.393ZM227.024 221.26C227.257 223.864 227.17 226.487 226.762 229.077C226.626 229.937 225.892 230.596 224.985 230.671L223.169 230.822C219.487 231.128 215.784 231.128 212.101 230.822L210.286 230.671C209.379 230.596 208.644 229.937 208.509 229.077C208.101 226.487 208.014 223.864 208.247 221.26L214.278 224.46C216.366 225.567 218.905 225.567 220.993 224.46L227.024 221.26Z" fill="#44010A"/>
</g>
<path d="M269.21 138.18C267.65 138.18 266.15 137.93 264.71 137.43C263.29 136.91 262.19 136.25 261.41 135.45L262.28 133.74C263.02 134.46 264.01 135.07 265.25 135.57C266.51 136.05 267.83 136.29 269.21 136.29C270.53 136.29 271.6 136.13 272.42 135.81C273.26 135.47 273.87 135.02 274.25 134.46C274.65 133.9 274.85 133.28 274.85 132.6C274.85 131.78 274.61 131.12 274.13 130.62C273.67 130.12 273.06 129.73 272.3 129.45C271.54 129.15 270.7 128.89 269.78 128.67C268.86 128.45 267.94 128.22 267.02 127.98C266.1 127.72 265.25 127.38 264.47 126.96C263.71 126.54 263.09 125.99 262.61 125.31C262.15 124.61 261.92 123.7 261.92 122.58C261.92 121.54 262.19 120.59 262.73 119.73C263.29 118.85 264.14 118.15 265.28 117.63C266.42 117.09 267.88 116.82 269.66 116.82C270.84 116.82 272.01 116.99 273.17 117.33C274.33 117.65 275.33 118.1 276.17 118.68L275.42 120.45C274.52 119.85 273.56 119.41 272.54 119.13C271.54 118.85 270.57 118.71 269.63 118.71C268.37 118.71 267.33 118.88 266.51 119.22C265.69 119.56 265.08 120.02 264.68 120.6C264.3 121.16 264.11 121.8 264.11 122.52C264.11 123.34 264.34 124 264.8 124.5C265.28 125 265.9 125.39 266.66 125.67C267.44 125.95 268.29 126.2 269.21 126.42C270.13 126.64 271.04 126.88 271.94 127.14C272.86 127.4 273.7 127.74 274.46 128.16C275.24 128.56 275.86 129.1 276.32 129.78C276.8 130.46 277.04 131.35 277.04 132.45C277.04 133.47 276.76 134.42 276.2 135.3C275.64 136.16 274.78 136.86 273.62 137.4C272.48 137.92 271.01 138.18 269.21 138.18ZM280.227 138V122.25H282.357V138H280.227ZM281.307 118.77C280.867 118.77 280.497 118.62 280.197 118.32C279.897 118.02 279.747 117.66 279.747 117.24C279.747 116.82 279.897 116.47 280.197 116.19C280.497 115.89 280.867 115.74 281.307 115.74C281.747 115.74 282.117 115.88 282.417 116.16C282.717 116.44 282.867 116.79 282.867 117.21C282.867 117.65 282.717 118.02 282.417 118.32C282.137 118.62 281.767 118.77 281.307 118.77ZM293.804 143.97C292.364 143.97 290.984 143.76 289.664 143.34C288.344 142.92 287.274 142.32 286.454 141.54L287.534 139.92C288.274 140.58 289.184 141.1 290.264 141.48C291.364 141.88 292.524 142.08 293.744 142.08C295.744 142.08 297.214 141.61 298.154 140.67C299.094 139.75 299.564 138.31 299.564 136.35V132.42L299.864 129.72L299.654 127.02V122.25H301.694V136.08C301.694 138.8 301.024 140.79 299.684 142.05C298.364 143.33 296.404 143.97 293.804 143.97ZM293.414 137.4C291.914 137.4 290.564 137.08 289.364 136.44C288.164 135.78 287.214 134.87 286.514 133.71C285.834 132.55 285.494 131.22 285.494 129.72C285.494 128.22 285.834 126.9 286.514 125.76C287.214 124.6 288.164 123.7 289.364 123.06C290.564 122.42 291.914 122.1 293.414 122.1C294.814 122.1 296.074 122.39 297.194 122.97C298.314 123.55 299.204 124.41 299.864 125.55C300.524 126.69 300.854 128.08 300.854 129.72C300.854 131.36 300.524 132.75 299.864 133.89C299.204 135.03 298.314 135.9 297.194 136.5C296.074 137.1 294.814 137.4 293.414 137.4ZM293.624 135.51C294.784 135.51 295.814 135.27 296.714 134.79C297.614 134.29 298.324 133.61 298.844 132.75C299.364 131.87 299.624 130.86 299.624 129.72C299.624 128.58 299.364 127.58 298.844 126.72C298.324 125.86 297.614 125.19 296.714 124.71C295.814 124.21 294.784 123.96 293.624 123.96C292.484 123.96 291.454 124.21 290.534 124.71C289.634 125.19 288.924 125.86 288.404 126.72C287.904 127.58 287.654 128.58 287.654 129.72C287.654 130.86 287.904 131.87 288.404 132.75C288.924 133.61 289.634 134.29 290.534 134.79C291.454 135.27 292.484 135.51 293.624 135.51ZM314.461 122.1C315.741 122.1 316.861 122.35 317.821 122.85C318.801 123.33 319.561 124.07 320.101 125.07C320.661 126.07 320.941 127.33 320.941 128.85V138H318.811V129.06C318.811 127.4 318.391 126.15 317.551 125.31C316.731 124.45 315.571 124.02 314.071 124.02C312.951 124.02 311.971 124.25 311.131 124.71C310.311 125.15 309.671 125.8 309.211 126.66C308.771 127.5 308.551 128.52 308.551 129.72V138H306.421V122.25H308.461V126.57L308.131 125.76C308.631 124.62 309.431 123.73 310.531 123.09C311.631 122.43 312.941 122.1 314.461 122.1ZM332.596 138V117H334.816V138H332.596ZM348.039 122.1C349.319 122.1 350.439 122.35 351.399 122.85C352.379 123.33 353.139 124.07 353.679 125.07C354.239 126.07 354.519 127.33 354.519 128.85V138H352.389V129.06C352.389 127.4 351.969 126.15 351.129 125.31C350.309 124.45 349.149 124.02 347.649 124.02C346.529 124.02 345.549 124.25 344.709 124.71C343.889 125.15 343.249 125.8 342.789 126.66C342.349 127.5 342.129 128.52 342.129 129.72V138H339.999V122.25H342.039V126.57L341.709 125.76C342.209 124.62 343.009 123.73 344.109 123.09C345.209 122.43 346.519 122.1 348.039 122.1ZM370.254 138V118.92H362.874V117H379.854V118.92H372.474V138H370.254ZM386.529 138.15C385.009 138.15 383.639 137.81 382.419 137.13C381.219 136.43 380.269 135.48 379.569 134.28C378.869 133.06 378.519 131.67 378.519 130.11C378.519 128.53 378.869 127.14 379.569 125.94C380.269 124.74 381.219 123.8 382.419 123.12C383.619 122.44 384.989 122.1 386.529 122.1C388.089 122.1 389.469 122.44 390.669 123.12C391.889 123.8 392.839 124.74 393.519 125.94C394.219 127.14 394.569 128.53 394.569 130.11C394.569 131.67 394.219 133.06 393.519 134.28C392.839 135.48 391.889 136.43 390.669 137.13C389.449 137.81 388.069 138.15 386.529 138.15ZM386.529 136.26C387.669 136.26 388.679 136.01 389.559 135.51C390.439 134.99 391.129 134.27 391.629 133.35C392.149 132.41 392.409 131.33 392.409 130.11C392.409 128.87 392.149 127.79 391.629 126.87C391.129 125.95 390.439 125.24 389.559 124.74C388.679 124.22 387.679 123.96 386.559 123.96C385.439 123.96 384.439 124.22 383.559 124.74C382.679 125.24 381.979 125.95 381.459 126.87C380.939 127.79 380.679 128.87 380.679 130.11C380.679 131.33 380.939 132.41 381.459 133.35C381.979 134.27 382.679 134.99 383.559 135.51C384.439 136.01 385.429 136.26 386.529 136.26Z" fill="white"/>
<path d="M404.82 138V117H407.04V138H404.82ZM412.222 138V115.74H414.352V138H412.222ZM419.079 138V115.74H421.209V138H419.079ZM432.446 138.15C431.106 138.15 429.936 137.9 428.936 137.4C427.936 136.9 427.156 136.15 426.596 135.15C426.056 134.15 425.786 132.9 425.786 131.4V122.25H427.916V131.16C427.916 132.84 428.326 134.11 429.146 134.97C429.986 135.81 431.156 136.23 432.656 136.23C433.756 136.23 434.706 136.01 435.506 135.57C436.326 135.11 436.946 134.45 437.366 133.59C437.806 132.73 438.026 131.7 438.026 130.5V122.25H440.156V138H438.116V133.68L438.446 134.46C437.946 135.62 437.166 136.53 436.106 137.19C435.066 137.83 433.846 138.15 432.446 138.15ZM464.572 122.1C465.852 122.1 466.962 122.35 467.902 122.85C468.862 123.33 469.602 124.07 470.122 125.07C470.662 126.07 470.932 127.33 470.932 128.85V138H468.802V129.06C468.802 127.4 468.402 126.15 467.602 125.31C466.822 124.45 465.712 124.02 464.272 124.02C463.192 124.02 462.252 124.25 461.452 124.71C460.672 125.15 460.062 125.8 459.622 126.66C459.202 127.5 458.992 128.52 458.992 129.72V138H456.862V129.06C456.862 127.4 456.462 126.15 455.662 125.31C454.862 124.45 453.742 124.02 452.302 124.02C451.242 124.02 450.312 124.25 449.512 124.71C448.712 125.15 448.092 125.8 447.652 126.66C447.232 127.5 447.022 128.52 447.022 129.72V138H444.892V122.25H446.932V126.51L446.602 125.76C447.082 124.62 447.852 123.73 448.912 123.09C449.992 122.43 451.262 122.1 452.722 122.1C454.262 122.1 455.572 122.49 456.652 123.27C457.732 124.03 458.432 125.18 458.752 126.72L457.912 126.39C458.372 125.11 459.182 124.08 460.342 123.3C461.522 122.5 462.932 122.1 464.572 122.1ZM475.508 138V122.25H477.638V138H475.508ZM476.588 118.77C476.148 118.77 475.778 118.62 475.478 118.32C475.178 118.02 475.028 117.66 475.028 117.24C475.028 116.82 475.178 116.47 475.478 116.19C475.778 115.89 476.148 115.74 476.588 115.74C477.028 115.74 477.398 115.88 477.698 116.16C477.998 116.44 478.148 116.79 478.148 117.21C478.148 117.65 477.998 118.02 477.698 118.32C477.418 118.62 477.048 118.77 476.588 118.77ZM490.405 122.1C491.685 122.1 492.805 122.35 493.765 122.85C494.745 123.33 495.505 124.07 496.045 125.07C496.605 126.07 496.885 127.33 496.885 128.85V138H494.755V129.06C494.755 127.4 494.335 126.15 493.495 125.31C492.675 124.45 491.515 124.02 490.015 124.02C488.895 124.02 487.915 124.25 487.075 124.71C486.255 125.15 485.615 125.8 485.155 126.66C484.715 127.5 484.495 128.52 484.495 129.72V138H482.365V122.25H484.405V126.57L484.075 125.76C484.575 124.62 485.375 123.73 486.475 123.09C487.575 122.43 488.885 122.1 490.405 122.1ZM507.858 138.15C506.338 138.15 504.968 137.81 503.748 137.13C502.548 136.43 501.598 135.48 500.898 134.28C500.198 133.06 499.848 131.67 499.848 130.11C499.848 128.53 500.198 127.14 500.898 125.94C501.598 124.74 502.548 123.8 503.748 123.12C504.948 122.44 506.318 122.1 507.858 122.1C509.418 122.1 510.798 122.44 511.998 123.12C513.218 123.8 514.168 124.74 514.848 125.94C515.548 127.14 515.898 128.53 515.898 130.11C515.898 131.67 515.548 133.06 514.848 134.28C514.168 135.48 513.218 136.43 511.998 137.13C510.778 137.81 509.398 138.15 507.858 138.15ZM507.858 136.26C508.998 136.26 510.008 136.01 510.888 135.51C511.768 134.99 512.458 134.27 512.958 133.35C513.478 132.41 513.738 131.33 513.738 130.11C513.738 128.87 513.478 127.79 512.958 126.87C512.458 125.95 511.768 125.24 510.888 124.74C510.008 124.22 509.008 123.96 507.888 123.96C506.768 123.96 505.768 124.22 504.888 124.74C504.008 125.24 503.308 125.95 502.788 126.87C502.268 127.79 502.008 128.87 502.008 130.11C502.008 131.33 502.268 132.41 502.788 133.35C503.308 134.27 504.008 134.99 504.888 135.51C505.768 136.01 506.758 136.26 507.858 136.26ZM523.277 138.15C521.977 138.15 520.747 137.97 519.587 137.61C518.427 137.23 517.517 136.76 516.857 136.2L517.817 134.52C518.457 135 519.277 135.42 520.277 135.78C521.277 136.12 522.327 136.29 523.427 136.29C524.927 136.29 526.007 136.06 526.667 135.6C527.327 135.12 527.657 134.49 527.657 133.71C527.657 133.13 527.467 132.68 527.087 132.36C526.727 132.02 526.247 131.77 525.647 131.61C525.047 131.43 524.377 131.28 523.637 131.16C522.897 131.04 522.157 130.9 521.417 130.74C520.697 130.58 520.037 130.35 519.437 130.05C518.837 129.73 518.347 129.3 517.967 128.76C517.607 128.22 517.427 127.5 517.427 126.6C517.427 125.74 517.667 124.97 518.147 124.29C518.627 123.61 519.327 123.08 520.247 122.7C521.187 122.3 522.327 122.1 523.667 122.1C524.687 122.1 525.707 122.24 526.727 122.52C527.747 122.78 528.587 123.13 529.247 123.57L528.317 125.28C527.617 124.8 526.867 124.46 526.067 124.26C525.267 124.04 524.467 123.93 523.667 123.93C522.247 123.93 521.197 124.18 520.517 124.68C519.857 125.16 519.527 125.78 519.527 126.54C519.527 127.14 519.707 127.61 520.067 127.95C520.447 128.29 520.937 128.56 521.537 128.76C522.157 128.94 522.827 129.09 523.547 129.21C524.287 129.33 525.017 129.48 525.737 129.66C526.477 129.82 527.147 130.05 527.747 130.35C528.367 130.63 528.857 131.04 529.217 131.58C529.597 132.1 529.787 132.79 529.787 133.65C529.787 134.57 529.527 135.37 529.007 136.05C528.507 136.71 527.767 137.23 526.787 137.61C525.827 137.97 524.657 138.15 523.277 138.15Z" fill="#C85399"/>
</svg>
