<svg width="748" height="748" viewBox="0 0 748 748" fill="none" xmlns="http://www.w3.org/2000/svg">
<path d="M0 0H748V748H0V0Z" fill="black"/>
<path d="M35.824 683V671.8H40.016C40.9653 671.8 41.7813 671.955 42.464 672.264C43.1467 672.563 43.6693 673 44.032 673.576C44.4053 674.141 44.592 674.829 44.592 675.64C44.592 676.429 44.4053 677.112 44.032 677.688C43.6693 678.253 43.1467 678.691 42.464 679C41.7813 679.309 40.9653 679.464 40.016 679.464H36.48L37.008 678.904V683H35.824ZM37.008 679L36.48 678.424H39.984C41.104 678.424 41.952 678.184 42.528 677.704C43.1147 677.213 43.408 676.525 43.408 675.64C43.408 674.744 43.1147 674.051 42.528 673.56C41.952 673.069 41.104 672.824 39.984 672.824H36.48L37.008 672.264V679ZM46.8934 683V674.6H47.9814V676.888L47.8694 676.488C48.104 675.848 48.4987 675.363 49.0534 675.032C49.608 674.691 50.296 674.52 51.1174 674.52V675.624C51.0747 675.624 51.032 675.624 50.9894 675.624C50.9467 675.613 50.904 675.608 50.8614 675.608C49.976 675.608 49.2827 675.88 48.7814 676.424C48.28 676.957 48.0294 677.72 48.0294 678.712V683H46.8934ZM53.3902 683V674.6H54.5262V683H53.3902ZM53.9662 672.744C53.7316 672.744 53.5342 672.664 53.3742 672.504C53.2142 672.344 53.1342 672.152 53.1342 671.928C53.1342 671.704 53.2142 671.517 53.3742 671.368C53.5342 671.208 53.7316 671.128 53.9662 671.128C54.2009 671.128 54.3982 671.203 54.5582 671.352C54.7182 671.501 54.7982 671.688 54.7982 671.912C54.7982 672.147 54.7182 672.344 54.5582 672.504C54.4089 672.664 54.2116 672.744 53.9662 672.744ZM60.0471 683L56.3191 674.6H57.5031L60.9271 682.392H60.3671L63.8391 674.6H64.9591L61.2151 683H60.0471ZM71.773 683V681.144L71.725 680.84V677.736C71.725 677.021 71.5223 676.472 71.117 676.088C70.7223 675.704 70.1303 675.512 69.341 675.512C68.797 675.512 68.2797 675.603 67.789 675.784C67.2983 675.965 66.8823 676.205 66.541 676.504L66.029 675.656C66.4557 675.293 66.9677 675.016 67.565 674.824C68.1623 674.621 68.7917 674.52 69.453 674.52C70.541 674.52 71.3783 674.792 71.965 675.336C72.5623 675.869 72.861 676.685 72.861 677.784V683H71.773ZM68.877 683.08C68.2477 683.08 67.6983 682.979 67.229 682.776C66.7703 682.563 66.4183 682.275 66.173 681.912C65.9277 681.539 65.805 681.112 65.805 680.632C65.805 680.195 65.9063 679.8 66.109 679.448C66.3223 679.085 66.6637 678.797 67.133 678.584C67.613 678.36 68.253 678.248 69.053 678.248H71.949V679.096H69.085C68.2743 679.096 67.709 679.24 67.389 679.528C67.0797 679.816 66.925 680.173 66.925 680.6C66.925 681.08 67.1117 681.464 67.485 681.752C67.8583 682.04 68.381 682.184 69.053 682.184C69.693 682.184 70.2423 682.04 70.701 681.752C71.1703 681.453 71.5117 681.027 71.725 680.472L71.981 681.256C71.7677 681.811 71.3943 682.253 70.861 682.584C70.3383 682.915 69.677 683.08 68.877 683.08ZM79.6345 683.08C78.8025 683.08 78.0558 682.899 77.3945 682.536C76.7438 682.163 76.2318 681.656 75.8585 681.016C75.4852 680.365 75.2985 679.624 75.2985 678.792C75.2985 677.949 75.4852 677.208 75.8585 676.568C76.2318 675.928 76.7438 675.427 77.3945 675.064C78.0558 674.701 78.8025 674.52 79.6345 674.52C80.3492 674.52 80.9945 674.659 81.5705 674.936C82.1465 675.213 82.5998 675.629 82.9305 676.184L82.0825 676.76C81.7945 676.333 81.4372 676.019 81.0105 675.816C80.5838 675.613 80.1198 675.512 79.6185 675.512C79.0212 675.512 78.4825 675.651 78.0025 675.928C77.5225 676.195 77.1438 676.573 76.8665 677.064C76.5892 677.555 76.4505 678.131 76.4505 678.792C76.4505 679.453 76.5892 680.029 76.8665 680.52C77.1438 681.011 77.5225 681.395 78.0025 681.672C78.4825 681.939 79.0212 682.072 79.6185 682.072C80.1198 682.072 80.5838 681.971 81.0105 681.768C81.4372 681.565 81.7945 681.256 82.0825 680.84L82.9305 681.416C82.5998 681.96 82.1465 682.376 81.5705 682.664C80.9945 682.941 80.3492 683.08 79.6345 683.08ZM85.3011 686.184C84.9065 686.184 84.5278 686.12 84.1651 685.992C83.8131 685.864 83.5091 685.672 83.2531 685.416L83.7811 684.568C83.9945 684.771 84.2238 684.925 84.4691 685.032C84.7251 685.149 85.0078 685.208 85.3171 685.208C85.6905 685.208 86.0105 685.101 86.2771 684.888C86.5545 684.685 86.8158 684.323 87.0611 683.8L87.6051 682.568L87.7331 682.392L91.1891 674.6H92.3091L88.1011 684.008C87.8665 684.552 87.6051 684.984 87.3171 685.304C87.0398 685.624 86.7358 685.848 86.4051 685.976C86.0745 686.115 85.7065 686.184 85.3011 686.184ZM87.5411 683.24L83.6691 674.6H84.8531L88.2771 682.312L87.5411 683.24ZM98.7365 683V671.8H102.928C103.878 671.8 104.694 671.955 105.376 672.264C106.059 672.563 106.582 673 106.944 673.576C107.318 674.141 107.504 674.829 107.504 675.64C107.504 676.429 107.318 677.112 106.944 677.688C106.582 678.253 106.059 678.691 105.376 679C104.694 679.309 103.878 679.464 102.928 679.464H99.3925L99.9205 678.904V683H98.7365ZM99.9205 679L99.3925 678.424H102.896C104.016 678.424 104.864 678.184 105.44 677.704C106.027 677.213 106.32 676.525 106.32 675.64C106.32 674.744 106.027 674.051 105.44 673.56C104.864 673.069 104.016 672.824 102.896 672.824H99.3925L99.9205 672.264V679ZM113.402 683.08C112.591 683.08 111.86 682.899 111.21 682.536C110.57 682.163 110.063 681.656 109.69 681.016C109.316 680.365 109.13 679.624 109.13 678.792C109.13 677.949 109.316 677.208 109.69 676.568C110.063 675.928 110.57 675.427 111.21 675.064C111.85 674.701 112.58 674.52 113.402 674.52C114.234 674.52 114.97 674.701 115.61 675.064C116.26 675.427 116.767 675.928 117.13 676.568C117.503 677.208 117.69 677.949 117.69 678.792C117.69 679.624 117.503 680.365 117.13 681.016C116.767 681.656 116.26 682.163 115.61 682.536C114.959 682.899 114.223 683.08 113.402 683.08ZM113.402 682.072C114.01 682.072 114.548 681.939 115.018 681.672C115.487 681.395 115.855 681.011 116.122 680.52C116.399 680.019 116.538 679.443 116.538 678.792C116.538 678.131 116.399 677.555 116.122 677.064C115.855 676.573 115.487 676.195 115.018 675.928C114.548 675.651 114.015 675.512 113.418 675.512C112.82 675.512 112.287 675.651 111.818 675.928C111.348 676.195 110.975 676.573 110.698 677.064C110.42 677.555 110.282 678.131 110.282 678.792C110.282 679.443 110.42 680.019 110.698 680.52C110.975 681.011 111.348 681.395 111.818 681.672C112.287 681.939 112.815 682.072 113.402 682.072ZM120.209 683V671.128H121.345V683H120.209ZM124.706 683V674.6H125.842V683H124.706ZM125.282 672.744C125.047 672.744 124.85 672.664 124.69 672.504C124.53 672.344 124.45 672.152 124.45 671.928C124.45 671.704 124.53 671.517 124.69 671.368C124.85 671.208 125.047 671.128 125.282 671.128C125.517 671.128 125.714 671.203 125.874 671.352C126.034 671.501 126.114 671.688 126.114 671.912C126.114 672.147 126.034 672.344 125.874 672.504C125.725 672.664 125.527 672.744 125.282 672.744ZM132.691 683.08C131.859 683.08 131.112 682.899 130.451 682.536C129.8 682.163 129.288 681.656 128.915 681.016C128.541 680.365 128.355 679.624 128.355 678.792C128.355 677.949 128.541 677.208 128.915 676.568C129.288 675.928 129.8 675.427 130.451 675.064C131.112 674.701 131.859 674.52 132.691 674.52C133.405 674.52 134.051 674.659 134.627 674.936C135.203 675.213 135.656 675.629 135.987 676.184L135.139 676.76C134.851 676.333 134.493 676.019 134.067 675.816C133.64 675.613 133.176 675.512 132.675 675.512C132.077 675.512 131.539 675.651 131.059 675.928C130.579 676.195 130.2 676.573 129.923 677.064C129.645 677.555 129.507 678.131 129.507 678.792C129.507 679.453 129.645 680.029 129.923 680.52C130.2 681.011 130.579 681.395 131.059 681.672C131.539 681.939 132.077 682.072 132.675 682.072C133.176 682.072 133.64 681.971 134.067 681.768C134.493 681.565 134.851 681.256 135.139 680.84L135.987 681.416C135.656 681.96 135.203 682.376 134.627 682.664C134.051 682.941 133.405 683.08 132.691 683.08ZM138.357 686.184C137.963 686.184 137.584 686.12 137.221 685.992C136.869 685.864 136.565 685.672 136.309 685.416L136.837 684.568C137.051 684.771 137.28 684.925 137.525 685.032C137.781 685.149 138.064 685.208 138.373 685.208C138.747 685.208 139.067 685.101 139.333 684.888C139.611 684.685 139.872 684.323 140.117 683.8L140.661 682.568L140.789 682.392L144.245 674.6H145.365L141.157 684.008C140.923 684.552 140.661 684.984 140.373 685.304C140.096 685.624 139.792 685.848 139.461 685.976C139.131 686.115 138.763 686.184 138.357 686.184ZM140.597 683.24L136.725 674.6H137.909L141.333 682.312L140.597 683.24Z" fill="white"/>
<path d="M597.791 683.096C596.948 683.096 596.17 682.957 595.455 682.68C594.74 682.392 594.122 681.992 593.599 681.48C593.076 680.968 592.666 680.365 592.367 679.672C592.079 678.979 591.935 678.221 591.935 677.4C591.935 676.579 592.079 675.821 592.367 675.128C592.666 674.435 593.076 673.832 593.599 673.32C594.132 672.808 594.756 672.413 595.471 672.136C596.186 671.848 596.964 671.704 597.807 671.704C598.618 671.704 599.38 671.843 600.095 672.12C600.81 672.387 601.412 672.792 601.903 673.336L601.151 674.088C600.692 673.619 600.186 673.283 599.631 673.08C599.076 672.867 598.479 672.76 597.839 672.76C597.167 672.76 596.543 672.877 595.967 673.112C595.391 673.336 594.89 673.661 594.463 674.088C594.036 674.504 593.7 674.995 593.455 675.56C593.22 676.115 593.103 676.728 593.103 677.4C593.103 678.072 593.22 678.691 593.455 679.256C593.7 679.811 594.036 680.301 594.463 680.728C594.89 681.144 595.391 681.469 595.967 681.704C596.543 681.928 597.167 682.04 597.839 682.04C598.479 682.04 599.076 681.933 599.631 681.72C600.186 681.507 600.692 681.165 601.151 680.696L601.903 681.448C601.412 681.992 600.81 682.403 600.095 682.68C599.38 682.957 598.612 683.096 597.791 683.096ZM607.436 683.08C606.625 683.08 605.895 682.899 605.244 682.536C604.604 682.163 604.097 681.656 603.724 681.016C603.351 680.365 603.164 679.624 603.164 678.792C603.164 677.949 603.351 677.208 603.724 676.568C604.097 675.928 604.604 675.427 605.244 675.064C605.884 674.701 606.615 674.52 607.436 674.52C608.268 674.52 609.004 674.701 609.644 675.064C610.295 675.427 610.801 675.928 611.164 676.568C611.537 677.208 611.724 677.949 611.724 678.792C611.724 679.624 611.537 680.365 611.164 681.016C610.801 681.656 610.295 682.163 609.644 682.536C608.993 682.899 608.257 683.08 607.436 683.08ZM607.436 682.072C608.044 682.072 608.583 681.939 609.052 681.672C609.521 681.395 609.889 681.011 610.156 680.52C610.433 680.019 610.572 679.443 610.572 678.792C610.572 678.131 610.433 677.555 610.156 677.064C609.889 676.573 609.521 676.195 609.052 675.928C608.583 675.651 608.049 675.512 607.452 675.512C606.855 675.512 606.321 675.651 605.852 675.928C605.383 676.195 605.009 676.573 604.732 677.064C604.455 677.555 604.316 678.131 604.316 678.792C604.316 679.443 604.455 680.019 604.732 680.52C605.009 681.011 605.383 681.395 605.852 681.672C606.321 681.939 606.849 682.072 607.436 682.072ZM618.579 683.08C617.854 683.08 617.198 682.915 616.611 682.584C616.025 682.243 615.555 681.757 615.203 681.128C614.862 680.488 614.691 679.709 614.691 678.792C614.691 677.875 614.862 677.101 615.203 676.472C615.545 675.832 616.009 675.347 616.595 675.016C617.182 674.685 617.843 674.52 618.579 674.52C619.379 674.52 620.094 674.701 620.723 675.064C621.363 675.416 621.865 675.917 622.227 676.568C622.59 677.208 622.771 677.949 622.771 678.792C622.771 679.645 622.59 680.392 622.227 681.032C621.865 681.672 621.363 682.173 620.723 682.536C620.094 682.899 619.379 683.08 618.579 683.08ZM614.243 686.104V674.6H615.331V677.128L615.219 678.808L615.379 680.504V686.104H614.243ZM618.499 682.072C619.097 682.072 619.63 681.939 620.099 681.672C620.569 681.395 620.942 681.011 621.219 680.52C621.497 680.019 621.635 679.443 621.635 678.792C621.635 678.141 621.497 677.571 621.219 677.08C620.942 676.589 620.569 676.205 620.099 675.928C619.63 675.651 619.097 675.512 618.499 675.512C617.902 675.512 617.363 675.651 616.883 675.928C616.414 676.205 616.041 676.589 615.763 677.08C615.497 677.571 615.363 678.141 615.363 678.792C615.363 679.443 615.497 680.019 615.763 680.52C616.041 681.011 616.414 681.395 616.883 681.672C617.363 681.939 617.902 682.072 618.499 682.072ZM625.117 686.184C624.722 686.184 624.343 686.12 623.981 685.992C623.629 685.864 623.325 685.672 623.069 685.416L623.597 684.568C623.81 684.771 624.039 684.925 624.285 685.032C624.541 685.149 624.823 685.208 625.133 685.208C625.506 685.208 625.826 685.101 626.093 684.888C626.37 684.685 626.631 684.323 626.877 683.8L627.421 682.568L627.549 682.392L631.005 674.6H632.125L627.917 684.008C627.682 684.552 627.421 684.984 627.133 685.304C626.855 685.624 626.551 685.848 626.221 685.976C625.89 686.115 625.522 686.184 625.117 686.184ZM627.357 683.24L623.485 674.6H624.669L628.093 682.312L627.357 683.24ZM633.925 683V674.6H635.013V676.888L634.901 676.488C635.135 675.848 635.53 675.363 636.085 675.032C636.639 674.691 637.327 674.52 638.149 674.52V675.624C638.106 675.624 638.063 675.624 638.021 675.624C637.978 675.613 637.935 675.608 637.893 675.608C637.007 675.608 636.314 675.88 635.813 676.424C635.311 676.957 635.061 677.72 635.061 678.712V683H633.925ZM640.422 683V674.6H641.558V683H640.422ZM640.998 672.744C640.763 672.744 640.566 672.664 640.406 672.504C640.246 672.344 640.166 672.152 640.166 671.928C640.166 671.704 640.246 671.517 640.406 671.368C640.566 671.208 640.763 671.128 640.998 671.128C641.232 671.128 641.43 671.203 641.59 671.352C641.75 671.501 641.83 671.688 641.83 671.912C641.83 672.147 641.75 672.344 641.59 672.504C641.44 672.664 641.243 672.744 640.998 672.744ZM648.502 686.184C647.734 686.184 646.998 686.072 646.294 685.848C645.59 685.624 645.02 685.304 644.582 684.888L645.158 684.024C645.553 684.376 646.038 684.653 646.614 684.856C647.201 685.069 647.82 685.176 648.47 685.176C649.537 685.176 650.321 684.925 650.822 684.424C651.324 683.933 651.574 683.165 651.574 682.12V680.024L651.734 678.584L651.622 677.144V674.6H652.71V681.976C652.71 683.427 652.353 684.488 651.638 685.16C650.934 685.843 649.889 686.184 648.502 686.184ZM648.294 682.68C647.494 682.68 646.774 682.509 646.134 682.168C645.494 681.816 644.988 681.331 644.614 680.712C644.252 680.093 644.07 679.384 644.07 678.584C644.07 677.784 644.252 677.08 644.614 676.472C644.988 675.853 645.494 675.373 646.134 675.032C646.774 674.691 647.494 674.52 648.294 674.52C649.041 674.52 649.713 674.675 650.31 674.984C650.908 675.293 651.382 675.752 651.734 676.36C652.086 676.968 652.262 677.709 652.262 678.584C652.262 679.459 652.086 680.2 651.734 680.808C651.382 681.416 650.908 681.88 650.31 682.2C649.713 682.52 649.041 682.68 648.294 682.68ZM648.406 681.672C649.025 681.672 649.574 681.544 650.054 681.288C650.534 681.021 650.913 680.659 651.19 680.2C651.468 679.731 651.606 679.192 651.606 678.584C651.606 677.976 651.468 677.443 651.19 676.984C650.913 676.525 650.534 676.168 650.054 675.912C649.574 675.645 649.025 675.512 648.406 675.512C647.798 675.512 647.249 675.645 646.758 675.912C646.278 676.168 645.9 676.525 645.622 676.984C645.356 677.443 645.222 677.976 645.222 678.584C645.222 679.192 645.356 679.731 645.622 680.2C645.9 680.659 646.278 681.021 646.758 681.288C647.249 681.544 647.798 681.672 648.406 681.672ZM660.36 674.52C661.042 674.52 661.64 674.653 662.152 674.92C662.674 675.176 663.08 675.571 663.368 676.104C663.666 676.637 663.816 677.309 663.816 678.12V683H662.68V678.232C662.68 677.347 662.456 676.68 662.008 676.232C661.57 675.773 660.952 675.544 660.152 675.544C659.554 675.544 659.032 675.667 658.584 675.912C658.146 676.147 657.805 676.493 657.56 676.952C657.325 677.4 657.208 677.944 657.208 678.584V683H656.072V671.128H657.208V676.904L656.984 676.472C657.25 675.864 657.677 675.389 658.264 675.048C658.85 674.696 659.549 674.52 660.36 674.52ZM669.74 683.08C668.951 683.08 668.343 682.867 667.916 682.44C667.489 682.013 667.276 681.411 667.276 680.632V672.744H668.412V680.568C668.412 681.059 668.535 681.437 668.78 681.704C669.036 681.971 669.399 682.104 669.868 682.104C670.369 682.104 670.785 681.96 671.116 681.672L671.516 682.488C671.292 682.691 671.02 682.84 670.7 682.936C670.391 683.032 670.071 683.08 669.74 683.08ZM665.772 675.544V674.6H670.972V675.544H665.772ZM677.212 683V682.184L681.868 677.624C682.294 677.208 682.614 676.845 682.828 676.536C683.041 676.216 683.185 675.917 683.26 675.64C683.334 675.363 683.372 675.101 683.372 674.856C683.372 674.205 683.148 673.693 682.7 673.32C682.262 672.947 681.612 672.76 680.748 672.76C680.086 672.76 679.5 672.861 678.988 673.064C678.486 673.267 678.054 673.581 677.692 674.008L676.876 673.304C677.313 672.792 677.873 672.397 678.556 672.12C679.238 671.843 680.001 671.704 680.844 671.704C681.601 671.704 682.257 671.827 682.812 672.072C683.366 672.307 683.793 672.653 684.092 673.112C684.401 673.571 684.556 674.109 684.556 674.728C684.556 675.091 684.502 675.448 684.396 675.8C684.3 676.152 684.118 676.525 683.852 676.92C683.596 677.304 683.217 677.741 682.716 678.232L678.444 682.424L678.124 681.976H685.068V683H677.212ZM691.146 683.096C690.282 683.096 689.514 682.872 688.842 682.424C688.17 681.965 687.642 681.315 687.258 680.472C686.874 679.619 686.682 678.595 686.682 677.4C686.682 676.205 686.874 675.187 687.258 674.344C687.642 673.491 688.17 672.84 688.842 672.392C689.514 671.933 690.282 671.704 691.146 671.704C692.01 671.704 692.778 671.933 693.45 672.392C694.122 672.84 694.65 673.491 695.034 674.344C695.429 675.187 695.626 676.205 695.626 677.4C695.626 678.595 695.429 679.619 695.034 680.472C694.65 681.315 694.122 681.965 693.45 682.424C692.778 682.872 692.01 683.096 691.146 683.096ZM691.146 682.04C691.807 682.04 692.383 681.864 692.874 681.512C693.365 681.149 693.749 680.627 694.026 679.944C694.303 679.251 694.442 678.403 694.442 677.4C694.442 676.397 694.303 675.555 694.026 674.872C693.749 674.179 693.365 673.656 692.874 673.304C692.383 672.941 691.807 672.76 691.146 672.76C690.506 672.76 689.935 672.941 689.434 673.304C688.933 673.656 688.543 674.179 688.266 674.872C687.989 675.555 687.85 676.397 687.85 677.4C687.85 678.403 687.989 679.251 688.266 679.944C688.543 680.627 688.933 681.149 689.434 681.512C689.935 681.864 690.506 682.04 691.146 682.04ZM697.268 683V682.184L701.924 677.624C702.35 677.208 702.67 676.845 702.884 676.536C703.097 676.216 703.241 675.917 703.316 675.64C703.39 675.363 703.428 675.101 703.428 674.856C703.428 674.205 703.204 673.693 702.756 673.32C702.318 672.947 701.668 672.76 700.804 672.76C700.142 672.76 699.556 672.861 699.044 673.064C698.542 673.267 698.11 673.581 697.748 674.008L696.932 673.304C697.369 672.792 697.929 672.397 698.612 672.12C699.294 671.843 700.057 671.704 700.9 671.704C701.657 671.704 702.313 671.827 702.868 672.072C703.422 672.307 703.849 672.653 704.148 673.112C704.457 673.571 704.612 674.109 704.612 674.728C704.612 675.091 704.558 675.448 704.452 675.8C704.356 676.152 704.174 676.525 703.908 676.92C703.652 677.304 703.273 677.741 702.772 678.232L698.5 682.424L698.18 681.976H705.124V683H697.268ZM710.306 683.096C709.506 683.096 708.743 682.968 708.018 682.712C707.292 682.445 706.716 682.093 706.29 681.656L706.85 680.744C707.202 681.117 707.682 681.427 708.289 681.672C708.908 681.917 709.575 682.04 710.29 682.04C711.239 682.04 711.959 681.832 712.45 681.416C712.951 680.989 713.202 680.435 713.202 679.752C713.202 679.272 713.084 678.861 712.85 678.52C712.626 678.168 712.242 677.896 711.698 677.704C711.154 677.512 710.407 677.416 709.458 677.416H707.074L707.65 671.8H713.778V672.824H708.114L708.706 672.264L708.21 676.968L707.618 676.392H709.714C710.844 676.392 711.751 676.531 712.434 676.808C713.116 677.085 713.607 677.475 713.906 677.976C714.215 678.467 714.37 679.043 714.37 679.704C714.37 680.333 714.22 680.909 713.922 681.432C713.623 681.944 713.175 682.349 712.578 682.648C711.98 682.947 711.223 683.096 710.306 683.096Z" fill="white"/>
<path d="M216.385 561.713L221.505 550.513H222.673L227.793 561.713H226.545L221.841 551.201H222.321L217.617 561.713H216.385ZM218.401 558.721L218.753 557.761H225.265L225.617 558.721H218.401ZM229.566 561.713V549.841H230.702V561.713H229.566ZM234.023 561.713V553.313H235.111V555.601L234.999 555.201C235.233 554.561 235.628 554.076 236.183 553.745C236.737 553.404 237.425 553.233 238.247 553.233V554.337C238.204 554.337 238.161 554.337 238.119 554.337C238.076 554.327 238.033 554.321 237.991 554.321C237.105 554.321 236.412 554.593 235.911 555.137C235.409 555.671 235.159 556.433 235.159 557.425V561.713H234.023ZM243.969 561.793C243.095 561.793 242.327 561.612 241.665 561.249C241.004 560.876 240.487 560.369 240.113 559.729C239.74 559.079 239.553 558.337 239.553 557.505C239.553 556.673 239.729 555.937 240.081 555.297C240.444 554.657 240.935 554.156 241.553 553.793C242.183 553.42 242.887 553.233 243.665 553.233C244.455 553.233 245.153 553.415 245.761 553.777C246.38 554.129 246.865 554.631 247.217 555.281C247.569 555.921 247.745 556.663 247.745 557.505C247.745 557.559 247.74 557.617 247.729 557.681C247.729 557.735 247.729 557.793 247.729 557.857H240.417V557.009H247.121L246.673 557.345C246.673 556.737 246.54 556.199 246.273 555.729C246.017 555.249 245.665 554.876 245.217 554.609C244.769 554.343 244.252 554.209 243.665 554.209C243.089 554.209 242.572 554.343 242.113 554.609C241.655 554.876 241.297 555.249 241.041 555.729C240.785 556.209 240.657 556.759 240.657 557.377V557.553C240.657 558.193 240.796 558.759 241.073 559.249C241.361 559.729 241.756 560.108 242.257 560.385C242.769 560.652 243.351 560.785 244.001 560.785C244.513 560.785 244.988 560.695 245.425 560.513C245.873 560.332 246.257 560.055 246.577 559.681L247.217 560.417C246.844 560.865 246.375 561.207 245.809 561.441C245.255 561.676 244.641 561.793 243.969 561.793ZM255.247 561.713V559.857L255.199 559.553V556.449C255.199 555.735 254.997 555.185 254.591 554.801C254.197 554.417 253.605 554.225 252.815 554.225C252.271 554.225 251.754 554.316 251.263 554.497C250.773 554.679 250.357 554.919 250.015 555.217L249.503 554.369C249.93 554.007 250.442 553.729 251.039 553.537C251.637 553.335 252.266 553.233 252.927 553.233C254.015 553.233 254.853 553.505 255.439 554.049C256.037 554.583 256.335 555.399 256.335 556.497V561.713H255.247ZM252.351 561.793C251.722 561.793 251.173 561.692 250.703 561.489C250.245 561.276 249.893 560.988 249.647 560.625C249.402 560.252 249.279 559.825 249.279 559.345C249.279 558.908 249.381 558.513 249.583 558.161C249.797 557.799 250.138 557.511 250.607 557.297C251.087 557.073 251.727 556.961 252.527 556.961H255.423V557.809H252.559C251.749 557.809 251.183 557.953 250.863 558.241C250.554 558.529 250.399 558.887 250.399 559.313C250.399 559.793 250.586 560.177 250.959 560.465C251.333 560.753 251.855 560.897 252.527 560.897C253.167 560.897 253.717 560.753 254.175 560.465C254.645 560.167 254.986 559.74 255.199 559.185L255.455 559.969C255.242 560.524 254.869 560.967 254.335 561.297C253.813 561.628 253.151 561.793 252.351 561.793ZM262.925 561.793C262.125 561.793 261.405 561.612 260.765 561.249C260.135 560.887 259.639 560.385 259.277 559.745C258.914 559.095 258.733 558.348 258.733 557.505C258.733 556.652 258.914 555.905 259.277 555.265C259.639 554.625 260.135 554.129 260.765 553.777C261.405 553.415 262.125 553.233 262.925 553.233C263.661 553.233 264.317 553.399 264.893 553.729C265.479 554.06 265.943 554.545 266.285 555.185C266.637 555.815 266.813 556.588 266.813 557.505C266.813 558.412 266.642 559.185 266.301 559.825C265.959 560.465 265.495 560.956 264.909 561.297C264.333 561.628 263.671 561.793 262.925 561.793ZM263.005 560.785C263.602 560.785 264.135 560.652 264.605 560.385C265.085 560.108 265.458 559.724 265.725 559.233C266.002 558.732 266.141 558.156 266.141 557.505C266.141 556.844 266.002 556.268 265.725 555.777C265.458 555.287 265.085 554.908 264.605 554.641C264.135 554.364 263.602 554.225 263.005 554.225C262.418 554.225 261.89 554.364 261.421 554.641C260.951 554.908 260.578 555.287 260.301 555.777C260.023 556.268 259.885 556.844 259.885 557.505C259.885 558.156 260.023 558.732 260.301 559.233C260.578 559.724 260.951 560.108 261.421 560.385C261.89 560.652 262.418 560.785 263.005 560.785ZM266.173 561.713V559.185L266.285 557.489L266.125 555.793V549.841H267.261V561.713H266.173ZM270.649 564.897C270.254 564.897 269.875 564.833 269.513 564.705C269.161 564.577 268.857 564.385 268.601 564.129L269.129 563.281C269.342 563.484 269.571 563.639 269.817 563.745C270.073 563.863 270.355 563.921 270.665 563.921C271.038 563.921 271.358 563.815 271.625 563.601C271.902 563.399 272.163 563.036 272.409 562.513L272.953 561.281L273.081 561.105L276.537 553.313H277.657L273.449 562.721C273.214 563.265 272.953 563.697 272.665 564.017C272.387 564.337 272.083 564.561 271.753 564.689C271.422 564.828 271.054 564.897 270.649 564.897ZM272.889 561.953L269.017 553.313H270.201L273.625 561.025L272.889 561.953ZM292.196 550.513H293.364V561.713H292.196V550.513ZM285.188 561.713H284.004V550.513H285.188V561.713ZM292.308 556.545H285.06V555.505H292.308V556.545ZM302.204 561.713V559.857L302.156 559.553V556.449C302.156 555.735 301.953 555.185 301.548 554.801C301.153 554.417 300.561 554.225 299.772 554.225C299.228 554.225 298.71 554.316 298.22 554.497C297.729 554.679 297.313 554.919 296.972 555.217L296.46 554.369C296.886 554.007 297.398 553.729 297.996 553.537C298.593 553.335 299.222 553.233 299.884 553.233C300.972 553.233 301.809 553.505 302.396 554.049C302.993 554.583 303.292 555.399 303.292 556.497V561.713H302.204ZM299.308 561.793C298.678 561.793 298.129 561.692 297.66 561.489C297.201 561.276 296.849 560.988 296.604 560.625C296.358 560.252 296.236 559.825 296.236 559.345C296.236 558.908 296.337 558.513 296.54 558.161C296.753 557.799 297.094 557.511 297.564 557.297C298.044 557.073 298.684 556.961 299.484 556.961H302.38V557.809H299.516C298.705 557.809 298.14 557.953 297.82 558.241C297.51 558.529 297.356 558.887 297.356 559.313C297.356 559.793 297.542 560.177 297.916 560.465C298.289 560.753 298.812 560.897 299.484 560.897C300.124 560.897 300.673 560.753 301.132 560.465C301.601 560.167 301.942 559.74 302.156 559.185L302.412 559.969C302.198 560.524 301.825 560.967 301.292 561.297C300.769 561.628 300.108 561.793 299.308 561.793ZM308.541 561.713L304.813 553.313H305.997L309.421 561.105H308.861L312.333 553.313H313.453L309.709 561.713H308.541ZM318.546 561.793C317.672 561.793 316.904 561.612 316.242 561.249C315.581 560.876 315.064 560.369 314.69 559.729C314.317 559.079 314.13 558.337 314.13 557.505C314.13 556.673 314.306 555.937 314.658 555.297C315.021 554.657 315.512 554.156 316.13 553.793C316.76 553.42 317.464 553.233 318.242 553.233C319.032 553.233 319.73 553.415 320.338 553.777C320.957 554.129 321.442 554.631 321.794 555.281C322.146 555.921 322.322 556.663 322.322 557.505C322.322 557.559 322.317 557.617 322.306 557.681C322.306 557.735 322.306 557.793 322.306 557.857H314.994V557.009H321.698L321.25 557.345C321.25 556.737 321.117 556.199 320.85 555.729C320.594 555.249 320.242 554.876 319.794 554.609C319.346 554.343 318.829 554.209 318.242 554.209C317.666 554.209 317.149 554.343 316.69 554.609C316.232 554.876 315.874 555.249 315.618 555.729C315.362 556.209 315.234 556.759 315.234 557.377V557.553C315.234 558.193 315.373 558.759 315.65 559.249C315.938 559.729 316.333 560.108 316.834 560.385C317.346 560.652 317.928 560.785 318.578 560.785C319.09 560.785 319.565 560.695 320.002 560.513C320.45 560.332 320.834 560.055 321.154 559.681L321.794 560.417C321.421 560.865 320.952 561.207 320.386 561.441C319.832 561.676 319.218 561.793 318.546 561.793ZM327.59 561.713L332.71 550.513H333.878L338.998 561.713H337.75L333.046 551.201H333.526L328.822 561.713H327.59ZM329.606 558.721L329.958 557.761H336.47L336.822 558.721H329.606ZM345.059 553.233C345.741 553.233 346.339 553.367 346.851 553.633C347.373 553.889 347.779 554.284 348.067 554.817C348.365 555.351 348.515 556.023 348.515 556.833V561.713H347.379V556.945C347.379 556.06 347.155 555.393 346.707 554.945C346.269 554.487 345.651 554.257 344.851 554.257C344.253 554.257 343.731 554.38 343.283 554.625C342.845 554.86 342.504 555.207 342.259 555.665C342.024 556.113 341.907 556.657 341.907 557.297V561.713H340.771V553.313H341.859V555.617L341.683 555.185C341.949 554.577 342.376 554.103 342.963 553.761C343.549 553.409 344.248 553.233 345.059 553.233ZM354.539 561.713L359.659 550.513H360.827L365.947 561.713H364.699L359.995 551.201H360.475L355.771 561.713H354.539ZM356.555 558.721L356.907 557.761H363.419L363.771 558.721H356.555ZM371.129 561.793C370.297 561.793 369.551 561.612 368.889 561.249C368.239 560.876 367.727 560.369 367.353 559.729C366.98 559.079 366.793 558.337 366.793 557.505C366.793 556.663 366.98 555.921 367.353 555.281C367.727 554.641 368.239 554.14 368.889 553.777C369.551 553.415 370.297 553.233 371.129 553.233C371.844 553.233 372.489 553.372 373.065 553.649C373.641 553.927 374.095 554.343 374.425 554.897L373.577 555.473C373.289 555.047 372.932 554.732 372.505 554.529C372.079 554.327 371.615 554.225 371.113 554.225C370.516 554.225 369.977 554.364 369.497 554.641C369.017 554.908 368.639 555.287 368.361 555.777C368.084 556.268 367.945 556.844 367.945 557.505C367.945 558.167 368.084 558.743 368.361 559.233C368.639 559.724 369.017 560.108 369.497 560.385C369.977 560.652 370.516 560.785 371.113 560.785C371.615 560.785 372.079 560.684 372.505 560.481C372.932 560.279 373.289 559.969 373.577 559.553L374.425 560.129C374.095 560.673 373.641 561.089 373.065 561.377C372.489 561.655 371.844 561.793 371.129 561.793ZM380.164 561.793C379.332 561.793 378.586 561.612 377.924 561.249C377.274 560.876 376.762 560.369 376.388 559.729C376.015 559.079 375.828 558.337 375.828 557.505C375.828 556.663 376.015 555.921 376.388 555.281C376.762 554.641 377.274 554.14 377.924 553.777C378.586 553.415 379.332 553.233 380.164 553.233C380.879 553.233 381.524 553.372 382.1 553.649C382.676 553.927 383.13 554.343 383.46 554.897L382.612 555.473C382.324 555.047 381.967 554.732 381.54 554.529C381.114 554.327 380.65 554.225 380.148 554.225C379.551 554.225 379.012 554.364 378.532 554.641C378.052 554.908 377.674 555.287 377.396 555.777C377.119 556.268 376.98 556.844 376.98 557.505C376.98 558.167 377.119 558.743 377.396 559.233C377.674 559.724 378.052 560.108 378.532 560.385C379.012 560.652 379.551 560.785 380.148 560.785C380.65 560.785 381.114 560.684 381.54 560.481C381.967 560.279 382.324 559.969 382.612 559.553L383.46 560.129C383.13 560.673 382.676 561.089 382.1 561.377C381.524 561.655 380.879 561.793 380.164 561.793ZM389.135 561.793C388.325 561.793 387.594 561.612 386.943 561.249C386.303 560.876 385.797 560.369 385.423 559.729C385.05 559.079 384.863 558.337 384.863 557.505C384.863 556.663 385.05 555.921 385.423 555.281C385.797 554.641 386.303 554.14 386.943 553.777C387.583 553.415 388.314 553.233 389.135 553.233C389.967 553.233 390.703 553.415 391.343 553.777C391.994 554.14 392.501 554.641 392.863 555.281C393.237 555.921 393.423 556.663 393.423 557.505C393.423 558.337 393.237 559.079 392.863 559.729C392.501 560.369 391.994 560.876 391.343 561.249C390.693 561.612 389.957 561.793 389.135 561.793ZM389.135 560.785C389.743 560.785 390.282 560.652 390.751 560.385C391.221 560.108 391.589 559.724 391.855 559.233C392.133 558.732 392.271 558.156 392.271 557.505C392.271 556.844 392.133 556.268 391.855 555.777C391.589 555.287 391.221 554.908 390.751 554.641C390.282 554.364 389.749 554.225 389.151 554.225C388.554 554.225 388.021 554.364 387.551 554.641C387.082 554.908 386.709 555.287 386.431 555.777C386.154 556.268 386.015 556.844 386.015 557.505C386.015 558.156 386.154 558.732 386.431 559.233C386.709 559.724 387.082 560.108 387.551 560.385C388.021 560.652 388.549 560.785 389.135 560.785ZM399.375 561.793C398.66 561.793 398.036 561.66 397.503 561.393C396.969 561.127 396.553 560.727 396.255 560.193C395.967 559.66 395.823 558.993 395.823 558.193V553.313H396.959V558.065C396.959 558.961 397.177 559.639 397.615 560.097C398.063 560.545 398.687 560.769 399.487 560.769C400.073 560.769 400.58 560.652 401.007 560.417C401.444 560.172 401.775 559.82 401.999 559.361C402.233 558.903 402.351 558.353 402.351 557.713V553.313H403.487V561.713H402.399V559.409L402.575 559.825C402.308 560.444 401.892 560.929 401.327 561.281C400.772 561.623 400.121 561.793 399.375 561.793ZM411.101 553.233C411.783 553.233 412.381 553.367 412.893 553.633C413.415 553.889 413.821 554.284 414.109 554.817C414.407 555.351 414.557 556.023 414.557 556.833V561.713H413.421V556.945C413.421 556.06 413.197 555.393 412.749 554.945C412.311 554.487 411.693 554.257 410.893 554.257C410.295 554.257 409.773 554.38 409.325 554.625C408.887 554.86 408.546 555.207 408.301 555.665C408.066 556.113 407.949 556.657 407.949 557.297V561.713H406.813V553.313H407.901V555.617L407.725 555.185C407.991 554.577 408.418 554.103 409.005 553.761C409.591 553.409 410.29 553.233 411.101 553.233ZM420.441 561.793C419.652 561.793 419.044 561.58 418.617 561.153C418.19 560.727 417.977 560.124 417.977 559.345V551.457H419.113V559.281C419.113 559.772 419.236 560.151 419.481 560.417C419.737 560.684 420.1 560.817 420.569 560.817C421.07 560.817 421.486 560.673 421.817 560.385L422.217 561.201C421.993 561.404 421.721 561.553 421.401 561.649C421.092 561.745 420.772 561.793 420.441 561.793ZM416.473 554.257V553.313H421.673V554.257H416.473ZM426.34 558.353C426.34 557.905 426.409 557.521 426.548 557.201C426.697 556.881 426.879 556.599 427.092 556.353C427.316 556.108 427.551 555.879 427.796 555.665C428.052 555.452 428.292 555.239 428.516 555.025C428.74 554.801 428.921 554.561 429.06 554.305C429.199 554.039 429.268 553.729 429.268 553.377C429.268 552.801 429.044 552.332 428.596 551.969C428.148 551.607 427.513 551.425 426.692 551.425C426.009 551.425 425.417 551.537 424.916 551.761C424.415 551.975 423.988 552.295 423.636 552.721L422.788 552.081C423.215 551.548 423.764 551.137 424.436 550.849C425.108 550.561 425.887 550.417 426.772 550.417C427.519 550.417 428.164 550.529 428.708 550.753C429.263 550.977 429.689 551.297 429.988 551.713C430.297 552.129 430.452 552.625 430.452 553.201C430.452 553.66 430.377 554.055 430.228 554.385C430.089 554.705 429.908 554.993 429.684 555.249C429.471 555.495 429.236 555.729 428.98 555.953C428.735 556.167 428.5 556.385 428.276 556.609C428.052 556.833 427.871 557.084 427.732 557.361C427.593 557.639 427.524 557.969 427.524 558.353H426.34ZM426.932 561.793C426.708 561.793 426.511 561.713 426.34 561.553C426.18 561.383 426.1 561.185 426.1 560.961C426.1 560.727 426.18 560.535 426.34 560.385C426.511 560.225 426.708 560.145 426.932 560.145C427.177 560.145 427.38 560.225 427.54 560.385C427.7 560.535 427.78 560.727 427.78 560.961C427.78 561.185 427.7 561.383 427.54 561.553C427.38 561.713 427.177 561.793 426.932 561.793Z" fill="white"/>
<path d="M441.078 561.809C440.246 561.809 439.446 561.676 438.678 561.409C437.92 561.132 437.334 560.78 436.918 560.353L437.382 559.441C437.776 559.825 438.304 560.151 438.966 560.417C439.638 560.673 440.342 560.801 441.078 560.801C441.782 560.801 442.352 560.716 442.79 560.545C443.238 560.364 443.563 560.124 443.766 559.825C443.979 559.527 444.086 559.196 444.086 558.833C444.086 558.396 443.958 558.044 443.702 557.777C443.456 557.511 443.131 557.303 442.726 557.153C442.32 556.993 441.872 556.855 441.382 556.737C440.891 556.62 440.4 556.497 439.91 556.369C439.419 556.231 438.966 556.049 438.55 555.825C438.144 555.601 437.814 555.308 437.558 554.945C437.312 554.572 437.19 554.087 437.19 553.489C437.19 552.935 437.334 552.428 437.622 551.969C437.92 551.5 438.374 551.127 438.982 550.849C439.59 550.561 440.368 550.417 441.318 550.417C441.947 550.417 442.571 550.508 443.19 550.689C443.808 550.86 444.342 551.1 444.79 551.409L444.39 552.353C443.91 552.033 443.398 551.799 442.854 551.649C442.32 551.5 441.803 551.425 441.302 551.425C440.63 551.425 440.075 551.516 439.638 551.697C439.2 551.879 438.875 552.124 438.662 552.433C438.459 552.732 438.358 553.073 438.358 553.457C438.358 553.895 438.48 554.247 438.726 554.513C438.982 554.78 439.312 554.988 439.718 555.137C440.134 555.287 440.587 555.42 441.078 555.537C441.568 555.655 442.054 555.783 442.534 555.921C443.024 556.06 443.472 556.241 443.878 556.465C444.294 556.679 444.624 556.967 444.87 557.329C445.126 557.692 445.254 558.167 445.254 558.753C445.254 559.297 445.104 559.804 444.806 560.273C444.507 560.732 444.048 561.105 443.43 561.393C442.822 561.671 442.038 561.809 441.078 561.809ZM447.753 561.713V553.313H448.889V561.713H447.753ZM448.329 551.457C448.095 551.457 447.897 551.377 447.737 551.217C447.577 551.057 447.497 550.865 447.497 550.641C447.497 550.417 447.577 550.231 447.737 550.081C447.897 549.921 448.095 549.841 448.329 549.841C448.564 549.841 448.761 549.916 448.921 550.065C449.081 550.215 449.161 550.401 449.161 550.625C449.161 550.86 449.081 551.057 448.921 551.217C448.772 551.377 448.575 551.457 448.329 551.457ZM455.794 564.897C455.026 564.897 454.29 564.785 453.586 564.561C452.882 564.337 452.311 564.017 451.874 563.601L452.45 562.737C452.845 563.089 453.33 563.367 453.906 563.569C454.493 563.783 455.111 563.889 455.762 563.889C456.829 563.889 457.613 563.639 458.114 563.137C458.615 562.647 458.866 561.879 458.866 560.833V558.737L459.026 557.297L458.914 555.857V553.313H460.002V560.689C460.002 562.14 459.645 563.201 458.93 563.873C458.226 564.556 457.181 564.897 455.794 564.897ZM455.586 561.393C454.786 561.393 454.066 561.223 453.426 560.881C452.786 560.529 452.279 560.044 451.906 559.425C451.543 558.807 451.362 558.097 451.362 557.297C451.362 556.497 451.543 555.793 451.906 555.185C452.279 554.567 452.786 554.087 453.426 553.745C454.066 553.404 454.786 553.233 455.586 553.233C456.333 553.233 457.005 553.388 457.602 553.697C458.199 554.007 458.674 554.465 459.026 555.073C459.378 555.681 459.554 556.423 459.554 557.297C459.554 558.172 459.378 558.913 459.026 559.521C458.674 560.129 458.199 560.593 457.602 560.913C457.005 561.233 456.333 561.393 455.586 561.393ZM455.698 560.385C456.317 560.385 456.866 560.257 457.346 560.001C457.826 559.735 458.205 559.372 458.482 558.913C458.759 558.444 458.898 557.905 458.898 557.297C458.898 556.689 458.759 556.156 458.482 555.697C458.205 555.239 457.826 554.881 457.346 554.625C456.866 554.359 456.317 554.225 455.698 554.225C455.09 554.225 454.541 554.359 454.05 554.625C453.57 554.881 453.191 555.239 452.914 555.697C452.647 556.156 452.514 556.689 452.514 557.297C452.514 557.905 452.647 558.444 452.914 558.913C453.191 559.372 453.57 559.735 454.05 560.001C454.541 560.257 455.09 560.385 455.698 560.385ZM467.611 553.233C468.294 553.233 468.891 553.367 469.403 553.633C469.926 553.889 470.331 554.284 470.619 554.817C470.918 555.351 471.067 556.023 471.067 556.833V561.713H469.931V556.945C469.931 556.06 469.707 555.393 469.259 554.945C468.822 554.487 468.203 554.257 467.403 554.257C466.806 554.257 466.283 554.38 465.835 554.625C465.398 554.86 465.057 555.207 464.811 555.665C464.577 556.113 464.459 556.657 464.459 557.297V561.713H463.323V553.313H464.411V555.617L464.235 555.185C464.502 554.577 464.929 554.103 465.515 553.761C466.102 553.409 466.801 553.233 467.611 553.233ZM478.883 561.713V550.513H480.067V561.713H478.883ZM487.919 553.233C488.602 553.233 489.199 553.367 489.711 553.633C490.234 553.889 490.639 554.284 490.927 554.817C491.226 555.351 491.375 556.023 491.375 556.833V561.713H490.239V556.945C490.239 556.06 490.015 555.393 489.567 554.945C489.13 554.487 488.511 554.257 487.711 554.257C487.114 554.257 486.591 554.38 486.143 554.625C485.706 554.86 485.365 555.207 485.119 555.665C484.885 556.113 484.767 556.657 484.767 557.297V561.713H483.631V553.313H484.719V555.617L484.543 555.185C484.81 554.577 485.237 554.103 485.823 553.761C486.41 553.409 487.109 553.233 487.919 553.233Z" fill="#CA529A"/>
<rect x="183" y="447.88" width="382.441" height="74.4871" rx="15.5645" fill="white"/>
<path d="M342.541 488.53C341.645 488.53 340.787 488.413 339.965 488.178C339.144 487.933 338.483 487.618 337.981 487.234L338.861 485.282C339.341 485.623 339.907 485.906 340.557 486.13C341.219 486.343 341.885 486.45 342.557 486.45C343.069 486.45 343.48 486.402 343.789 486.306C344.109 486.199 344.344 486.055 344.493 485.874C344.643 485.693 344.717 485.485 344.717 485.25C344.717 484.951 344.6 484.717 344.365 484.546C344.131 484.365 343.821 484.221 343.437 484.114C343.053 483.997 342.627 483.89 342.157 483.794C341.699 483.687 341.235 483.559 340.765 483.41C340.307 483.261 339.885 483.069 339.501 482.834C339.117 482.599 338.803 482.29 338.557 481.906C338.323 481.522 338.205 481.031 338.205 480.434C338.205 479.794 338.376 479.213 338.717 478.69C339.069 478.157 339.592 477.735 340.285 477.426C340.989 477.106 341.869 476.946 342.925 476.946C343.629 476.946 344.323 477.031 345.005 477.202C345.688 477.362 346.291 477.607 346.813 477.938L346.013 479.906C345.491 479.607 344.968 479.389 344.445 479.25C343.923 479.101 343.411 479.026 342.909 479.026C342.408 479.026 341.997 479.085 341.677 479.202C341.357 479.319 341.128 479.474 340.989 479.666C340.851 479.847 340.781 480.061 340.781 480.306C340.781 480.594 340.899 480.829 341.133 481.01C341.368 481.181 341.677 481.319 342.061 481.426C342.445 481.533 342.867 481.639 343.325 481.746C343.795 481.853 344.259 481.975 344.717 482.114C345.187 482.253 345.613 482.439 345.997 482.674C346.381 482.909 346.691 483.218 346.925 483.602C347.171 483.986 347.293 484.471 347.293 485.058C347.293 485.687 347.117 486.263 346.765 486.786C346.413 487.309 345.885 487.73 345.181 488.05C344.488 488.37 343.608 488.53 342.541 488.53ZM349.544 488.338V477.138H352.136V488.338H349.544ZM360.682 488.53C359.797 488.53 358.981 488.391 358.234 488.114C357.498 487.826 356.853 487.421 356.298 486.898C355.754 486.375 355.328 485.762 355.018 485.058C354.72 484.354 354.57 483.581 354.57 482.738C354.57 481.895 354.72 481.122 355.018 480.418C355.328 479.714 355.76 479.101 356.314 478.578C356.869 478.055 357.52 477.655 358.266 477.378C359.013 477.09 359.834 476.946 360.73 476.946C361.722 476.946 362.613 477.111 363.402 477.442C364.202 477.773 364.874 478.253 365.418 478.882L363.754 480.418C363.349 479.991 362.906 479.677 362.426 479.474C361.946 479.261 361.424 479.154 360.858 479.154C360.314 479.154 359.818 479.239 359.37 479.41C358.922 479.581 358.533 479.826 358.202 480.146C357.882 480.466 357.632 480.845 357.45 481.282C357.28 481.719 357.194 482.205 357.194 482.738C357.194 483.261 357.28 483.741 357.45 484.178C357.632 484.615 357.882 484.999 358.202 485.33C358.533 485.65 358.917 485.895 359.354 486.066C359.802 486.237 360.293 486.322 360.826 486.322C361.338 486.322 361.834 486.242 362.314 486.082C362.805 485.911 363.28 485.629 363.738 485.234L365.21 487.106C364.602 487.565 363.893 487.917 363.082 488.162C362.282 488.407 361.482 488.53 360.682 488.53ZM362.842 486.77V482.562H365.21V487.106L362.842 486.77ZM368.098 488.338V477.138H370.242L376.85 485.202H375.81V477.138H378.37V488.338H376.242L369.618 480.274H370.658V488.338H368.098ZM391.487 488.53C389.898 488.53 388.655 488.087 387.759 487.202C386.863 486.317 386.415 485.053 386.415 483.41V477.138H389.007V483.314C389.007 484.381 389.226 485.149 389.663 485.618C390.101 486.087 390.714 486.322 391.503 486.322C392.293 486.322 392.906 486.087 393.343 485.618C393.781 485.149 393.999 484.381 393.999 483.314V477.138H396.559V483.41C396.559 485.053 396.111 486.317 395.215 487.202C394.319 488.087 393.077 488.53 391.487 488.53ZM399.601 488.338V477.138H404.449C405.451 477.138 406.315 477.303 407.041 477.634C407.766 477.954 408.326 478.418 408.721 479.026C409.115 479.634 409.313 480.359 409.313 481.202C409.313 482.034 409.115 482.754 408.721 483.362C408.326 483.97 407.766 484.439 407.041 484.77C406.315 485.09 405.451 485.25 404.449 485.25H401.041L402.193 484.082V488.338H399.601ZM402.193 484.37L401.041 483.138H404.305C405.105 483.138 405.702 482.967 406.097 482.626C406.491 482.285 406.689 481.81 406.689 481.202C406.689 480.583 406.491 480.103 406.097 479.762C405.702 479.421 405.105 479.25 404.305 479.25H401.041L402.193 478.018V484.37Z" fill="#CA529A"/>
<rect x="184.112" y="334.481" width="382.441" height="74.4871" rx="14.2748" fill="#F5F5F5"/>
<g opacity="0.36">
<path d="M264.87 374.94V363.74H269.062C270.011 363.74 270.827 363.894 271.51 364.204C272.193 364.502 272.715 364.94 273.078 365.516C273.451 366.081 273.638 366.769 273.638 367.58C273.638 368.369 273.451 369.052 273.078 369.628C272.715 370.193 272.193 370.63 271.51 370.94C270.827 371.249 270.011 371.404 269.062 371.404H265.526L266.054 370.844V374.94H264.87ZM266.054 370.94L265.526 370.364H269.03C270.15 370.364 270.998 370.124 271.574 369.644C272.161 369.153 272.454 368.465 272.454 367.58C272.454 366.684 272.161 365.99 271.574 365.5C270.998 365.009 270.15 364.764 269.03 364.764H265.526L266.054 364.204V370.94ZM273.844 374.94L278.964 363.74H280.132L285.252 374.94H284.004L279.3 364.428H279.78L275.076 374.94H273.844ZM275.86 371.948L276.212 370.988H282.724L283.076 371.948H275.86ZM290.192 375.036C289.36 375.036 288.56 374.902 287.792 374.636C287.035 374.358 286.448 374.006 286.032 373.58L286.496 372.668C286.891 373.052 287.419 373.377 288.08 373.644C288.752 373.9 289.456 374.028 290.192 374.028C290.896 374.028 291.467 373.942 291.904 373.772C292.352 373.59 292.678 373.35 292.88 373.052C293.094 372.753 293.2 372.422 293.2 372.06C293.2 371.622 293.072 371.27 292.816 371.004C292.571 370.737 292.246 370.529 291.84 370.38C291.435 370.22 290.987 370.081 290.496 369.964C290.006 369.846 289.515 369.724 289.024 369.596C288.534 369.457 288.08 369.276 287.664 369.052C287.259 368.828 286.928 368.534 286.672 368.172C286.427 367.798 286.304 367.313 286.304 366.716C286.304 366.161 286.448 365.654 286.736 365.196C287.035 364.726 287.488 364.353 288.096 364.076C288.704 363.788 289.483 363.644 290.432 363.644C291.062 363.644 291.686 363.734 292.304 363.916C292.923 364.086 293.456 364.326 293.904 364.636L293.504 365.58C293.024 365.26 292.512 365.025 291.968 364.876C291.435 364.726 290.918 364.652 290.416 364.652C289.744 364.652 289.19 364.742 288.752 364.924C288.315 365.105 287.99 365.35 287.776 365.66C287.574 365.958 287.472 366.3 287.472 366.684C287.472 367.121 287.595 367.473 287.84 367.74C288.096 368.006 288.427 368.214 288.832 368.364C289.248 368.513 289.702 368.646 290.192 368.764C290.683 368.881 291.168 369.009 291.648 369.148C292.139 369.286 292.587 369.468 292.992 369.692C293.408 369.905 293.739 370.193 293.984 370.556C294.24 370.918 294.368 371.393 294.368 371.98C294.368 372.524 294.219 373.03 293.92 373.5C293.622 373.958 293.163 374.332 292.544 374.62C291.936 374.897 291.152 375.036 290.192 375.036ZM300.036 375.036C299.204 375.036 298.404 374.902 297.636 374.636C296.879 374.358 296.292 374.006 295.876 373.58L296.34 372.668C296.735 373.052 297.263 373.377 297.924 373.644C298.596 373.9 299.3 374.028 300.036 374.028C300.74 374.028 301.311 373.942 301.748 373.772C302.196 373.59 302.521 373.35 302.724 373.052C302.937 372.753 303.044 372.422 303.044 372.06C303.044 371.622 302.916 371.27 302.66 371.004C302.415 370.737 302.089 370.529 301.684 370.38C301.279 370.22 300.831 370.081 300.34 369.964C299.849 369.846 299.359 369.724 298.868 369.596C298.377 369.457 297.924 369.276 297.508 369.052C297.103 368.828 296.772 368.534 296.516 368.172C296.271 367.798 296.148 367.313 296.148 366.716C296.148 366.161 296.292 365.654 296.58 365.196C296.879 364.726 297.332 364.353 297.94 364.076C298.548 363.788 299.327 363.644 300.276 363.644C300.905 363.644 301.529 363.734 302.148 363.916C302.767 364.086 303.3 364.326 303.748 364.636L303.348 365.58C302.868 365.26 302.356 365.025 301.812 364.876C301.279 364.726 300.761 364.652 300.26 364.652C299.588 364.652 299.033 364.742 298.596 364.924C298.159 365.105 297.833 365.35 297.62 365.66C297.417 365.958 297.316 366.3 297.316 366.684C297.316 367.121 297.439 367.473 297.684 367.74C297.94 368.006 298.271 368.214 298.676 368.364C299.092 368.513 299.545 368.646 300.036 368.764C300.527 368.881 301.012 369.009 301.492 369.148C301.983 369.286 302.431 369.468 302.836 369.692C303.252 369.905 303.583 370.193 303.828 370.556C304.084 370.918 304.212 371.393 304.212 371.98C304.212 372.524 304.063 373.03 303.764 373.5C303.465 373.958 303.007 374.332 302.388 374.62C301.78 374.897 300.996 375.036 300.036 375.036ZM309.336 374.94L305.56 363.74H306.776L310.312 374.284H309.704L313.352 363.74H314.44L318.04 374.284H317.464L321.032 363.74H322.168L318.392 374.94H317.144L313.704 364.94H314.024L310.568 374.94H309.336ZM329.125 375.036C328.283 375.036 327.499 374.897 326.773 374.62C326.059 374.332 325.435 373.932 324.901 373.42C324.379 372.897 323.968 372.294 323.669 371.612C323.381 370.918 323.237 370.161 323.237 369.34C323.237 368.518 323.381 367.766 323.669 367.084C323.968 366.39 324.379 365.788 324.901 365.276C325.435 364.753 326.059 364.353 326.773 364.076C327.488 363.788 328.272 363.644 329.125 363.644C329.968 363.644 330.747 363.788 331.461 364.076C332.176 364.353 332.795 364.748 333.317 365.26C333.851 365.772 334.261 366.374 334.549 367.068C334.848 367.761 334.997 368.518 334.997 369.34C334.997 370.161 334.848 370.918 334.549 371.612C334.261 372.305 333.851 372.908 333.317 373.42C332.795 373.932 332.176 374.332 331.461 374.62C330.747 374.897 329.968 375.036 329.125 375.036ZM329.125 373.98C329.797 373.98 330.416 373.868 330.981 373.644C331.557 373.409 332.053 373.084 332.469 372.668C332.896 372.241 333.227 371.75 333.461 371.196C333.696 370.63 333.813 370.012 333.813 369.34C333.813 368.668 333.696 368.054 333.461 367.5C333.227 366.934 332.896 366.444 332.469 366.028C332.053 365.601 331.557 365.276 330.981 365.052C330.416 364.817 329.797 364.7 329.125 364.7C328.453 364.7 327.829 364.817 327.253 365.052C326.677 365.276 326.176 365.601 325.749 366.028C325.333 366.444 325.003 366.934 324.757 367.5C324.523 368.054 324.405 368.668 324.405 369.34C324.405 370.001 324.523 370.614 324.757 371.18C325.003 371.745 325.333 372.241 325.749 372.668C326.176 373.084 326.677 373.409 327.253 373.644C327.829 373.868 328.453 373.98 329.125 373.98ZM337.651 374.94V363.74H341.843C342.792 363.74 343.608 363.894 344.291 364.204C344.974 364.502 345.496 364.94 345.859 365.516C346.232 366.081 346.419 366.769 346.419 367.58C346.419 368.369 346.232 369.052 345.859 369.628C345.496 370.193 344.974 370.63 344.291 370.94C343.608 371.238 342.792 371.388 341.843 371.388H338.307L338.835 370.844V374.94H337.651ZM345.299 374.94L342.419 370.876H343.699L346.595 374.94H345.299ZM338.835 370.94L338.307 370.38H341.811C342.931 370.38 343.779 370.134 344.355 369.644C344.942 369.153 345.235 368.465 345.235 367.58C345.235 366.684 344.942 365.99 344.355 365.5C343.779 365.009 342.931 364.764 341.811 364.764H338.307L338.835 364.204V370.94ZM349.214 374.94V363.74H353.774C354.968 363.74 356.014 363.98 356.91 364.46C357.816 364.929 358.52 365.585 359.022 366.428C359.523 367.27 359.774 368.241 359.774 369.34C359.774 370.438 359.523 371.409 359.022 372.252C358.52 373.094 357.816 373.756 356.91 374.236C356.014 374.705 354.968 374.94 353.774 374.94H349.214ZM350.398 373.916H353.71C354.702 373.916 355.56 373.724 356.286 373.34C357.022 372.945 357.592 372.406 357.998 371.724C358.403 371.03 358.606 370.236 358.606 369.34C358.606 368.433 358.403 367.638 357.998 366.956C357.592 366.273 357.022 365.74 356.286 365.356C355.56 364.961 354.702 364.764 353.71 364.764H350.398V373.916Z" fill="#44010A"/>
<path fill-rule="evenodd" clip-rule="evenodd" d="M536.848 363.698C537.173 363.373 537.173 362.845 536.848 362.519C536.522 362.193 535.994 362.193 535.668 362.519L517.88 380.307C517.555 380.633 517.555 381.161 517.88 381.486C518.206 381.812 518.734 381.812 519.06 381.486L522.225 378.321C523.744 379.036 525.493 379.507 527.364 379.507C530.348 379.507 533.023 378.309 534.947 376.833C535.91 376.093 536.706 375.268 537.268 374.458C537.815 373.671 538.203 372.806 538.203 372.003C538.203 371.199 537.815 370.335 537.268 369.547C536.706 368.737 535.91 367.912 534.947 367.172C534.655 366.948 534.347 366.731 534.022 366.523L536.848 363.698ZM532.811 367.735L530.842 369.703C531.279 370.363 531.533 371.153 531.533 372.003C531.533 374.305 529.666 376.172 527.364 376.172C526.514 376.172 525.724 375.917 525.065 375.481L523.49 377.056C524.674 377.539 525.988 377.839 527.364 377.839C529.906 377.839 532.234 376.813 533.931 375.51C534.778 374.86 535.448 374.157 535.898 373.507C536.364 372.836 536.536 372.311 536.536 372.003C536.536 371.694 536.364 371.169 535.898 370.498C535.448 369.849 534.778 369.145 533.931 368.495C533.583 368.228 533.209 367.972 532.811 367.735ZM526.285 374.26C526.612 374.416 526.978 374.504 527.364 374.504C528.745 374.504 529.865 373.384 529.865 372.003C529.865 371.616 529.778 371.251 529.622 370.924L526.285 374.26Z" fill="#C2C3CB"/>
<path d="M527.364 364.498C528.512 364.498 529.614 364.675 530.645 364.977C530.843 365.036 530.902 365.284 530.756 365.43L529.839 366.347C529.771 366.415 529.671 366.443 529.576 366.421C528.865 366.258 528.124 366.166 527.364 366.166C524.822 366.166 522.494 367.192 520.796 368.495C519.949 369.145 519.28 369.849 518.83 370.498C518.364 371.169 518.192 371.694 518.192 372.003C518.192 372.311 518.364 372.836 518.83 373.507C519.223 374.074 519.783 374.683 520.483 375.261C520.612 375.367 520.624 375.562 520.506 375.68L519.718 376.468C519.618 376.569 519.457 376.577 519.349 376.486C518.578 375.84 517.935 375.144 517.46 374.458C516.913 373.671 516.524 372.806 516.524 372.003C516.524 371.199 516.913 370.335 517.46 369.547C518.022 368.737 518.818 367.912 519.781 367.172C521.705 365.696 524.38 364.498 527.364 364.498Z" fill="#C2C3CB"/>
<path d="M527.364 367.834C527.496 367.834 527.626 367.84 527.755 367.852C527.973 367.872 528.053 368.134 527.897 368.289L526.549 369.637C525.823 369.887 525.248 370.462 524.998 371.188L523.65 372.536C523.495 372.691 523.233 372.612 523.213 372.393C523.201 372.265 523.195 372.134 523.195 372.003C523.195 369.7 525.061 367.834 527.364 367.834Z" fill="#C2C3CB"/>
<path d="M214.797 376.886C214.797 375.87 215.621 375.046 216.637 375.046C217.654 375.046 218.477 375.87 218.477 376.886C218.477 377.902 217.654 378.726 216.637 378.726C215.621 378.726 214.797 377.902 214.797 376.886Z" fill="#44010A"/>
<path fill-rule="evenodd" clip-rule="evenodd" d="M211.266 370.258L210.879 366.775C210.83 366.329 210.83 365.878 210.879 365.431L210.907 365.18C211.203 362.514 213.299 360.404 215.964 360.091C216.411 360.038 216.863 360.038 217.311 360.091C219.975 360.404 222.071 362.514 222.367 365.18L222.395 365.431C222.445 365.878 222.445 366.329 222.395 366.775L222.008 370.258L222.851 370.325C224.179 370.431 225.264 371.43 225.479 372.745C225.928 375.487 225.928 378.285 225.479 381.027C225.264 382.342 224.179 383.341 222.851 383.447L221.015 383.593C218.101 383.826 215.173 383.826 212.259 383.593L210.424 383.447C209.096 383.341 208.011 382.342 207.796 381.027C207.347 378.285 207.347 375.487 207.796 372.745C208.011 371.43 209.096 370.431 210.424 370.325L211.266 370.258ZM216.179 361.918C216.483 361.883 216.791 361.883 217.096 361.918C218.91 362.132 220.337 363.568 220.539 365.383L220.567 365.635C220.601 365.946 220.601 366.26 220.567 366.572L220.173 370.118C217.818 369.966 215.456 369.966 213.102 370.118L212.708 366.572C212.673 366.26 212.673 365.946 212.708 365.635L212.736 365.383C212.938 363.568 214.365 362.132 216.179 361.918ZM220.869 372.013C218.052 371.788 215.222 371.788 212.406 372.013L210.57 372.159C210.086 372.198 209.69 372.562 209.612 373.042C209.195 375.588 209.195 378.184 209.612 380.73C209.69 381.21 210.086 381.574 210.57 381.612L212.406 381.759C215.222 381.984 218.052 381.984 220.869 381.759L222.704 381.612C223.189 381.574 223.584 381.21 223.663 380.73C224.08 378.184 224.08 375.588 223.663 373.042C223.584 372.562 223.189 372.198 222.704 372.159L220.869 372.013Z" fill="#44010A"/>
</g>
<rect x="183" y="235.536" width="382.441" height="74.4871" rx="14.2748" fill="#F5F5F5"/>
<g opacity="0.36">
<path d="M264.814 269.802H270.734V270.81H264.814V269.802ZM264.942 274.97H271.678V275.994H263.758V264.794H271.438V265.818H264.942V274.97ZM274.461 275.994V264.794H275.437L280.557 273.53H280.045L285.117 264.794H286.093V275.994H284.957V266.57H285.229L280.557 274.57H279.997L275.293 266.57H275.597V275.994H274.461ZM287.95 275.994L293.07 264.794H294.238L299.358 275.994H298.11L293.406 265.482H293.886L289.182 275.994H287.95ZM289.966 273.002L290.318 272.042H296.83L297.182 273.002H289.966ZM301.211 275.994V264.794H302.395V275.994H301.211ZM306.039 275.994V264.794H307.223V274.97H313.495V275.994H306.039Z" fill="#44010A"/>
<path fill-rule="evenodd" clip-rule="evenodd" d="M206.579 268.92C206.242 271.909 206.257 275.356 206.726 278.333C206.985 279.98 208.393 281.243 210.13 281.387L211.946 281.538C215.732 281.852 219.54 281.852 223.326 281.538L225.141 281.387C226.879 281.243 228.286 279.98 228.546 278.333C229.014 275.356 229.029 271.909 228.693 268.92C228.649 268.574 228.6 268.228 228.546 267.882C228.286 266.235 226.879 264.972 225.141 264.828L223.326 264.677C219.54 264.363 215.732 264.363 211.946 264.677L210.13 264.828C208.393 264.972 206.985 266.235 206.726 267.882C206.671 268.227 206.622 268.573 206.579 268.92ZM212.102 266.393C215.784 266.087 219.487 266.087 223.169 266.393L224.985 266.544C225.892 266.619 226.627 267.278 226.762 268.138C226.776 268.227 226.79 268.317 226.803 268.406L220.117 271.954C218.574 272.773 216.697 272.773 215.154 271.954L208.468 268.406C208.481 268.317 208.495 268.227 208.509 268.138C208.645 267.278 209.379 266.619 210.286 266.544L212.102 266.393ZM227.024 270.26C227.257 272.864 227.17 275.487 226.762 278.077C226.627 278.937 225.892 279.596 224.985 279.671L223.169 279.822C219.487 280.128 215.784 280.128 212.102 279.822L210.286 279.671C209.379 279.596 208.645 278.937 208.509 278.077C208.101 275.487 208.014 272.864 208.247 270.26L214.278 273.46C216.366 274.567 218.905 274.567 220.993 273.46L227.024 270.26Z" fill="#44010A"/>
</g>
<rect x="183" y="136.59" width="382.441" height="74.4871" rx="14.2748" fill="#F5F5F5"/>
<g opacity="0.36">
<path d="M264.814 171.273H270.734V172.297H264.814V171.273ZM264.942 177.049H263.758V165.849H271.438V166.873H264.942V177.049ZM278.395 177.145C276.966 177.145 275.84 176.734 275.019 175.913C274.198 175.091 273.787 173.875 273.787 172.265V165.849H274.971V172.217C274.971 173.539 275.27 174.515 275.867 175.145C276.464 175.774 277.307 176.089 278.395 176.089C279.494 176.089 280.342 175.774 280.939 175.145C281.536 174.515 281.835 173.539 281.835 172.217V165.849H282.987V172.265C282.987 173.875 282.576 175.091 281.755 175.913C280.944 176.734 279.824 177.145 278.395 177.145ZM286.555 177.049V165.849H287.739V176.025H294.011V177.049H286.555ZM295.977 177.049V165.849H297.161V176.025H303.433V177.049H295.977ZM309.586 177.049V165.849H310.562L318.29 175.577H317.778V165.849H318.946V177.049H317.97L310.258 167.321H310.77V177.049H309.586ZM320.81 177.049L325.93 165.849H327.098L332.218 177.049H330.97L326.266 166.537H326.746L322.042 177.049H320.81ZM322.826 174.057L323.178 173.097H329.69L330.042 174.057H322.826ZM334.071 177.049V165.849H335.047L340.167 174.585H339.655L344.727 165.849H345.703V177.049H344.567V167.625H344.839L340.167 175.625H339.607L334.903 167.625H335.207V177.049H334.071ZM350.408 170.857H356.328V171.865H350.408V170.857ZM350.536 176.025H357.272V177.049H349.352V165.849H357.032V166.873H350.536V176.025Z" fill="#44010A"/>
<path fill-rule="evenodd" clip-rule="evenodd" d="M212.103 168.911C212.103 165.797 214.628 163.272 217.743 163.272C220.857 163.272 223.382 165.797 223.382 168.911C223.382 172.026 220.857 174.551 217.743 174.551C214.628 174.551 212.103 172.026 212.103 168.911ZM217.743 165.262C215.727 165.262 214.094 166.896 214.094 168.911C214.094 170.927 215.727 172.56 217.743 172.56C219.758 172.56 221.392 170.927 221.392 168.911C221.392 166.896 219.758 165.262 217.743 165.262Z" fill="#44010A"/>
<path fill-rule="evenodd" clip-rule="evenodd" d="M212.435 178.532C210.786 178.532 209.449 179.868 209.449 181.517V183.094C209.449 183.118 209.467 183.138 209.49 183.142C214.956 184.035 220.53 184.035 225.995 183.142C226.019 183.138 226.036 183.118 226.036 183.094V181.517C226.036 179.868 224.699 178.532 223.05 178.532H222.598C222.563 178.532 222.528 178.537 222.495 178.548L221.347 178.923C219.005 179.688 216.48 179.688 214.139 178.923L212.99 178.548C212.957 178.537 212.922 178.532 212.887 178.532H212.435ZM207.459 181.517C207.459 178.769 209.687 176.541 212.435 176.541H212.887C213.132 176.541 213.375 176.58 213.608 176.656L214.757 177.031C216.697 177.665 218.788 177.665 220.729 177.031L221.877 176.656C222.11 176.58 222.353 176.541 222.598 176.541H223.05C225.799 176.541 228.026 178.769 228.026 181.517V183.094C228.026 184.093 227.302 184.946 226.316 185.107C220.638 186.034 214.847 186.034 209.17 185.107C208.183 184.946 207.459 184.093 207.459 183.094V181.517Z" fill="#44010A"/>
</g>
<path d="M261.21 88.18C259.65 88.18 258.15 87.93 256.71 87.43C255.29 86.91 254.19 86.25 253.41 85.45L254.28 83.74C255.02 84.46 256.01 85.07 257.25 85.57C258.51 86.05 259.83 86.29 261.21 86.29C262.53 86.29 263.6 86.13 264.42 85.81C265.26 85.47 265.87 85.02 266.25 84.46C266.65 83.9 266.85 83.28 266.85 82.6C266.85 81.78 266.61 81.12 266.13 80.62C265.67 80.12 265.06 79.73 264.3 79.45C263.54 79.15 262.7 78.89 261.78 78.67C260.86 78.45 259.94 78.22 259.02 77.98C258.1 77.72 257.25 77.38 256.47 76.96C255.71 76.54 255.09 75.99 254.61 75.31C254.15 74.61 253.92 73.7 253.92 72.58C253.92 71.54 254.19 70.59 254.73 69.73C255.29 68.85 256.14 68.15 257.28 67.63C258.42 67.09 259.88 66.82 261.66 66.82C262.84 66.82 264.01 66.99 265.17 67.33C266.33 67.65 267.33 68.1 268.17 68.68L267.42 70.45C266.52 69.85 265.56 69.41 264.54 69.13C263.54 68.85 262.57 68.71 261.63 68.71C260.37 68.71 259.33 68.88 258.51 69.22C257.69 69.56 257.08 70.02 256.68 70.6C256.3 71.16 256.11 71.8 256.11 72.52C256.11 73.34 256.34 74 256.8 74.5C257.28 75 257.9 75.39 258.66 75.67C259.44 75.95 260.29 76.2 261.21 76.42C262.13 76.64 263.04 76.88 263.94 77.14C264.86 77.4 265.7 77.74 266.46 78.16C267.24 78.56 267.86 79.1 268.32 79.78C268.8 80.46 269.04 81.35 269.04 82.45C269.04 83.47 268.76 84.42 268.2 85.3C267.64 86.16 266.78 86.86 265.62 87.4C264.48 87.92 263.01 88.18 261.21 88.18ZM272.227 88V72.25H274.357V88H272.227ZM273.307 68.77C272.867 68.77 272.497 68.62 272.197 68.32C271.897 68.02 271.747 67.66 271.747 67.24C271.747 66.82 271.897 66.47 272.197 66.19C272.497 65.89 272.867 65.74 273.307 65.74C273.747 65.74 274.117 65.88 274.417 66.16C274.717 66.44 274.867 66.79 274.867 67.21C274.867 67.65 274.717 68.02 274.417 68.32C274.137 68.62 273.767 68.77 273.307 68.77ZM285.804 93.97C284.364 93.97 282.984 93.76 281.664 93.34C280.344 92.92 279.274 92.32 278.454 91.54L279.534 89.92C280.274 90.58 281.184 91.1 282.264 91.48C283.364 91.88 284.524 92.08 285.744 92.08C287.744 92.08 289.214 91.61 290.154 90.67C291.094 89.75 291.564 88.31 291.564 86.35V82.42L291.864 79.72L291.654 77.02V72.25H293.694V86.08C293.694 88.8 293.024 90.79 291.684 92.05C290.364 93.33 288.404 93.97 285.804 93.97ZM285.414 87.4C283.914 87.4 282.564 87.08 281.364 86.44C280.164 85.78 279.214 84.87 278.514 83.71C277.834 82.55 277.494 81.22 277.494 79.72C277.494 78.22 277.834 76.9 278.514 75.76C279.214 74.6 280.164 73.7 281.364 73.06C282.564 72.42 283.914 72.1 285.414 72.1C286.814 72.1 288.074 72.39 289.194 72.97C290.314 73.55 291.204 74.41 291.864 75.55C292.524 76.69 292.854 78.08 292.854 79.72C292.854 81.36 292.524 82.75 291.864 83.89C291.204 85.03 290.314 85.9 289.194 86.5C288.074 87.1 286.814 87.4 285.414 87.4ZM285.624 85.51C286.784 85.51 287.814 85.27 288.714 84.79C289.614 84.29 290.324 83.61 290.844 82.75C291.364 81.87 291.624 80.86 291.624 79.72C291.624 78.58 291.364 77.58 290.844 76.72C290.324 75.86 289.614 75.19 288.714 74.71C287.814 74.21 286.784 73.96 285.624 73.96C284.484 73.96 283.454 74.21 282.534 74.71C281.634 75.19 280.924 75.86 280.404 76.72C279.904 77.58 279.654 78.58 279.654 79.72C279.654 80.86 279.904 81.87 280.404 82.75C280.924 83.61 281.634 84.29 282.534 84.79C283.454 85.27 284.484 85.51 285.624 85.51ZM306.461 72.1C307.741 72.1 308.861 72.35 309.821 72.85C310.801 73.33 311.561 74.07 312.101 75.07C312.661 76.07 312.941 77.33 312.941 78.85V88H310.811V79.06C310.811 77.4 310.391 76.15 309.551 75.31C308.731 74.45 307.571 74.02 306.071 74.02C304.951 74.02 303.971 74.25 303.131 74.71C302.311 75.15 301.671 75.8 301.211 76.66C300.771 77.5 300.551 78.52 300.551 79.72V88H298.421V72.25H300.461V76.57L300.131 75.76C300.631 74.62 301.431 73.73 302.531 73.09C303.631 72.43 304.941 72.1 306.461 72.1ZM333.056 88.18C330.376 88.18 328.266 87.41 326.726 85.87C325.186 84.33 324.416 82.05 324.416 79.03V67H326.636V78.94C326.636 81.42 327.196 83.25 328.316 84.43C329.436 85.61 331.016 86.2 333.056 86.2C335.116 86.2 336.706 85.61 337.826 84.43C338.946 83.25 339.506 81.42 339.506 78.94V67H341.666V79.03C341.666 82.05 340.896 84.33 339.356 85.87C337.836 87.41 335.736 88.18 333.056 88.18ZM354.836 88.15C353.476 88.15 352.246 87.84 351.146 87.22C350.046 86.58 349.166 85.67 348.506 84.49C347.866 83.29 347.546 81.83 347.546 80.11C347.546 78.39 347.866 76.94 348.506 75.76C349.146 74.56 350.016 73.65 351.116 73.03C352.216 72.41 353.456 72.1 354.836 72.1C356.336 72.1 357.676 72.44 358.856 73.12C360.056 73.78 360.996 74.72 361.676 75.94C362.356 77.14 362.696 78.53 362.696 80.11C362.696 81.71 362.356 83.11 361.676 84.31C360.996 85.51 360.056 86.45 358.856 87.13C357.676 87.81 356.336 88.15 354.836 88.15ZM346.706 93.82V72.25H348.746V76.99L348.536 80.14L348.836 83.32V93.82H346.706ZM354.686 86.26C355.806 86.26 356.806 86.01 357.686 85.51C358.566 84.99 359.266 84.27 359.786 83.35C360.306 82.41 360.566 81.33 360.566 80.11C360.566 78.89 360.306 77.82 359.786 76.9C359.266 75.98 358.566 75.26 357.686 74.74C356.806 74.22 355.806 73.96 354.686 73.96C353.566 73.96 352.556 74.22 351.656 74.74C350.776 75.26 350.076 75.98 349.556 76.9C349.056 77.82 348.806 78.89 348.806 80.11C348.806 81.33 349.056 82.41 349.556 83.35C350.076 84.27 350.776 84.99 351.656 85.51C352.556 86.01 353.566 86.26 354.686 86.26ZM377.019 88V68.92H369.639V67H386.619V68.92H379.239V88H377.019ZM393.295 88.15C391.775 88.15 390.405 87.81 389.185 87.13C387.985 86.43 387.035 85.48 386.335 84.28C385.635 83.06 385.285 81.67 385.285 80.11C385.285 78.53 385.635 77.14 386.335 75.94C387.035 74.74 387.985 73.8 389.185 73.12C390.385 72.44 391.755 72.1 393.295 72.1C394.855 72.1 396.235 72.44 397.435 73.12C398.655 73.8 399.605 74.74 400.285 75.94C400.985 77.14 401.335 78.53 401.335 80.11C401.335 81.67 400.985 83.06 400.285 84.28C399.605 85.48 398.655 86.43 397.435 87.13C396.215 87.81 394.835 88.15 393.295 88.15ZM393.295 86.26C394.435 86.26 395.445 86.01 396.325 85.51C397.205 84.99 397.895 84.27 398.395 83.35C398.915 82.41 399.175 81.33 399.175 80.11C399.175 78.87 398.915 77.79 398.395 76.87C397.895 75.95 397.205 75.24 396.325 74.74C395.445 74.22 394.445 73.96 393.325 73.96C392.205 73.96 391.205 74.22 390.325 74.74C389.445 75.24 388.745 75.95 388.225 76.87C387.705 77.79 387.445 78.87 387.445 80.11C387.445 81.33 387.705 82.41 388.225 83.35C388.745 84.27 389.445 84.99 390.325 85.51C391.205 86.01 392.195 86.26 393.295 86.26Z" fill="white"/>
<path d="M411.585 88V67H413.805V88H411.585ZM418.988 88V65.74H421.118V88H418.988ZM425.845 88V65.74H427.975V88H425.845ZM439.211 88.15C437.871 88.15 436.701 87.9 435.701 87.4C434.701 86.9 433.921 86.15 433.361 85.15C432.821 84.15 432.551 82.9 432.551 81.4V72.25H434.681V81.16C434.681 82.84 435.091 84.11 435.911 84.97C436.751 85.81 437.921 86.23 439.421 86.23C440.521 86.23 441.471 86.01 442.271 85.57C443.091 85.11 443.711 84.45 444.131 83.59C444.571 82.73 444.791 81.7 444.791 80.5V72.25H446.921V88H444.881V83.68L445.211 84.46C444.711 85.62 443.931 86.53 442.871 87.19C441.831 87.83 440.611 88.15 439.211 88.15ZM471.338 72.1C472.618 72.1 473.728 72.35 474.668 72.85C475.628 73.33 476.368 74.07 476.888 75.07C477.428 76.07 477.698 77.33 477.698 78.85V88H475.568V79.06C475.568 77.4 475.168 76.15 474.368 75.31C473.588 74.45 472.478 74.02 471.038 74.02C469.958 74.02 469.018 74.25 468.218 74.71C467.438 75.15 466.828 75.8 466.388 76.66C465.968 77.5 465.758 78.52 465.758 79.72V88H463.628V79.06C463.628 77.4 463.228 76.15 462.428 75.31C461.628 74.45 460.508 74.02 459.068 74.02C458.008 74.02 457.078 74.25 456.278 74.71C455.478 75.15 454.858 75.8 454.418 76.66C453.998 77.5 453.788 78.52 453.788 79.72V88H451.658V72.25H453.698V76.51L453.368 75.76C453.848 74.62 454.618 73.73 455.678 73.09C456.758 72.43 458.028 72.1 459.488 72.1C461.028 72.1 462.338 72.49 463.418 73.27C464.498 74.03 465.198 75.18 465.518 76.72L464.678 76.39C465.138 75.11 465.948 74.08 467.108 73.3C468.288 72.5 469.698 72.1 471.338 72.1ZM482.274 88V72.25H484.404V88H482.274ZM483.354 68.77C482.914 68.77 482.544 68.62 482.244 68.32C481.944 68.02 481.794 67.66 481.794 67.24C481.794 66.82 481.944 66.47 482.244 66.19C482.544 65.89 482.914 65.74 483.354 65.74C483.794 65.74 484.164 65.88 484.464 66.16C484.764 66.44 484.914 66.79 484.914 67.21C484.914 67.65 484.764 68.02 484.464 68.32C484.184 68.62 483.814 68.77 483.354 68.77ZM497.171 72.1C498.451 72.1 499.571 72.35 500.531 72.85C501.511 73.33 502.271 74.07 502.811 75.07C503.371 76.07 503.651 77.33 503.651 78.85V88H501.521V79.06C501.521 77.4 501.101 76.15 500.261 75.31C499.441 74.45 498.281 74.02 496.781 74.02C495.661 74.02 494.681 74.25 493.841 74.71C493.021 75.15 492.381 75.8 491.921 76.66C491.481 77.5 491.261 78.52 491.261 79.72V88H489.131V72.25H491.171V76.57L490.841 75.76C491.341 74.62 492.141 73.73 493.241 73.09C494.341 72.43 495.651 72.1 497.171 72.1ZM514.624 88.15C513.104 88.15 511.734 87.81 510.514 87.13C509.314 86.43 508.364 85.48 507.664 84.28C506.964 83.06 506.614 81.67 506.614 80.11C506.614 78.53 506.964 77.14 507.664 75.94C508.364 74.74 509.314 73.8 510.514 73.12C511.714 72.44 513.084 72.1 514.624 72.1C516.184 72.1 517.564 72.44 518.764 73.12C519.984 73.8 520.934 74.74 521.614 75.94C522.314 77.14 522.664 78.53 522.664 80.11C522.664 81.67 522.314 83.06 521.614 84.28C520.934 85.48 519.984 86.43 518.764 87.13C517.544 87.81 516.164 88.15 514.624 88.15ZM514.624 86.26C515.764 86.26 516.774 86.01 517.654 85.51C518.534 84.99 519.224 84.27 519.724 83.35C520.244 82.41 520.504 81.33 520.504 80.11C520.504 78.87 520.244 77.79 519.724 76.87C519.224 75.95 518.534 75.24 517.654 74.74C516.774 74.22 515.774 73.96 514.654 73.96C513.534 73.96 512.534 74.22 511.654 74.74C510.774 75.24 510.074 75.95 509.554 76.87C509.034 77.79 508.774 78.87 508.774 80.11C508.774 81.33 509.034 82.41 509.554 83.35C510.074 84.27 510.774 84.99 511.654 85.51C512.534 86.01 513.524 86.26 514.624 86.26ZM530.043 88.15C528.743 88.15 527.513 87.97 526.353 87.61C525.193 87.23 524.283 86.76 523.623 86.2L524.583 84.52C525.223 85 526.043 85.42 527.043 85.78C528.043 86.12 529.093 86.29 530.193 86.29C531.693 86.29 532.773 86.06 533.433 85.6C534.093 85.12 534.423 84.49 534.423 83.71C534.423 83.13 534.233 82.68 533.853 82.36C533.493 82.02 533.013 81.77 532.413 81.61C531.813 81.43 531.143 81.28 530.403 81.16C529.663 81.04 528.923 80.9 528.183 80.74C527.463 80.58 526.803 80.35 526.203 80.05C525.603 79.73 525.113 79.3 524.733 78.76C524.373 78.22 524.193 77.5 524.193 76.6C524.193 75.74 524.433 74.97 524.913 74.29C525.393 73.61 526.093 73.08 527.013 72.7C527.953 72.3 529.093 72.1 530.433 72.1C531.453 72.1 532.473 72.24 533.493 72.52C534.513 72.78 535.353 73.13 536.013 73.57L535.083 75.28C534.383 74.8 533.633 74.46 532.833 74.26C532.033 74.04 531.233 73.93 530.433 73.93C529.013 73.93 527.963 74.18 527.283 74.68C526.623 75.16 526.293 75.78 526.293 76.54C526.293 77.14 526.473 77.61 526.833 77.95C527.213 78.29 527.703 78.56 528.303 78.76C528.923 78.94 529.593 79.09 530.313 79.21C531.053 79.33 531.783 79.48 532.503 79.66C533.243 79.82 533.913 80.05 534.513 80.35C535.133 80.63 535.623 81.04 535.983 81.58C536.363 82.1 536.553 82.79 536.553 83.65C536.553 84.57 536.293 85.37 535.773 86.05C535.273 86.71 534.533 87.23 533.553 87.61C532.593 87.97 531.423 88.15 530.043 88.15Z" fill="#CA529A"/>
</svg>
