<svg width="26" height="26" viewBox="0 0 26 26" fill="none" xmlns="http://www.w3.org/2000/svg">
<mask id="path-1-inside-1_50_647" fill="white">
<path d="M13 0C20.0473 2.61981e-07 26 5.808 26 12.6836C25.9999 16.7294 23.9301 20.3921 20.7998 22.7334V22.8301H20.667C18.4987 24.409 15.8429 25.3662 13 25.3662C10.1571 25.3662 7.50134 24.409 5.33301 22.8301H5.2002V22.7334C2.06988 20.3921 0.000115322 16.7281 0 12.6836C0 5.808 5.9527 0 13 0ZM11.7002 18.4834C10.8127 18.4849 9.95223 18.7815 9.26074 19.3242C8.5693 19.8669 8.0881 20.6234 7.89648 21.4688C9.41485 22.3274 11.1593 22.8301 13 22.8301C14.8407 22.8301 16.5851 22.3274 18.1035 21.4688C17.9117 20.6235 17.4306 19.8669 16.7393 19.3242C16.0478 18.7815 15.1872 18.4851 14.2998 18.4834H11.7002ZM13 2.53711C7.3619 2.53711 2.59961 7.18287 2.59961 12.6836C2.59971 15.4433 3.80001 17.9875 5.70703 19.8379C6.20284 18.6862 7.03577 17.7029 8.10156 17.0107C9.16756 16.3186 10.4197 15.9479 11.7002 15.9463H14.2998C15.5803 15.9479 16.8324 16.3186 17.8984 17.0107C18.9642 17.7029 19.7972 18.6862 20.293 19.8379C22.2 17.9875 23.4003 15.4433 23.4004 12.6836C23.4004 7.18287 18.6381 2.53711 13 2.53711ZM13 5.07324C15.964 5.07324 18.2001 7.25477 18.2002 10.1465C18.2002 13.0383 15.964 15.2197 13 15.2197C10.036 15.2197 7.7998 13.0383 7.7998 10.1465C7.79987 7.25478 10.0361 5.07326 13 5.07324ZM13 7.61035C11.4687 7.61037 10.4005 8.65248 10.4004 10.1465C10.4004 11.6406 11.4686 12.6836 13 12.6836C14.5314 12.6836 15.5996 11.6406 15.5996 10.1465C15.5995 8.65247 14.5314 7.61035 13 7.61035Z"/>
</mask>
<path d="M13 0C20.0473 2.61981e-07 26 5.808 26 12.6836C25.9999 16.7294 23.9301 20.3921 20.7998 22.7334V22.8301H20.667C18.4987 24.409 15.8429 25.3662 13 25.3662C10.1571 25.3662 7.50134 24.409 5.33301 22.8301H5.2002V22.7334C2.06988 20.3921 0.000115322 16.7281 0 12.6836C0 5.808 5.9527 0 13 0ZM11.7002 18.4834C10.8127 18.4849 9.95223 18.7815 9.26074 19.3242C8.5693 19.8669 8.0881 20.6234 7.89648 21.4688C9.41485 22.3274 11.1593 22.8301 13 22.8301C14.8407 22.8301 16.5851 22.3274 18.1035 21.4688C17.9117 20.6235 17.4306 19.8669 16.7393 19.3242C16.0478 18.7815 15.1872 18.4851 14.2998 18.4834H11.7002ZM13 2.53711C7.3619 2.53711 2.59961 7.18287 2.59961 12.6836C2.59971 15.4433 3.80001 17.9875 5.70703 19.8379C6.20284 18.6862 7.03577 17.7029 8.10156 17.0107C9.16756 16.3186 10.4197 15.9479 11.7002 15.9463H14.2998C15.5803 15.9479 16.8324 16.3186 17.8984 17.0107C18.9642 17.7029 19.7972 18.6862 20.293 19.8379C22.2 17.9875 23.4003 15.4433 23.4004 12.6836C23.4004 7.18287 18.6381 2.53711 13 2.53711ZM13 5.07324C15.964 5.07324 18.2001 7.25477 18.2002 10.1465C18.2002 13.0383 15.964 15.2197 13 15.2197C10.036 15.2197 7.7998 13.0383 7.7998 10.1465C7.79987 7.25478 10.0361 5.07326 13 5.07324ZM13 7.61035C11.4687 7.61037 10.4005 8.65248 10.4004 10.1465C10.4004 11.6406 11.4686 12.6836 13 12.6836C14.5314 12.6836 15.5996 11.6406 15.5996 10.1465C15.5995 8.65247 14.5314 7.61035 13 7.61035Z" fill="white"/>
<path d="M13 0L13 -1H13V0ZM26 12.6836L27 12.6836V12.6836H26ZM20.7998 22.7334L20.2009 21.9326L19.7998 22.2326V22.7334H20.7998ZM20.7998 22.8301V23.8301H21.7998V22.8301H20.7998ZM20.667 22.8301V21.8301H20.3415L20.0783 22.0217L20.667 22.8301ZM13 25.3662L13 26.3662H13L13 25.3662ZM5.33301 22.8301L5.92165 22.0217L5.65851 21.8301H5.33301V22.8301ZM5.2002 22.8301H4.2002V23.8301H5.2002V22.8301ZM5.2002 22.7334H6.2002V22.2326L5.79914 21.9326L5.2002 22.7334ZM0 12.6836L-1 12.6836L-1 12.6836L0 12.6836ZM11.7002 18.4834L11.7002 17.4834L11.6985 17.4834L11.7002 18.4834ZM9.26074 19.3242L8.64335 18.5376L8.64331 18.5376L9.26074 19.3242ZM7.89648 21.4688L6.92122 21.2477L6.75681 21.9731L7.40425 22.3392L7.89648 21.4688ZM13 22.8301L13 23.8301L13 23.8301L13 22.8301ZM18.1035 21.4688L18.5957 22.3392L19.2434 21.973L19.0787 21.2474L18.1035 21.4688ZM16.7393 19.3242L17.3567 18.5376L17.3567 18.5376L16.7393 19.3242ZM14.2998 18.4834L14.3018 17.4834H14.2998V18.4834ZM13 2.53711L13 1.53711H13V2.53711ZM2.59961 12.6836L1.59961 12.6836L1.59961 12.6836L2.59961 12.6836ZM5.70703 19.8379L5.01066 20.5556L6.05184 21.5658L6.62553 20.2333L5.70703 19.8379ZM8.10156 17.0107L7.55699 16.172L7.55692 16.1721L8.10156 17.0107ZM11.7002 15.9463L11.7002 14.9463L11.699 14.9463L11.7002 15.9463ZM14.2998 15.9463L14.301 14.9463H14.2998V15.9463ZM17.8984 17.0107L18.4431 16.1721L18.443 16.172L17.8984 17.0107ZM20.293 19.8379L19.3745 20.2333L19.9482 21.5658L20.9893 20.5556L20.293 19.8379ZM23.4004 12.6836L24.4004 12.6836V12.6836H23.4004ZM13 5.07324L13 4.07324L13 4.07324L13 5.07324ZM18.2002 10.1465L19.2002 10.1465L19.2002 10.1465L18.2002 10.1465ZM13 15.2197L13 16.2197H13V15.2197ZM7.7998 10.1465L6.7998 10.1465V10.1465H7.7998ZM13 7.61035L13 6.61035L13 6.61035L13 7.61035ZM10.4004 10.1465L9.40039 10.1464V10.1465H10.4004ZM13 12.6836L13 13.6836H13V12.6836ZM15.5996 10.1465L16.5996 10.1465L16.5996 10.1464L15.5996 10.1465ZM13 0L13 1C19.5184 1 25 6.38336 25 12.6836H26H27C27 5.23264 20.5762 -1 13 -1L13 0ZM26 12.6836L25 12.6836C24.9999 16.3804 23.1071 19.759 20.2009 21.9326L20.7998 22.7334L21.3987 23.5342C24.7532 21.0253 26.9999 17.0784 27 12.6836L26 12.6836ZM20.7998 22.7334H19.7998V22.8301H20.7998H21.7998V22.7334H20.7998ZM20.7998 22.8301V21.8301H20.667V22.8301V23.8301H20.7998V22.8301ZM20.667 22.8301L20.0783 22.0217C18.0676 23.4858 15.6154 24.3662 13 24.3662L13 25.3662L13 26.3662C16.0705 26.3662 18.9297 25.3321 21.2556 23.6385L20.667 22.8301ZM13 25.3662V24.3662C10.3846 24.3662 7.93239 23.4858 5.92165 22.0217L5.33301 22.8301L4.74436 23.6385C7.07029 25.3321 9.92951 26.3662 13 26.3662V25.3662ZM5.33301 22.8301V21.8301H5.2002V22.8301V23.8301H5.33301V22.8301ZM5.2002 22.8301H6.2002V22.7334H5.2002H4.2002V22.8301H5.2002ZM5.2002 22.7334L5.79914 21.9326C2.89299 19.759 1.00011 16.3792 1 12.6836L0 12.6836L-1 12.6836C-0.999875 17.0771 1.24678 21.0253 4.60126 23.5342L5.2002 22.7334ZM0 12.6836H1C1 6.38336 6.48162 1 13 1V0V-1C5.42378 -1 -1 5.23264 -1 12.6836H0ZM11.7002 18.4834L11.6985 17.4834C10.5901 17.4853 9.5123 17.8556 8.64335 18.5376L9.26074 19.3242L9.87814 20.1109C10.3922 19.7075 11.0354 19.4845 11.7019 19.4834L11.7002 18.4834ZM9.26074 19.3242L8.64331 18.5376C7.77394 19.22 7.16438 20.1749 6.92122 21.2477L7.89648 21.4688L8.87175 21.6898C9.01181 21.0719 9.36467 20.5139 9.87817 20.1108L9.26074 19.3242ZM7.89648 21.4688L7.40425 22.3392C9.06249 23.2769 10.9753 23.8301 13 23.8301V22.8301V21.8301C11.3432 21.8301 9.76722 21.3778 8.38872 20.5983L7.89648 21.4688ZM13 22.8301L13 23.8301C15.0247 23.8301 16.9375 23.2769 18.5957 22.3392L18.1035 21.4688L17.6113 20.5983C16.2328 21.3778 14.6568 21.8301 13 21.8301L13 22.8301ZM18.1035 21.4688L19.0787 21.2474C18.8354 20.1751 18.2262 19.2201 17.3567 18.5376L16.7393 19.3242L16.1218 20.1108C16.6351 20.5137 16.988 21.0718 17.1283 21.6901L18.1035 21.4688ZM16.7393 19.3242L17.3567 18.5376C16.4876 17.8555 15.4098 17.4856 14.3018 17.4834L14.2998 18.4834L14.2978 19.4834C14.9646 19.4847 15.608 19.7076 16.1219 20.1109L16.7393 19.3242ZM14.2998 18.4834V17.4834H11.7002V18.4834V19.4834H14.2998V18.4834ZM13 2.53711V1.53711C6.83308 1.53711 1.59961 6.60741 1.59961 12.6836H2.59961H3.59961C3.59961 7.75832 7.89072 3.53711 13 3.53711V2.53711ZM2.59961 12.6836L1.59961 12.6836C1.59972 15.739 2.92837 18.5351 5.01066 20.5556L5.70703 19.8379L6.40341 19.1202C4.67164 17.4399 3.5997 15.1477 3.59961 12.6836L2.59961 12.6836ZM5.70703 19.8379L6.62553 20.2333C7.0421 19.2657 7.74366 18.4355 8.6462 17.8494L8.10156 17.0107L7.55692 16.1721C6.32788 16.9702 5.36358 18.1068 4.78854 19.4425L5.70703 19.8379ZM8.10156 17.0107L8.64613 17.8495C9.54932 17.263 10.6126 16.9476 11.7014 16.9463L11.7002 15.9463L11.699 14.9463C10.2268 14.9481 8.7858 15.3742 7.55699 16.172L8.10156 17.0107ZM11.7002 15.9463V16.9463H14.2998V15.9463V14.9463H11.7002V15.9463ZM14.2998 15.9463L14.2986 16.9463C15.3874 16.9476 16.4507 17.263 17.3539 17.8495L17.8984 17.0107L18.443 16.172C17.2142 15.3742 15.7732 14.9481 14.301 14.9463L14.2998 15.9463ZM17.8984 17.0107L17.3538 17.8494C18.2563 18.4355 18.9579 19.2657 19.3745 20.2333L20.293 19.8379L21.2115 19.4425C20.6364 18.1068 19.6721 16.9702 18.4431 16.1721L17.8984 17.0107ZM20.293 19.8379L20.9893 20.5556C23.0716 18.5351 24.4003 15.739 24.4004 12.6836L23.4004 12.6836L22.4004 12.6836C22.4003 15.1477 21.3284 17.4399 19.5966 19.1202L20.293 19.8379ZM23.4004 12.6836H24.4004C24.4004 6.60741 19.1669 1.53711 13 1.53711L13 2.53711L13 3.53711C18.1093 3.53711 22.4004 7.75832 22.4004 12.6836H23.4004ZM13 5.07324V6.07324C15.4351 6.07324 17.2001 7.83021 17.2002 10.1465L18.2002 10.1465L19.2002 10.1465C19.2001 6.67933 16.4928 4.07324 13 4.07324V5.07324ZM18.2002 10.1465H17.2002C17.2002 12.4628 15.4352 14.2197 13 14.2197V15.2197V16.2197C16.4928 16.2197 19.2002 13.6137 19.2002 10.1465H18.2002ZM13 15.2197L13 14.2197C10.5648 14.2197 8.7998 12.4628 8.7998 10.1465H7.7998H6.7998C6.7998 13.6137 9.5072 16.2197 13 16.2197L13 15.2197ZM7.7998 10.1465L8.7998 10.1465C8.79986 7.83023 10.5649 6.07326 13 6.07324L13 5.07324L13 4.07324C9.50722 4.07326 6.79989 6.67934 6.7998 10.1465L7.7998 10.1465ZM13 7.61035L13 6.61035C12.0031 6.61036 11.0932 6.95311 10.4277 7.60238C9.76033 8.25341 9.40043 9.15309 9.40039 10.1464L10.4004 10.1465L11.4004 10.1465C11.4004 9.64588 11.5747 9.27749 11.8243 9.03397C12.0757 8.78867 12.4655 8.61036 13 8.61035L13 7.61035ZM10.4004 10.1465H9.40039C9.40039 11.1398 9.76023 12.0397 10.4274 12.6909C11.0929 13.3404 12.0029 13.6836 13 13.6836L13 12.6836L13 11.6836C12.4657 11.6836 12.0759 11.5052 11.8244 11.2597C11.5747 11.0159 11.4004 10.6472 11.4004 10.1465H10.4004ZM13 12.6836V13.6836C13.9971 13.6836 14.9071 13.3405 15.5726 12.6909C16.2398 12.0397 16.5996 11.1398 16.5996 10.1465H15.5996H14.5996C14.5996 10.6472 14.4253 11.0159 14.1756 11.2597C13.9241 11.5052 13.5343 11.6836 13 11.6836V12.6836ZM15.5996 10.1465L16.5996 10.1464C16.5996 9.15309 16.2397 8.25341 15.5724 7.60237C14.9068 6.9531 13.9969 6.61035 13 6.61035V7.61035V8.61035C13.5345 8.61035 13.9243 8.78866 14.1757 9.03395C14.4253 9.27748 14.5996 9.64586 14.5996 10.1465L15.5996 10.1465Z" fill="white" mask="url(#path-1-inside-1_50_647)"/>
</svg>
