<svg width="136" height="37" viewBox="0 0 136 37" fill="none" xmlns="http://www.w3.org/2000/svg">
<g clip-path="url(#clip0_50_650)">
<path d="M12.3588 35.0041C12.1126 34.3885 11.964 33.8705 11.8706 33.5054C11.8281 33.3356 11.739 32.9747 11.5012 31.561C11.3951 30.9326 11.2975 30.3128 11.2677 30.1048C10.8474 27.2306 11.8791 24.2587 10.6054 22.7176C10.2276 22.2591 9.46766 21.7072 7.73125 21.6732H5.74861V35.8234C3.83389 36.0654 1.91918 36.3117 0.0044632 36.5537V0H8.67375C11.6668 0 13.8363 0.69626 15.1736 2.08878C16.5152 3.4813 17.186 5.58706 17.186 8.40607V11.276C17.186 15.0375 15.9335 17.5084 13.4245 18.6929C14.8849 19.2873 15.8868 20.251 16.426 21.5926C16.9652 22.9341 17.2369 24.5602 17.2369 26.4749V28.9797C17.1987 29.5444 17.2072 30.2364 17.3388 31.0175C17.5893 32.5035 18.1794 33.6243 18.6209 34.312C16.5364 34.5413 14.4519 34.7748 12.3631 35.0041H12.3588ZM5.74436 5.22195V16.447H7.99023C9.06858 16.447 9.91343 16.1668 10.5248 15.6107C11.1319 15.0545 11.4376 14.0441 11.4376 12.5836V8.97921C11.4376 7.65462 11.2041 6.69938 10.7328 6.10501C10.2616 5.51489 9.52285 5.21771 8.51242 5.21771H5.74436V5.22195Z" fill="#C95399"/>
<path d="M24.1101 33.7644C24.1101 22.5096 24.1101 11.2548 24.1144 0H40.0265V5.76113L29.867 5.71867V13.4242L37.5514 13.3606L37.6065 19.0368L29.7948 19.0665L29.8246 27.5745L40.0265 26.9291V32.6096C34.7196 32.9959 29.4127 33.378 24.1059 33.7644H24.1101Z" fill="#C95399"/>
<path d="M43.6818 0H61.445V5.7399H55.4376V31.9388L49.685 32.1299L49.6637 5.69745L43.6818 5.7399V0Z" fill="#C95399"/>
<path d="M65.0664 0H81.0506V5.7399H70.8615L70.8063 13.1016H78.5883L78.618 18.7566H70.836L70.8615 31.7732H65.0664V0Z" fill="#C95399"/>
<path d="M84.7315 0H90.4714V26.564L100.283 27.1541V32.8643L84.7315 32.1299V0Z" fill="#C95399"/>
<path d="M104.965 0C106.906 0 108.842 0 110.782 0V33.7049C108.837 33.5436 106.893 33.3823 104.944 33.221C104.953 22.1487 104.957 11.0765 104.965 0Z" fill="#C95399"/>
<path d="M115.596 0H121.837L125.505 9.54386L129.704 0H136L128.528 17.3258L136 36.6683L129.364 35.6918L125.225 24.8871L121.052 34.7366L114.951 34.0658L122.228 17.2155L115.596 0Z" fill="#C95399"/>
</g>
<defs>
<clipPath id="clip0_50_650">
<rect width="136" height="36.6683" fill="white"/>
</clipPath>
</defs>
</svg>
