<svg width="26" height="25" viewBox="0 0 26 25" fill="none" xmlns="http://www.w3.org/2000/svg">
<path d="M13.125 0C20.0286 2.57703e-07 25.625 5.59644 25.625 12.5C25.625 19.4036 20.0286 25 13.125 25C6.22144 25 0.625 19.4036 0.625 12.5C0.625 5.59644 6.22144 0 13.125 0ZM15.9854 7.58301C15.5396 7.45954 14.8582 7.47706 14.4561 7.61816C13.3631 8.01538 12.6723 9.03911 12.751 10.1602L12.7773 10.5928L12.3398 10.54C10.7486 10.337 9.35807 9.64845 8.17773 8.49219L7.60059 7.91797L7.45215 8.3418C7.13738 9.2863 7.33838 10.2842 7.99414 10.9551C8.34361 11.3256 8.26524 11.3778 7.66211 11.1572C7.45227 11.0866 7.26846 11.0341 7.25098 11.0605C7.18982 11.1224 7.39933 11.9252 7.56543 12.2432C7.79276 12.6845 8.25655 13.1171 8.76367 13.373L9.19238 13.5762L8.68457 13.585C8.19526 13.585 8.17802 13.594 8.23047 13.7793C8.40537 14.353 9.0959 14.9617 9.86523 15.2266L10.4072 15.4121L9.93555 15.6943C9.23607 16.1004 8.41369 16.33 7.5918 16.3477C7.19841 16.3565 6.875 16.3925 6.875 16.4189C6.87796 16.5082 7.94258 17.0014 8.5625 17.1953C10.4248 17.7691 12.6366 17.5217 14.2979 16.542C15.4782 15.8447 16.6591 14.4589 17.21 13.1172C17.5072 12.4022 17.8047 11.0954 17.8047 10.4688C17.8047 10.063 17.8308 10.0098 18.3203 9.52441C18.6088 9.24198 18.8802 8.93298 18.9326 8.84473C19.0199 8.67735 19.0107 8.6773 18.5654 8.82715C17.8222 9.09196 17.7168 9.0564 18.084 8.65918C18.355 8.37669 18.6787 7.86489 18.6787 7.71484C18.678 7.6888 18.5467 7.73326 18.3984 7.8125C18.2409 7.90073 17.8919 8.03294 17.6299 8.1123L17.1572 8.2627L16.7285 7.9707C16.4925 7.81189 16.1601 7.63594 15.9854 7.58301Z" fill="white"/>
</svg>
